<?xml version="1.0" encoding="UTF-8"?>
<svg version="1.1" viewBox="0 0 1008 1008" width="252" height="252" xmlns="http://www.w3.org/2000/svg">
<path transform="translate(695,20)" d="m0 0h5l1 4-1 15-5 21-1 5-1 14h21l5-1 2-5 7-12 7-13 7-4h6v14l-3 15 1 9 5 8 1 3 7 2 6-5 7-11 7-8 7-6 4-1 3 3v9l-4 13-8 11 1 4 7 8 4 1 2-5 7-9 8-7 5-4h12l1 1v10l-4 8-8 10-6 12-1 4 7 8 8 5h7l2-1h6l8 6 12 15 7 11 2 1 1-3 2 2 4-1 2-4 3-2h11l5 2 1 4-4 9-3 6 1 9 2 5v6l-7 14-7 8-2 4 1 6 3 5 2 9-4 2 2 7 4 5 11 8v9l-3 15-4 3h-2l-3 13v26l-3 9-7 14-10 13-13 12-10 9-15 7h-2v10l3 5 15 9 4 5-2 5-2 1-24 1-5 5-2 3h-2v2l-4 4-4 6-5 4-10 3-8 3-11 7-3 3-7 18-7 21-8 32-3 15-2 50 3 12 8 15 8 10 11 13 14 15 7 7 9 11 8 10 9 10 16 16 22 28 12 14 8 12 4 11 1 7v9l-2 13-5 12-7 9-17 16-11 10-8 7-8 8-5 3-7-1-7-3-2-7v-7l3-8 10-8 8-6 11-10 11-8 4-2 6-12v-11l-4-10-14-19-11-12-8-10-12-13-10-10-10-13-7-10-7-9-14-15-12-12-12-17-9-14-7-18-2-7v-19l2-10 1-19 3-17 8-32 5-15v-12l-4-6-5-3-5 2-7 7-6 2-13 1-8 3-4 7-1 6 4 13 2 6v4l-6-1-7-8-5-13-1-3-5-2-10-7v-2h-3l-2 5 1 6 2 6v10l-3 3-5-3-4-6-4-15-2-12-1-2-5 1-5 5-2 8-2 11-3 3-6-1-5-6-1-6 2-9-1-6-4-9-6 2-5 10-10 6-8 7-4-2-3-7v-11l-4-6-6-3h-9l-7 4-10 13-11 12-7 9-6 7h-2l-1 3-8 7-11 11-7 8-11 11-7 8-12 13-10 13-8 11-9 12-5 8-2 13 1 14 5 15 7 12 10 13 13 13 15 11 13 11 11 8 15 13 26 26 11 9 10 8 6 5 13 17 6 7v2h2v2l4 2 9 10 4 11 2 7v12l-5 9-7 8-10 6-14 6-16 7-13 1-5-2-3-9 2-8 4-5 10-5 21-8 8-4v-11l-5-6-10-8-7-7-7-10-11-12-18-14-20-20-5-6-8-7-10-9-18-12-13-12-8-7-7-8-13-13-9-14-3-9-3-14-1-17v-24l2-9 9-14 11-12 14-17 13-14 9-11 12-11 7-8 16-16h2l1-3 12-12 10-8 11-14 4-7-1-6-10 1-9 4-11 10-9 7-4 4h-2v-8l3-6 6-8-22-2-31-4-26-7-30-9-21-7-36-9-21-8-25-10-25-8-7 1-16-2-15-3h-7l-7 4-11 21-8 13-8 9-6 3-6-1-9-6-6-10-7-13-4-5-7-1-12 5-10 5-5 2-15 3-3 1h-10l-5-3-4-5-1-2v-11l6-18 1-9-5-5-12-9-20-12-6-7-1-2 1-9 7-9 8-8 19-11 7-4 1-5-5-16-3-19-2-8v-7l4-8 5-4h12l19 7 13 6 5-1 3-1 2-4 11-21 10-21 2-6 1-9 5-10 10-13 11-11 16-9 14-6 17-5 18-5 9-2 10-1h25l73 6 34 3 47 8 30 9 26 8h2l-1-7-6-9-7-10-3-8v-3l6-1 10 4 11-1 10-7 11-2 11-6 1-3-11-21-3-9 1-4 8 1 14 14 6 3h5l8-6 11-10 8-5 6 2 5 4 7 1 5-3 2-7 1-13-3-16-1-14 2-9 1-1h6l3 4 3 14 6 13 6 12 6 4 9 3h15l7-2 9-10 6-11 1-1 2-9 6-10 4-8zm-448 143-16 3-23 6-16 6-10 6-11 12-5 8v7l8 26 8 20 5 8 5 3 10 3 24 3 11 4 4 5 2 5-1 9-6 9-4 5-8 7-5 6-1 5 4 13 15 34 5 5 9 6 5 2 16 2 28 10 36 12 23 7 15 4 26 9 16 5 24 7 8 2h6l14-16 4-6-1-9-8-9-9-4-5-5-4-10-8-12-5-11-1-18-6-12h-3l-1-3-7-2-5-5 3-5 9-6 10-4 2-5-5-5-10-4-1-1 1-7 3-5-1-8 3-7 3-9-1-5-7-7-7-4h-2v-6l7-2 16-2 9-3-1-6-5-9-7-8-1-3 12-2 5 1h8l7-8 3-9-7-2-40-7-33-5-91-7-28-2zm233 283m-8 1 1 2 5-1v-1z" fill="#222531"/>
<path transform="translate(250,136)" d="m0 0h25l73 6 34 3 47 8 30 9 26 8h2v-7l2 2 3 5v2h-10l-5 1-3-2-5-1-2-2-13-3-37-8-18-3-9-2-12-2-11-1-27-1-22-3-26-2-11-2h-37l-12 2-9 3-13 3-8 3-13 5-5 3h-4v2l-6 3-9 6-10 10-7 12-2 5-3 1-1 2 3-1h16l9-6 3-1 1-3h2l-2 4-6 8-1 2v7l8 26 8 20 5 8 10 4 12 2 16 2 11 4 5 6 2 5-1 9-6 9-5 6-8 7-4 5-1 5 4 13 15 34 9 9-6-1 1 11 3 11 8 7 2 2-9-2-7 1-16-2-15-3h-7l-7 4-11 21-8 13-8 9-6 3-6-1-9-6-6-10-7-13-4-5-7-1-12 5-10 5-5 2-15 3-3 1h-10l-5-3-4-5-1-2v-11l6-18 1-9-5-5-12-9-20-12-6-7-1-2 1-9 7-9 8-8 19-11 7-4 1-5-5-16-3-19-2-8v-7l4-8 5-4h12l19 7 13 6 5-1 3-1 2-4 11-21 10-21 2-6 1-9 5-10 10-13 11-11 16-9 14-6 17-5 18-5 9-2z" fill="#F0A0A2"/>
<path transform="translate(524,476)" d="m0 0 1 2h2l5 5 7-4h3l-1 4 4 1v-2h2l1-3 4-1h9l6-1 5 5 2 5-2 13 1 2 6-1 4-6 4-7 7-3 5 3 6 9 1 4v8l-2 7v5l1 3 3 1v2l5-2v-16l4-5 1-13 3-2h5l6 8 2 9v3l3 1 2 8h2v2l-4 1 3 8 2 4h5v-7h1v10l-3 3-5-3-4-6-4-15-2-12-1-2-5 1-5 5-2 8-2 11-3 3-6-1-5-6-1-6 2-9-1-6-4-9-6 2-5 10-10 6-8 7-4-2-3-7v-11l-4-6-6-3h-9l-7 4-10 13-11 12-7 9-6 7h-2l-1 3-8 7-11 11-7 8-11 11-7 8-12 13-10 13-8 11-9 12-5 8-2 13 1 14 5 15 7 12 10 13 13 13 15 11 13 11 11 8 15 13 26 26 11 9 10 8 6 5 13 17 6 7v2h2v2l4 2 9 10 4 11 2 7v12l-5 9-7 8-10 6-14 6-16 7-13 1-5-2-3-9 2-8 4-5 10-5 21-8 8-4v-11l-5-6-10-8-7-7-7-10-11-12-18-14-20-20-5-6-8-7-10-9-18-12-13-12-8-7-7-8-13-13-9-14-3-9-3-14-1-17v-24l2-9 9-14 11-12 14-17 13-14 9-11 12-11 7-8 16-16h2l1-3 12-12 10-8 11-14 7-8z" fill="#282526"/>
<path transform="translate(860,381)" d="m0 0 3 1-12 11-10 9-15 7h-2v10l3 5 15 9 4 5-2 5-2 1-24 1-5 5-2 3h-2v2l-4 4-4 6-5 4-10 3-8 3-11 7-3 3-7 18-7 21-8 32-3 15-2 50 3 12 8 15 8 10 11 13 14 15 7 7 9 11 8 10 9 10 16 16 22 28 12 14 8 12 4 11 1 7v9l-2 13-5 12-7 9-17 16-11 10-8 7-8 8-5 3-7-1-7-3-2-7v-7l3-8 10-8 8-6 11-10 11-8 4-2 6-12v-11l-4-10-14-19-11-12-8-10-12-13-10-10-10-13-7-10-7-9-14-15-12-12-12-17-9-14-7-18-2-7v-19l2-10 1-19 3-17 8-32 3-9 3-3 1-14 4 1 1-3 4-4 5-15h2l2 2 2-2 5-1-2 6 3-1 1-7 4-4h2l2-11 4-5 8-2 5-5 7-5 4-5 8-1 4 1 3-1v-2h2l-4-14 1-4 2-2h3l1-8 8-16 6-3 9-1 11-7z" fill="#272425"/>
<path transform="translate(514,174)" d="m0 0h18l8 2 13 5 8 7 7 8 5 9 1 16 1 13-6 20-9 17-8 12-9 9-18 12-7 3h-26l-9-7-6-8-3-11-2-7v-16l3-14 2-14 7-21 8-16 7-11 11-7z" fill="#FCF8F8"/>
<path transform="translate(645,211)" d="m0 0h8l15 4 9 8 7 10 5 11 1 7v28l-6 21-5 8-7 8-5 8-12 12-5 4-9 3-8 1h-9l-9-1-10-8-7-8-5-11-1-10v-21l3-12 2-13 9-19 6-8 7-7 7-4 8-7 8-1z" fill="#FCF8F8"/>
<path transform="translate(254,161)" d="m0 0 30 1 63 4 6 1 32 2 2 1 19 2 7 3 14 1 9 3 22 2 10 2 3 7-1 17-6 5-13-3-8-3-4 1 1 6 4 10 7 8 2 1 1 6-6 4-9 2-5-2-7-2-1 8 9 3 12 6 5 7-1 8-4 10-11 4-2 3 1 7 8 8 1 6-8 7-10 1-3 2 1 3 6-1 8 3 2 3-1 4-3 1 3 6v5l3-1 10 2 1 4-2 3-7 3-2 6 4 2 15 2v9l2 4v6l-3 3-3 2-2 7v4h7l6-3 4 1 2 1 1 4-1 3 5 6 1 3v9l-4 6-4 3h-2v2h-2l-2 4-4 9-13 1-17-3-21-6-9-2-30-10-13-5-16-4-1-1-16-3-11-4-9-3-7-3-10-4-9-3-13-5-12-1-7-2-3 1 3 12 4 6 13 5 9 3 3 2 9 2 30 12 21 6 16 4 10 2 8 3 18 6 26 7 16 4 18 4 5 2 27 2 7 3 2 5 3 3-9 8-5 5-5 2v-8l3-6 6-8-22-2-31-4-26-7-30-9-21-7-36-9-21-8-25-10-15-5-9-7-3-3-4-16v-7l11 3 5 2 16 2 28 10 36 12 23 7 15 4 26 9 16 5 24 7 8 2h6l11-13 6-8-1-9-7-8-9-4-5-5-7-14-6-9-5-11-1-18-5-11h-3l-1-3-7-2-5-4-1-3 6-7 10-5 7-3 1-4-2-4-10-3-4-3 1-7 3-5-1-8 3-7 3-9-1-5-9-8-6-3-1-6 6-3 18-2 8-2-1-6-5-9-7-8v-3l12-3 5 1h8l6-7 4-9-24-4-35-6-21-3-91-7-28-2h-16l-16 3-12 3-4-1 1-2 28-5z" fill="#5E5858"/>
<path transform="translate(815,88)" d="m0 0h12l1 1v10l-4 8-8 10-6 12-1 4 7 8 8 5h7l2-1h6l8 6 12 15 7 11 2 1 1-3 2 2 4-1 2-4 3-2h11l5 2 1 4-4 9-3 6 1 9 2 5v6l-7 14-7 8-2 4 1 6 3 5 2 9-4 2 2 7 4 5 11 8v9l-3 15-4 3h-2l-3 13v26l-3 9-7 14-5 5-1-5-14-4-1-3v-7l2-2 1-9h-2l-3-5 1-7 5-4 7-4 4-15 3-3 9-5 4-1v-7h2l1-7-1-1h-9l-1 3-8 5h-8l-3-4 3-13-1-6-2-5 1-6 4-13 4-6 6-5 3-5h2l2-5 3-3 1-6-4-5-4 1-11 6-7 6-5 2-5-1-4-8-3-10v-7l3-6 7-4-1-5-5-2-7-1-5-8v-3h-2l-4-8-2-1v-2l-7-2-3-3h-5v-2l-4-1-4-5-1-8 5-12 10-18 6-5v-9l-3-2v2l-5 1-5 5-4 2-2 4-3 3-4 9-4-1-8-7v-2h-2l-1-5 7 6 2 3 4 1 2-5 7-9 8-7z" fill="#5B5656"/>
<path transform="translate(244,140)" d="m0 0h37l21 3 25 2 13 2 27 1 17 2 13 2 7 2 19 3 31 7 16 4 4 2 3 2 7-1 3 1v2h2v2l-4-1-5 1-1-1-4 1-1-2-12-1-1-1-2 2-3-3-6-1h-4l-1 1 3 1 2 4h6l4 1h3l4 2 3 2h-19l-15-1-9-3-14-1-7-3-19-2-2-1-32-2-20-2-49-3-30-1-22 3-9 2h-7l-1 4-21 7-11 6-6 6-3 1-5 5-8 5h-19l1-3h3l2-7 7-11 12-12 10-6h3v-2l7-3 12-5 10-3 8-3 13-3 8-2z" fill="#252223"/>
<path transform="translate(695,20)" d="m0 0h5l1 4-1 15-5 21-1 5-1 14h21l5-1 2-5 7-12 7-13 7-4h6v14l-3 15h-1l-1-17h-3l-4 5-2 5h-2l-2 4-7 11-5 4-13 2-7-1-9-2-1-5 3-8 1-7h-2v-2l-7-2-4 2-6 11-6 14-4 2-6-1-12-6-12-2-8-4-4-6-4-11-2-5h-2l-2-2h-3l-1 12 1 4 1 19-2 5-11 4-7 1h-2v-2h-10l-3 3h-3v2l-5 4-6 14-2 1h-6l-4-4-4-5-8-5v-2l-8-2 3 10 5 6 1 7-5 12-5 5h-8l-6 2-1 4-4 6-5 2-4-1-6-3-8-6-6-1 1 5 3 5-1 2-8-10-4-10v-3l6-1 10 4 11-1 10-7 11-2 11-6 1-3-11-21-3-9 1-4 8 1 14 14 6 3h5l8-6 11-10 8-5 6 2 5 4 7 1 5-3 2-7 1-13-3-16-1-14 2-9 1-1h6l3 4 3 14 6 13 6 12 6 4 9 3h15l7-2 9-10 6-11 1-1 2-9 6-10 4-8z" fill="#5E5858"/>
<path transform="translate(247,389)" d="m0 0 8 2 12 1 15 6 13 4 10 4 5 3 14 4 5 2 13 2 9 3 17 5 12 5 24 8 14 3 9 3v3l10 2 3 1 5 1h15l1 2-8 2-9-1v-2h-2l1 4-6-2-9-1-6-1-9-3v-2h-6l-2-1-4 1-1 2h2l3 3h2v2l11 2 6 2 8 3 13 1 9 2 4 1v2l13 1 2 2h-3v2h-16l-5-2-23-5-15-4-28-8-19-6-9-3-11-2-33-10-28-11-8-2-3-2-7-2-13-5-4-5-2-4-1-10z" fill="#242224"/>
<path transform="translate(860,381)" d="m0 0 3 1-12 11-10 9-15 7h-2v10l3 5 15 9 4 5-2 5-2 1-24 1-5 5-2 3h-2v2l-4 4-4 6-5 4-10 3-8 3-11 7-3 3-7 18-7 21-8 32-3 15h-2v-8l2-6 2-13 5-18 4-13 3-9 7-24 4-4h2l2-11 4-5 8-2 5-5 7-5 4-5 8-1 4 1 3-1v-2h2l-4-14 1-4 2-2h3l1-8 8-16 6-3 9-1 11-7z" fill="#625B5B"/>
<path transform="translate(250,136)" d="m0 0h25l73 6 34 3 47 8 30 9 26 8h2v-7l2 2 3 5v2h-10l-5 1-3-2-5-1-2-2-13-3-37-8-18-3-9-2-12-2-11-1-27-1-22-3-26-2-11-2h-37l-12 2-9 3-13 3-8 3-13 5-5 3h-4v2l-6 3-9 6-10 10-7 12-2 5-3 1-1 2 3-1h16l9-6 3-1 1-3h2l-2 4-6 8-12 2-9 1-6 2-1-1v-8l5-10 10-13 11-11 16-9 14-6 17-5 18-5 9-2z" fill="#595555"/>
<path transform="translate(700,484)" d="m0 0h13l8 2 6 4 1 3 2 2 2 5-2 1-4-5-6-2-8 7-4 3-11 2-10 1-5 3-4 8 1 8 5 15v4l-6-1-7-8-5-13-1-3-5-2-10-7v-2h-3l-2 5 1 6 1 4h-2l-2-5-2-14-1-4 3-6 4-2 6 1 6 7 4 7 6 12h4l1-1-3-11-3-4 1-8 7-6 9-3 8 6h2l2-8z" fill="#5E5859"/>
<path transform="translate(240,383)" d="m0 0 11 3 5 2 16 2v1l-5 1h-12l-7-2-3 1 3 12 4 6 13 5 9 3 3 2 9 2 30 12 21 6 16 4 10 2 8 3 18 6 26 7 16 4 18 4 5 2 27 2 7 3 2 5 3 3-9 8-5 5-5 2v-8l3-6 6-8-22-2-31-4-26-7-30-9-21-7-36-9-21-8-25-10-15-5-9-7-3-3-4-16z" fill="#726768"/>
<path transform="translate(820,88)" d="m0 0h7l1 1v10l-4 8-8 10-6 12-1 4 7 8 8 5h7l2-1h6l8 6 12 15 7 11 2 1 1-3 2 2 4-1 2-4 3-2h11l5 2 1 4-4 9-3 6 1 9 2 5v6l-2 5-2-2-4-12-3-6-3-3-4-1-5 1v3l-8 6-6 1-2-2v-5l2-2 4-11-3-7-3-6-3-8-5-3-5-8-4-2-5 1-7 3-4-2-5-5-5-4-4-8 1-8 6-11 8-9 2-4-1-9-3-3z" fill="#F0A6A8"/>
<path transform="translate(565,477)" d="m0 0 5 2 4 6-2 15 1 2 6-1 4-6 4-7 7-3 5 3 6 9 1 4v8l-2 7v5l1 3 3 1v2l5-2v-16l4-5 1-13 3-2h5l6 8 2 9v3l3 1 2 8h2v2l-4 1 3 8 2 4h5v-7h1v10l-3 3-5-3-4-6-4-15-2-12-1-2-5 1-5 5-2 8-2 11-3 3-6-1-5-6-1-6 2-9-1-6-4-9-6 2-5 10-10 6-8 7-4-2-3-7v-11l-4-6-6-3h-9l-4 1 2-4 5-1v-2h2l1-3 4-1h9z" fill="#645C5C"/>
<path transform="translate(517,171)" d="m0 0h13l10 2 14 6 6 4 9 10 6 11 1 16 1 4v13l-7 21-11 20-8 10-14 11-12 7-6 3h-28l-6-4-7-6-3-6-2-9-2-4v-28l3-12 1-11 3-9 2-8 4-10 6-9 6-12 5-4 10-5zm-3 3-7 3-8 5-7 11-9 19-6 18-3 19-2 9v16l4 14 3 7 7 8 6 4h26l12-6 11-8 8-7 6-7 12-21 6-16 2-8-1-13-1-16-6-10-9-10-5-4-15-6-6-1z" fill="#595555"/>
<path transform="translate(645,209)" d="m0 0h11l14 4 7 6 8 11 5 10 2 6 1 9-1 28-5 16-5 10-5 6h-2l-1 5-6 8h-2v2l-8 7-8 6-12 3h-18l-8-2-10-8-7-10-4-10v-36l3-11 2-11 7-16 7-10 7-7 8-5 8-7 10-3zm0 2-3 3-8 1-9 8-8 5-8 8-8 15-5 12-2 13-2 9v27l5 13 6 8 10 9 2 1 9 1h9l12-2 6-3 12-11 7-8 5-8 7-8 4-11 4-16v-26l-2-10-7-13-10-11-7-3-11-3z" fill="#595555"/>
<path transform="translate(497,427)" d="m0 0h7l8 3 2 3-2 7-8 9-13 2-5 1h-17l-4-3 1-4 3-3 14-5 11-8zm-17 19m-8 1 1 2 5-1v-1z" fill="#595555"/>
<path transform="translate(267,391)" d="m0 0h8l25 9 36 12 23 7 15 4 26 9 16 5 24 7 8 2v2l-9-1-12-2-9-3-16-4-30-10-13-5-16-4-1-1-16-3-11-4-9-3-7-3-10-4-9-3-13-5z" fill="#7B6F6F"/>
<path transform="translate(492,512)" d="m0 0v3l-6 7-20 20-1 2h-4v4l-4 1v3l-8 7-4 2-2 4-5 5-4 7-9 10-5 6-2 1-3 5-5 4-2 1-1 4-9 11-5 10-2 6v37l1 7 2 6 1 9 2 5 2 1 2 6 2 1 1 5h3l2 3 2 1v3h4v5l-7-6-8-9-6-10-3-9-3-14-1-17v-24l2-9 9-14 11-12 14-17 13-14 9-11 12-11 7-8 16-16h2l1-3 8-7z" fill="#796E6F"/>
<path transform="translate(287,407)" d="m0 0 1 2 9 1 2 2 7 2 3 4 4 1 1-2 5-1 3 3h3l1 4 9-1 5 2 9 2 6 3 5 4h9l3 2-3 3-7 1-4-3h-10v-2l-9-2h-4l-6-1h-4l-10-2-7-3-10-7-7-3-3-3-4-2v-2h3z" fill="#222431"/>
<path transform="translate(737,574)" d="m0 0h1v15l-1 32 3 12 8 15 8 10 11 13 14 15 7 7 9 11 8 10 9 10 16 16 22 28 12 14 8 12 4 11v7l-2-3v-6h-2l-3-8-6-10-4-4-4-5v-2l-4-2-11-11-8-12-12-14-6-6v-2h-2v-2l-4-2-8-10v-2l-4-2v-4h-2l-6-7-7-8-6-7-6-5-2-4-8-7-3-4v-2l-2-1-3-3v-2l-3-1-5-9v-3h-2l-6-17-1-13 1-24h2z" fill="#7A6F6F"/>
<path transform="translate(441,227)" d="m0 0 2 4v5l-2 2-9-1-4-1-3 3h-2l-2 6 5 6 7 5-1 5-3 3-1 4 1 11v7l-2 4-7 2v5l-4-2 1-7 3-5-1-8 3-7 3-9-1-5-9-8-6-3-1-6 6-3 18-2 8-2z" fill="#F0A6A8"/>
<path transform="translate(742,44)" d="m0 0h6v14l-3 15h-1l-1-17h-3l-4 5-2 5h-2l-2 4-7 11-5 4-13 2-7-1-9-2-1-5 4-10h1v10h21l5-1 2-5 7-12 7-13z" fill="#685F60"/>
<path transform="translate(254,161)" d="m0 0 30 1 63 4 6 1 32 2 2 1 19 2 7 3 14 1 8 3v2l-40-6-13-2-91-7-28-2h-16l-16 3-12 3-4-1 1-2 28-5z" fill="#847373"/>
<path transform="translate(782,74)" d="m0 0h7l1 1-1 9-3 10-5 6-1 5h-3l-1 5-1-2-6-1-8-2v-3l3-4h2l-1-4 5-5 6-7 2-5z" fill="#262325"/>
<path transform="translate(729,521)" d="m0 0 2 4-1 4-4 13-2 13-2 8-2 13-2 19v12l-2 7v10l3 10 5 17 1 4h2l2 5 7 8 4 7 1 5-5-5-8-12-7-11-7-18-2-7v-19l2-10 1-19 3-17 8-32z" fill="#857475"/>
<path transform="translate(818,92)" d="m0 0 4 2v9l-3 1-2 4-3 3-10 19-4 1 1-7-4-1-1 2h-5v-2l-2-1 3-1 3 1 1-7 3-7 5-6 7-5 2-3h5z" fill="#242224"/>
<path transform="translate(207,146)" d="m0 0 3 1-6 3h-2v2l-13 5-5 3h-4v2l-6 3-9 6-10 10-7 12-2 5-3 1-1 2 3-1h16l9-6 3-1 1-3h2l-2 4-6 8-12 2-9 1-6 2-1-1v-8l5-10 10-13 11-11 16-9 14-6z" fill="#867677"/>
<path transform="translate(630,260)" d="m0 0 7 1 4 4 3 5-1 6-5 7-6 3-6-1-4-4-1-3v-8l6-8z" fill="#222532"/>
<path transform="translate(611,51)" d="m0 0 2 1v2h2l5 10 4 10 6 4 1 4-4-2-1 2-3-3-1 5-6-1-4 4-4-4-1-15-1-10 2-6z" fill="#242224"/>
<path transform="translate(250,136)" d="m0 0h25l73 6 24 2 2 2-13 1-21-1-10-1-2-1-38-3-2-1-36-1-15 1-9 2-1 1-7 1-5 2h-5l3-2 18-5 9-2z" fill="#F2B3B5"/>
<path transform="translate(788,64)" d="m0 0 4 1 1 2v9l-4 13-2 1 2-9v-6h-7l-4 3-3 7-7 7h-2l-1 3-4 3-10-1-9-6-3-4v-7l3-7h2l2 9 5 8 1 3 7 2 6-5 7-11 7-8 7-6z" fill="#6C6363"/>
<path transform="translate(508,225)" d="m0 0 6 1 6 3 4 8-2 5-5 5-2 1h-8l-5-5-1-2v-7l4-6z" fill="#222431"/>
<path transform="translate(577,80)" d="m0 0 6 2 5 5h-8l-12 6-8 5-4 6h-7l-9-2-10-9-2-2h-5v11l-3-4-4-11 1-4 8 1 14 14 6 3h5l8-6 11-10z" fill="#F2AEB0"/>
<path transform="translate(621,489)" d="m0 0h5l6 8 2 9v3l3 1 2 8h2v2l-4 1 3 8 2 4h5v-7h1v10l-3 3-5-3-4-6-4-15-2-12-1-2-5 1-5 5-1 2h-3l2-5 1-13z" fill="#605959"/>
<path transform="translate(740,54)" d="m0 0 1 2h2l1 3v14h-2l-2 7-1-3-5 5-2 1v2l-8-1v-6l8-12h2l2-7 3-1z" fill="#252325"/>
<path transform="translate(366,421)" d="m0 0 11 3 23 8 16 5 24 7 8 2v2l-9-1-12-2-9-3-16-4-30-10-4-2-3-4z" fill="#857475"/>
<path transform="translate(479,143)" d="m0 0 6 1 11 8 3 5v3h2l2 4-4 2-1 4-4-3v-2l-4-1-1 2-1-3h-2l-3-5-3-8-2-5z" fill="#272426"/>
<path transform="translate(456,472)" d="m0 0h15l14 2 5 5v3l3 2-9 8-5 5-5 2v-8l3-6 6-8-22-2-5-1z" fill="#6C6262"/>
<path transform="translate(695,20)" d="m0 0h5l1 4-1 15-3 11h-1v-10l-1-3h-7l-4 6-3 9-5 7-1-2 4-7 2-9 6-10 4-8z" fill="#F2B4B6"/>
<path transform="translate(421,313)" d="m0 0 3 1h-2v2l-5 2-3 6 4 1 1 1 10 1 1 5v6l3 7 1 5v8l-2 7h-1l-1-18-5-11h-3l-1-3-7-2-5-4-1-3 6-7z" fill="#F1ACAD"/>
<path transform="translate(529,889)" d="m0 0h3v3l-4 2-5 7-1 5 4 4 7 2 6-2 7-3 4-2 8-2 10-3 3-2 4 1-17 8-17 7-8 2h-7l-5-2-3-9 2-8 4-5z" fill="#7C7171"/>
<path transform="translate(332,168)" d="m0 0h42l11 1 2 1 19 2 7 3 14 1 8 3v2l-40-6-13-2-50-4z" fill="#897A7A"/>
<path transform="translate(833,847)" d="m0 0 2 1-9 8h-2l-1 5-8 7-2 2-5 2-3 3-3 10 1 7 1 4h10l8-6 7-8h2v-2l5-1-17 17-5 3-7-1-7-3-2-7v-7l3-8 10-8 8-6 11-10z" fill="#837778"/>
<path transform="translate(861,365)" d="m0 0 7 2 2 3-2 6-4 5-9 3-5 1-3-3 5-3-2-4h-3v-3l5-2h3l1-2 3 1z" fill="#272426"/>
<path transform="translate(613,497)" d="m0 0 5 4-1 4-2 5-1 4v11l-2 2h-4l-5-6 1-9 2-11h6v3l1-3z" fill="#242223"/>
<path transform="translate(892,301)" d="m0 0v3l-5 2-3 13v26l-2-4-2-17-1-5-7-3-1-4 5-5 8-5h7z" fill="#F0A3A4"/>
<path transform="translate(633,495)" d="m0 0 1 2 4-1 4 9 2 14 1 5h2v9l-6 1-1-4-3-5v-4l4-1v-2h-2l-3-8-2-1-2-13z" fill="#252328"/>
<path transform="translate(762,481)" d="m0 0h5l-5 8-10 28-12 47-1 7h-2v-8l2-6 2-13 5-18 4-13 3-9 3-10 3-3z" fill="#907D7D"/>
<path transform="translate(737,574)" d="m0 0h1v15l-1 32 3 12 8 15 8 10 11 13 14 15h-3l-5-4-4-4-2-4-8-7-3-4v-2l-2-1-3-3v-2l-3-1-5-9v-3h-2l-6-17-1-13 1-24h2z" fill="#7D7272"/>
<path transform="translate(860,170)" d="m0 0 8 8 1-3 2 2 4-1 2-4 3-2h11l5 2 1 4-2-2h-13l-2 5v6l-11 2-3 3-2-4-2-10z" fill="#FDFDFD"/>
<path transform="translate(729,521)" d="m0 0 2 4-1 4-4 13-2 13-2 8-2 13-2 19-3 2v-18l3-17 8-32z" fill="#837878"/>
<path transform="translate(440,205)" d="m0 0 9 2 3 3v2l9 3-1 3-4-2-4-1-3 5 1 3 4 1 3 2 1-2 4 2-2 2 3 4-2 2-2-1v-2l-5-2-8-8v-4l-5 1-3-7 1-5z" fill="#242225"/>
<path transform="translate(880,248)" d="m0 0h1l2 9-4 2 2 7 4 5 11 8v9l-2 12-5-5 2-7 3-4v-4l-9-1-6-7-2-1v-2h-2l-1-7 2-5 3-2z" fill="#F3B6B8"/>
<path transform="translate(492,512)" d="m0 0v3l-6 7-20 20-1 2h-4v4l-4 1v3l-8 7-4 2-2 4-13 13v-3l12-13 7-8 8-7 7-8 16-16h2l1-3 8-7z" fill="#7E7272"/>
<path transform="translate(376,145)" d="m0 0 11 1 37 6 25 7 12 4-3 1-33-8-16-2-7-3-19-2-7-2z" fill="#F4CBCC"/>
<path transform="translate(417,155)" d="m0 0h8l33 8 10 2 17 5h2v-7l2 2 3 5v2h-10l-5 1-3-2-5-1-2-2-13-3-37-8z" fill="#595555"/>
<path transform="translate(821,432)" d="m0 0h16l2 1 1 10-16-2-5-4v-4z" fill="#242225"/>
<path transform="translate(527,100)" d="m0 0 5 1 4 2 4 4 5 3 1 4-2 4v-2l-3 3-6-2-6-8z" fill="#242226"/>
<path transform="translate(630,260)" d="m0 0 7 1 4 4 3 5-1 6-5 7-6 3-6-1-4-4-1-3v-8l6-8zm0 3-1 3-4 2-2 5 2 7 2 3h8l6-8v-5l-5-6z" fill="#595555"/>
<path transform="translate(464,766)" d="m0 0 5 2 3 3 3 1 1 2 4 2v2l4 2v2l5 2v2l4 2 5 5 2 4 4 2 2 6v3l-21-21-5-6-16-14z" fill="#817474"/>
<path transform="translate(735,473)" d="m0 0h5l3 2 1 7-3 7v6l-2 4h-2l-1-11-2-6h-2l-1-5z" fill="#595555"/>
<path transform="translate(508,225)" d="m0 0 6 1 6 3 4 8-2 5-5 5-2 1h-8l-5-5-1-2v-7l4-6zm2 3-3 1v2h-2l-2 6 3 6 3 2h8l4-5-1-7-3-4z" fill="#595555"/>
<path transform="translate(875,214)" d="m0 0h4 1l1 5 2-1-1 4-5 6h-4l-1 3-6 2 1-10 1-3z" fill="#242224"/>
<path transform="translate(742,44)" d="m0 0h6v14l-2 10h-1v-12l-1-5h-7l-1 2h-2l-1 8-5 6-4 3 1-4 6-10 4-8z" fill="#F2B3B4"/>
<path transform="translate(742,73)" d="m0 0h2l2 9 5 8 1 3 5 2v2h-6l-9-6-3-4v-7z" fill="#6F6263"/>
<path transform="translate(680,59)" d="m0 0 7 1 3 2v2h2v7l-3 3-6 1v-4h2l-2-2h-4v3h-2l1-10z" fill="#242224"/>
<path transform="translate(602,24)" d="m0 0h6l3 4 3 14 2 6-4-4v-2h-3l-3-7-4-1-1 6h-1l-1-6 2-9z" fill="#F1A8AA"/>
<path transform="translate(666,499)" d="m0 0 2 3 5 8 2 11-5 1-4-5-4-9 1-6z" fill="#242226"/>
<path transform="translate(254,161)" d="m0 0 30 1 22 2v1l-43-1h-16l-16 3-12 3-4-1 1-2 28-5z" fill="#706161"/>
<path transform="translate(472,132)" d="m0 0 8 1 6 3 13-1v2l-4 2-1 6-6-2-6-5-7-1-1 4-1 3-3-8v-3z" fill="#F2AFB1"/>
<path transform="translate(329,141)" d="m0 0 19 1 24 2 2 2-13 1-21-1v-2h-8z" fill="#FAE9EA"/>
<path transform="translate(820,88)" d="m0 0h7l1 1v10l-4 8-8 10-6 12-1 5h-2l1-8 6-11 8-9 2-4-1-9-3-3z" fill="#F3B9BB"/>
<path transform="translate(174,190)" d="m0 0h2l-2 4-6 8-12 2-9 1-6 2-1-1v-8l2 3 3-1h16l9-6 3-1z" fill="#655E5E"/>
<path transform="translate(552,812)" d="m0 0 5 5 11 14 2 4h2v2l4 2 4 5-4-2-9-4-4-7-3-4v-2l-2-1-3-3v-3l-3-1-2-4z" fill="#A09393"/>
<path transform="translate(880,283)" d="m0 0h6l2 2-1 5-1 2h-2v7h-5v-5-4h-2v-6z" fill="#242226"/>
<path transform="translate(564,866)" d="m0 0 3 1-3 12-3 1v2l-17 4-2 2-10 1 2-2 21-8 8-4z" fill="#938787"/>
<path transform="translate(729,521)" d="m0 0 2 4-1 4-4 13-2 13-2 6-3 1 1-10 6-22z" fill="#756A6A"/>
<path transform="translate(804,870)" d="m0 0v3l-3 6v13l1 3 12 1 8-6 7-8h2v-2l5-1-17 17-5 3-7-1-7-3-2-7v-7l3-8z" fill="#F6CBCC"/>
<path transform="translate(425,254)" d="m0 0 3 2-1 4-2 5-1 14 2 3-1 5-5 1-1-4v-4-5l3-7 3-9z" fill="#FDFDFD"/>
<path transform="translate(513,812)" d="m0 0 4 1 6 3v3l4 1 1 2 3 1v4h2v3l4 2 4 7 3 3 3 2-1 4-7-8-6-8-9-10-11-9z" fill="#867677"/>
<path transform="translate(487,472)" d="m0 0 10 1h8l-4 1-1 4-6 5-5-1-1-5z" fill="#252427"/>
<path transform="translate(512,776)" d="m0 0 7 6 13 12 12 9 2 3-12-6-10-9-5-5-5-4z" fill="#797070"/>
<path transform="translate(409,153)" d="m0 0h20l30 9 2 2-11-2-25-6-16-2z" fill="#F6CECF"/>
<path transform="translate(391,687)" d="m0 0 1 2h2l3 10 2 1 2 6 2 1 1 5h3l2 3 2 1v3h4v5l-7-6-8-9-6-10-3-9z" fill="#A49394"/>
<path transform="translate(377,437)" d="m0 0 10 2 8 4h2v3l-4 1-3-1h-4v-2l-5-1 1-3-2-1-1 4-4-1z" fill="#222431"/>
<path transform="translate(581,845)" d="m0 0 4 4 4 11 2 7v12l-3 6-1-3 1-4v-8l-4-17-3-5z" fill="#FAECED"/>
<path transform="translate(737,574)" d="m0 0h1v15l-1 26-1 10h-1l-1-13 1-24h2z" fill="#A58A8B"/>
<path transform="translate(762,481)" d="m0 0h5l-5 8-8 23-2-2v-5l3-7 2-5 2-2z" fill="#776B6B"/>
<path transform="translate(426,736)" d="m0 0 4 1 10 10 7 4 2 3 10 5 3 5-4-2-14-9-13-12z" fill="#796A6B"/>
<path transform="translate(432,365)" d="m0 0 1 2 4 2 3 4 1 5 3 3 1 6h2l2 6-2 1-7-12-6-10-2-4z" fill="#F2AFB1"/>
<path transform="translate(510,228)" d="m0 0 7 1 2 3v8l-2 3-2-1 1-5-1-2-9 3v-5l4-2z" fill="#242224"/>
<path transform="translate(441,227)" d="m0 0 2 4v5l-2 2-9-1-4-3 8-3 4-1z" fill="#F3B6B7"/>
<path transform="translate(633,495)" d="m0 0 1 2 4-1 4 9-2 6-5-3-1-9h-2z" fill="#242224"/>
<path transform="translate(436,571)" d="m0 0v3l-7 9-11 11v-3l3-6 7-7z" fill="#6C6262"/>
<path transform="translate(722,651)" d="m0 0 3 1v3h2l2 5 7 8 4 7 1 5-5-5-14-21z" fill="#887576"/>
<path transform="translate(427,240)" d="m0 0 7 1 1 7 1 4-10-4z" fill="#242223"/>
<path transform="translate(795,744)" d="m0 0 4 1 1 2 3 1 1 3 6 5 5 6v2l3 1 2 5h2l2 3-1 3-9-11-12-13-7-7z" fill="#9B7D7E"/>
<path transform="translate(529,889)" d="m0 0h3v3l-4 2-5 7-3 8-2-4 2-8 4-5z" fill="#988687"/>
<path transform="translate(153,181)" d="m0 0 1 2-6 10-2 5-3 1-2 3 1-9 5-7z" fill="#7C7070"/>
<path transform="translate(788,64)" d="m0 0 4 1 1 2v9h-2v-9l-10 6h-2l-2 4-6 6 2-6 10-10z" fill="#F2B0B1"/>
<path transform="translate(457,392)" d="m0 0h6l1 5-2 4h-7l-1-5 1-2h2z" fill="#242226"/>
<path transform="translate(755,659)" d="m0 0h2l9 11 15 16h-3l-5-4-4-4-2-4-8-7-3-4v-2l-2-1z" fill="#736868"/>
<path transform="translate(635,524)" d="m0 0 3 1 4 6v2h5v-7h1v10l-3 3-5-3-4-6z" fill="#967E7E"/>
<path transform="translate(312,140)" d="m0 0h11l8 2 1 1 8 1v1h-10l-2-1-29-2v-1z" fill="#EB9FA1"/>
<path transform="translate(690,40)" d="m0 0h4l1 6-4 5-4-2v-6z" fill="#242226"/>
<path transform="translate(483,423)" d="m0 0 4 4v3l-7 4-4 1v-6l5-3z" fill="#252223"/>
<path transform="translate(487,163)" d="m0 0 2 2 3 5v2h-10l-5 1-3-2-5-1 1-2h8l9 2z" fill="#3E3D45"/>
<path transform="translate(530,118)" d="m0 0 1 3-6 7-9 2-9-1v-1l11-2 11-6z" fill="#F2AFB1"/>
<path transform="translate(852,816)" d="m0 0h1v12l-4 10-5 5-7 4-2-1 8-7h2l6-12z" fill="#958989"/>
<path transform="translate(447,220)" d="m0 0 3 1v2l4 1 3 2 1-2 4 2-2 2 3 4-2 2-2-1v-2l-5-2-7-7z" fill="#252223"/>
<path transform="translate(739,46)" d="m0 0m-2 1 2 1-3 5h-2l-1 8-5 6-4 3 1-4 6-10 4-8z" fill="#F4C1C2"/>
<path transform="translate(820,88)" d="m0 0h7l1 1v10l-2 3-2-3-2-8-2-1z" fill="#E89D9F"/>
<path transform="translate(604,67)" d="m0 0h1v18l-2 2-8 1 5-4 2-7z" fill="#F4BFC0"/>
<path transform="translate(837,431)" d="m0 0 5 2 4 5-2 5-4 1-1-6v-5h-2z" fill="#8D7979"/>
<path transform="translate(450,553)" d="m0 0 2 1-6 6-3 5-13 13v-3l12-13 7-8z" fill="#B9A0A1"/>
<path transform="translate(437,201)" d="m0 0 7 1v1l-11 1 1 8v3l-7-8v-3z" fill="#F2B2B3"/>
<path transform="translate(479,444)" d="m0 0h3l1 3-3 3h-10l-2-1 1-3zm1 2m-8 1 1 2 5-1v-1z" fill="#F3BBBC"/>
<path transform="translate(474,430)" d="m0 0 2 1-4 8 2 1h-5v2l-4 1 1-5 2-3h2v-2z" fill="#242225"/>
<path transform="translate(881,305)" d="m0 0h8l-2 1-3 13-2-3-2-7z" fill="#FDFDFD"/>
<path transform="translate(613,509)" d="m0 0h4v9l-3 9-2 2h-3v-2l4-2z" fill="#847373"/>
<path transform="translate(633,499)" d="m0 0 2 3v6l4 2 3-2 1 8-4 2-3-8-2-1-1-3z" fill="#242633"/>
<path transform="translate(729,521)" d="m0 0 2 4-1 4-4 13h-2l1-9z" fill="#675C5C"/>
<path transform="translate(549,881)" d="m0 0 4 1-4 3-6 2-7 2-4-1z" fill="#9F9495"/>
<path transform="translate(866,788)" d="m0 0 3 1 6 12 1 4v7l-2-3v-6h-2l-3-8-3-5z" fill="#B3A5A6"/>
<path transform="translate(780,687)" d="m0 0 4 2 11 12 1 3-4-2-4-4-7-8z" fill="#8A7B7C"/>
<path transform="translate(419,588)" d="m0 0v3l-3 7-6 5-4 3-2-1 7-7z" fill="#AA8F90"/>
<path transform="translate(290,138)" d="m0 0h11l11 1v2h-14l-7-1z" fill="#FDFDFD"/>
<path transform="translate(741,549)" d="m0 0h2l-2 10-2 12h-2v-8l2-6 1-7z" fill="#948686"/>
<path transform="translate(419,329)" d="m0 0h6l2 4-2 3h-3l-1-3-6-1z" fill="#FDFDFD"/>
<path transform="translate(418,176)" d="m0 0h9l8 3v2l-20-3z" fill="#7F6F6F"/>
<path transform="translate(600,42)" d="m0 0 3 2 1 5v15h-1l-3-16z" fill="#F3BABC"/>
<path transform="translate(532,829)" d="m0 0 5 3 4 7 3 3 3 2-1 4-7-8-6-8z" fill="#AF9D9E"/>
<path transform="translate(552,812)" d="m0 0 5 5 5 6-1 2-6-4v-3l-3-1-2-4z" fill="#877C7C"/>
<path transform="translate(437,712)" d="m0 0 7 6 8 6-2 1-7-3-3-4v-2l-3-1z" fill="#9D8A8A"/>
<path transform="translate(317,407)" d="m0 0 9 2 14 4v2l-8-1-15-6z" fill="#F6CFD0"/>
<path transform="translate(232,164)" d="m0 0h7l-4 2-16 4-4-1 1-2z" fill="#847272"/>
<path transform="translate(404,149)" d="m0 0 14 2 7 2v1l-16-1z" fill="#FDFDFD"/>
<path transform="translate(833,879)" d="m0 0 3 1-10 9-7 7-3 1 1-3 8-7 4-5h2v-2z" fill="#D4B5B6"/>
<path transform="translate(881,324)" d="m0 0 3 4v17l-2-4-2-16z" fill="#F5C5C6"/>
<path transform="translate(409,153)" d="m0 0h20l3 1v2l2 1-20-2-5-1z" fill="#ECA2A4"/>
<path transform="translate(823,887)" d="m0 0 2 1-9 8-5 1-7-1 4-2 8-1z" fill="#595555"/>
<path transform="translate(460,545)" d="m0 0 1 3-4 1v3l-8 7-4 2 12-14z" fill="#706061"/>
<path transform="translate(762,481)" d="m0 0h5l-5 8-3 9h-1v-6l3-8z" fill="#F3B9BA"/>
<path transform="translate(621,60)" d="m0 0 3 4 5 5 7 3v1l-9-1-4-4-2-5z" fill="#F4C3C4"/>
<path transform="translate(688,502)" d="m0 0 13 2-4 2-13 1z" fill="#F3B9BB"/>
<path transform="translate(547,848)" d="m0 0h4v3l3-1 6 7-1 2-11-9z" fill="#786B6C"/>
<path transform="translate(855,774)" d="m0 0 4 2 8 10v2h-2l-6-7-4-5z" fill="#8A7C7C"/>
<path transform="translate(761,473)" d="m0 0 3 2-2 4-3 8-4 3 1-4 3-8z" fill="#23232A"/>
<path transform="translate(839,794)" d="m0 0 5 2 5 9 2 4-1 3-7-12z" fill="#796F6F"/>
<path transform="translate(680,533)" d="m0 0 3 4 1 8-6-1-2-3 6 2-2-4z" fill="#F1AAAC"/>
<path transform="translate(424,318)" d="m0 0h7l-2 5h-5l-2-4z" fill="#242226"/>
<path transform="translate(894,180)" d="m0 0v3l-4 8v8l-2-1v-9l4-8z" fill="#FDFDFD"/>
<path transform="translate(783,67)" d="m0 0 2 1-4 5h-2l-2 4-6 6 2-6z" fill="#F6D1D2"/>
<path transform="translate(503,502)" d="m0 0m-2 1 2 1-7 8-4-1z" fill="#5E5455"/>
<path transform="translate(795,744)" d="m0 0 4 1 1 2 3 1 1 3 4 4-1 2-12-12z" fill="#977C7C"/>
<path transform="translate(318,412)" d="m0 0 8 2 9 2 1 2h-8l-5-3h-4z" fill="#222430"/>
<path transform="translate(455,165)" d="m0 0 9 1 3 1 1 3-7-1-6-2z" fill="#23232B"/>
<path transform="translate(759,699)" d="m0 0 4 1 4 4v3l4 2-1 3-11-12z" fill="#7D7778"/>
<path transform="translate(732,667)" d="m0 0 7 5 2 8-5-5-4-6z" fill="#A59191"/>
<path transform="translate(275,392)" d="m0 0 6 1 11 4v2l-9-2-8-4z" fill="#F7D6D6"/>
<path transform="translate(433,305)" d="m0 0 2 4-2 4h-9l3-2 4-2z" fill="#F2B5B6"/>
<path transform="translate(693,21)" d="m0 0h2v2l2 1-5 2-1 3h-2l-1 2 1-5z" fill="#FBF1F1"/>
<path transform="translate(405,712)" d="m0 0h2l2 3 2 1v3h4v5l-7-6-3-5z" fill="#817779"/>
<path transform="translate(427,445)" d="m0 0 12 1v2l-7 1-5-2z" fill="#22242F"/>
<path transform="translate(359,424)" d="m0 0 9 1 3 2v2l-9-2-1-1h-3z" fill="#222431"/>
<path transform="translate(695,50)" d="m0 0h1l-1 10-1 5h-1l-1-10z" fill="#F3BBBD"/>
<path transform="translate(513,812)" d="m0 0 4 1 6 3-1 4-9-7z" fill="#9C8586"/>
<path transform="translate(426,736)" d="m0 0 4 1 10 10-1 2-9-9z" fill="#918384"/>
<path transform="translate(826,424)" d="m0 0 9 5-1 2-7-2-2-4z" fill="#F5C4C5"/>
<path transform="translate(602,24)" d="m0 0h6l3 4v4l-2-1-2-3v-3l-6 2z" fill="#FDFDFD"/>
<path transform="translate(494,795)" d="m0 0 4 2 5 4 4 5-1 2-12-12z" fill="#F6D0D1"/>
<path transform="translate(461,732)" d="m0 0 4 2 6 5-3 1v-2l-3 1-3-2z" fill="#7D7175"/>
<path transform="translate(752,510)" d="m0 0h1l-1 7-2 7-1-4 1-7z" fill="#938282"/>
<path transform="translate(516,486)" d="m0 0 1 3-9 10-2-1 8-9z" fill="#7C7070"/>
<path transform="translate(804,431)" d="m0 0 4 1 2 6-3 2h-4v-2l4-1-2-1z" fill="#242223"/>
<path transform="translate(482,171)" d="m0 0 5 1v2h2v2l-4-1-5 1 1-4z" fill="#242225"/>
<path transform="translate(487,163)" d="m0 0 2 2 3 5v2h-8l-2-2h5z" fill="#756666"/>
<path transform="translate(460,164)" d="m0 0 8 1 6 2v1h-7l-7-2z" fill="#8D7B7C"/>
<path transform="translate(453,756)" d="m0 0 6 3 3 5-4-2-7-4z" fill="#AC8F8F"/>
<path transform="translate(749,518)" d="m0 0 1 2-2 12-2-3 2-10z" fill="#776A6A"/>
<path transform="translate(660,491)" d="m0 0 3 1 3-1-1 5h-4l-2-4z" fill="#252223"/>
<path transform="translate(892,301)" d="m0 0v3l-1 1h-9l2-3h7z" fill="#F1AAAC"/>
<path transform="translate(887,257)" d="m0 0 2 2h-4z" fill="#FDFDFD"/>
<path transform="translate(424,337)" d="m0 0" fill="#FDFDFD"/>
<path transform="translate(883,247)" d="m0 0" fill="#FDFDFD"/>
</svg>
