<?xml version="1.0" encoding="UTF-8"?>
<svg version="1.1" viewBox="0 0 996 996" width="249" height="249" xmlns="http://www.w3.org/2000/svg">
<path transform="translate(548,109)" d="m0 0 6 2-2 12-4 31v7l1 4 6 2 4 1 4-5 10-25 7-9 7-2 3 1 1 4-2 10-2 13-8 21-1 8 18-1 5-3 8-7 5 1 2 23 2 7 2 2 7-1 12-11 13-10h5l1 5-5 8-9 9-4 7 2 9 4 12 10 8 19 11 6 8 6 1 10-4 10-6h5l1 4-3 7-6 4-18 13-8 9-1 3v12l9-1 10-5 10-7 10-3h11l1 5-7 8-11 11-6 14-1 8 2 3 10 1 24-1 10 2 19 3 43 11 26 9 39 15 16 9 13 10 11 10 5 10 2 7v17l-4 16-8 16-13 19-8 9-11 7-11 5-16 5-8 2-10 1-57 1-9 1-13-2-32-5-32-3h-28l-5 2-4 12-8 5-5 2-3 4 2 5 20 11 12 9 10 9 13 13 10 14 9 16 6 19 3 10 1 7 2 42v20l-7 27-8 16-8 15-11 14-7 7-11 9-13 10-26 17-29 17-16 10-8 6 2 5 9 8 6 8 1 3v10l-8 8-9 1-10-4-7-7-8-10-8-9-3-6 1-10 4-8 7-6 11-7 7-7 10-6 10-5 22-15 17-10 14-9 15-14 7-8 11-13 5-9 7-18 4-10v-54l-2-12-10-28-6-11-10-13-9-9-8-7-12-9-2-1-2 7-3 1-14-7h-7l-8 6v9l1 4 1 14-3 1-12-6-14-9-3 1-3 3-7 2-10 2-2 3v11l5 35v12l-3 9-2 2-6-1-4-8-3-12-7-16-8-8-5-7-10-1-4 4-3 8-2 6-3 1-15-3-12-3-6-2-8-13h-6l-6 2-4-1-1-3-4 14-6 14-5 5-5-4-1-2-1-23-2-5h-3v-2l-8 1-4 3h-2l-2 5-8 16-9 10-3 1-3-3v-9l3-12 5-14h-2l-1-3-13-4-5-5-9-1-7 8-6 8-11 10h-5v-9l11-19 5-10 2-6h-2v-3h2l-3-5-15-7-5 2-9 9-6 5-8 11-8 14-4 9-6 15v7l6 21 4 13 4 11 15 25 10 19 8 12 12 16 12 12 9 7 14 12 13 10 14 11 12 11 7 12 1 4v16l-4 10-6 8-7 6-14 7-12 4-14 1-8-2-6-8 1-5 6-9 14-7 15-5 3-2v-9l-5-8-14-9-13-11-8-7-14-12-22-22-13-18-8-13-23-47-7-19-4-15-1-21 1-14 6-16 4-9 9-15 8-11 7-9 7-8 2-3v-9l-7-1-5-2-6 1-17 5-28 11-17 5-10 2-14 1-17-2-9-2-8-6-5-4-9-6-7-10-8-16-4-13-1-16 3-14 4-12 8-14 7-10 12-12 6-9 4-10 6-7 18-10 18-7 12-8 13-11 3-6-2-10-1-3-17 2-29 3h-6l-4-2-1-3 5-6 10-5 19-7 28-7 6-4 4-8 5-22v-5l-17-4-12-2-7-5-1-4 4-5 6-2h19l19-5 5-2 2-6 3-8-2-8-1-2v-7l1-1h6l9 7h17l9-5 5-8 5-13v-9l-6-18-2-9v-14l2-3 5 1 4 5 7 18 7 25h4l6-9 1-9 6-9 5-4 16-8 17-9 2-3 1-21 3-5h5l3 3 4 18 3 13 1 2 4 1 26-3 16-5 8-5 3-2 6 1 7 9 9 4 14 2 4 5 3 5 4 1h2l5-26 7-25 3-3zm152 249-11 7-2 2v5l4 3h11l8-1 6 3-1 4-9 6-22 10-3 3-3 7-6 8 1 4 10 5 11 2h17l-1 7-3 1-19 1-11 2-10 4-3 3v8l5 10 9 6 14 4 10 4 6 8 6 3 27 3 2 1 35 4h17l11-2 31-1 21-5 12-6 11-12 8-7 3-6 4-18v-7l-4-9-7-8-21-12-18-8-6-2-11-2-19-8-19-7-14-5-10-3-23-5-30-4zm-475 43-17 8-9 7-12 11-5 5-4 5-7 10-8 13-7 14-1 9v10l2 8 7 11 9 10 10 6 11 4h12l22-6 19-7 16-8 5-5-3-10-7-17-1-2-6 1-13 11-9 7-19 10h-5l2-6 4-6 10-9 14-11 7-8v-5l-8-11-1-4 4-14v-5h-6l-14 10-13 9-13 8-7 1 1-7 7-8 10-8 7-7 18-13 1-1v-10z" fill="#2A2B33"/>
<path transform="translate(513,388)" d="m0 0h8l8 5 7 8 10 14 7 8 6 10 3 6 1 3 12 3 15 3 10 3 9 6 2 3v8l-3 5-8 7-5 5-9 5-1 1v7l6 7 5 8 3 7 7 8 3 4v8l-6 8-9 6-5 2-17 2-9 4-3 9-2 8v11h8l4-1 2-5 7 1 5 5-7-2-4 4-7 2-10 2-2 3-1 9-1-3-10 4h-6v2h-6l-12-7-6-5-4-6v-3h-2l-5-5-5-1-12 2-5 2-15 2h-10l-9-3-4-7-1-3v-15l3-14 2-6-1-9-5-2-14-3-16-9-4-6v-6l3-6 24-12 5-6-1-7-7-11-11-19-1-2v-6l3-5 7-4 7-3h9l9 2h22l5-3 8-9 10-13 10-11z" fill="#F9BF3E"/>
<path transform="translate(574,264)" d="m0 0h14l14 7 10 9 12 11 8 7 5 8 6 21 4 15 1 14v14l-3 12-7 10-13 13-8 4-5 2-8 3-24-1-7-3-9-2-5-4-7-8-8-8v-2h-2l-6-9-7-20-4-9-2-14v-10l-2-7 1-9 3-14 4-7h2l2-5 5-5 16-8 8-3z" fill="#FDFDFB"/>
<path transform="translate(439,283)" d="m0 0 7 1 10 9 7 8 8 13 5 10v10l-4 24-4 16-4 10-8 12-8 9-11 8-14 7-15 7h-9l-15-3-10-6-8-8-6-9-4-17 1-10 2-13 3-16 9-20 7-10 6-10 4-4 8-3 12-10 5-2z" fill="#FDFCFA"/>
<path transform="translate(513,388)" d="m0 0h8l8 5 7 8 10 14 7 8 6 10 3 6 1 3 12 3 15 3 10 3 9 6 2 3v8l-3 5-8 7-5 5-9 5-1 1v7l6 7 5 8 3 7 7 8 3 4v8l-6 8h-3l4-4 2-4v-7l-3-5-2-1v-2l-4-2v-2l-3-1v-3h-3l-4 4-12 3-5-1-3-1-4-7-3-7-4-6-4-3-11-3-5-3-4-5-6-10-5-4-13-3-12-2h-7l-6 1h-9l-5 2-2-3v-3l-16-2h-8l-8-3 1 5 6 12-2 9-7 6-11 6h-3v2l-3 1-5 8 2 7 5 4 2 1v2l-4-1-9-6-2-4v-6l3-6 24-12 5-6-1-7-7-11-11-19-1-2v-6l3-5 7-4 7-3h9l9 2h22l5-3 8-9 10-13 10-11z" fill="#F9D081"/>
<path transform="translate(329,188)" d="m0 0 3 4v7l-3 4-3 10-5 10-12 5-13 1-10-3-2-5-4-1 1 7 1 5-1 20-2 5-1 1h-15l-2 1-25 1-6 2-2 4 7 3 21 3 5 3 3 8-1 9-5 11-4 10-4 5-7 4-3 1-15 2-30 10-3 2h-3v3h-2v3l14 1v1l-15 1-4-2-1-3 5-6 10-5 19-7 28-7 6-4 4-8 5-22v-5l-17-4-12-2-7-5-1-4 4-5 6-2h19l19-5 5-2 2-6 3-8-2-8-1-2v-7l1-1h6l9 7h17l9-5 5-8 5-13z" fill="#F9D38B"/>
<path transform="translate(652,184)" d="m0 0h5l1 5-5 8-9 9-4 7 2 9 4 12 10 8 19 11 6 8 6 1 10-4 10-6h5l1 4-3 7h-2v-5l-4 2h-4l-1 3-4 2-10 1-5 3h-3l-2 5-5 2-1-4 1-2h3l2-11-2-1-10 2-4-3-2-8-5-1-7-7-3-4v-8l-3-6-2-2 1-11 2-10-7 1 6-7z" fill="#F9D185"/>
<path transform="translate(554,334)" d="m0 0h13l6 5 3 4 1 8-3 15-5 4h-8l-5-2-6-9-3-10v-6z" fill="#282932"/>
<path transform="translate(430,342)" d="m0 0 7 1 5 5 2 12v6l-6 7-5 3-6-1-5-4-4-7 1-9 3-6z" fill="#282932"/>
<path transform="translate(440,603)" d="m0 0h5l4 5 6 1h5l4 5 4 7 3 2 4-1 8-5h6l4 6 3 9 2 1-9-1-22-5-6-9-3-5h-6l-6 2-4-1-1-3-4 14-6 14-5 5-5-4-1-2v-22l2 2v17l2 5 3 1 2-5 6-12v-16z" fill="#F9D288"/>
<path transform="translate(236,270)" d="m0 0 20 2 5 3 3 8-1 9-5 11-4 10-4 5-7 4-3 1-15 2-30 10-3 2h-3v3h-2v3l14 1v1l-15 1-4-2-1-3 5-6 10-5 19-7 28-7 6-4 4-8 5-22v-5l-17-4-5-2z" fill="#F9D896"/>
<path transform="translate(574,264)" d="m0 0h14l14 7 10 9 12 11 8 7 5 8 6 21 4 15 1 14v14l-3 12-7 10-13 13-8 4-5 2-8 3-24-1-7-3-9-2-5-4-7-8-8-8 1-2 20 20 14 3 2 1 25 1 8-4 7-3 10-8 9-10 4-8 2-10v-11l-1-2v-11l-4-14-4-17-4-10-8-9-11-9-10-10-17-9h-11l-18 4-12 5-6 4-4 1v-2l15-8 11-4z" fill="#F9D081"/>
<path transform="translate(473,321)" d="m0 0 3 3v10l-4 24-4 16-4 10-8 12-8 9-11 8-14 7-15 7h-9l-15-3-10-6-8-8-6-9-4-17 1-10 2-13 3-16 5-11 1 3-4 11-2 7-2 18-1 3v10l4 15 9 12 5 4 8 4 14 3h10l15-8 14-7 11-9 6-7 8-14 2-5 4-16 4-21z" fill="#F9D081"/>
<path transform="translate(406,116)" d="m0 0h5l3 3 4 18 3 15-4-2-3-17-3-9h-2-3l-2 20-1 4-3 1-1 2-5 3-7 3-2 3-14 3-6 7h-2l-2 4-2 7-3 3v-9l6-9 5-4 16-8 17-9 2-3 1-21z" fill="#F9D58E"/>
<path transform="translate(329,188)" d="m0 0 3 4v7l-3 4-3 10-5 10-12 5-13 1-10-3-2-5-4-1 1 7 1 5v5l-3 1-1-10-2-4v-7l1-1h6l9 7h17l9-5 5-8 5-13z" fill="#F9D48D"/>
<path transform="translate(171,403)" d="m0 0 2 2v5l-4 5-7 10-10 11-5 5-8 12-3 9-3 7-2 9v15l2 17 8 14 5 9 3 5-2 1-7-10-8-16-4-13-1-16 3-14 4-12 8-14 7-10 12-12 6-9z" fill="#FAE2B1"/>
<path transform="translate(479,138)" d="m0 0 6 1 7 9 9 4 14 2 2 3-7 1-7 2-5-4-7-3-6-9v-2l-4-1-3 1-4 7-12 2-3 2h-10l-4 1-13 1-2 1h-6l-2-3 20-2 14-2 12-4 8-5z" fill="#FAD99B"/>
<path transform="translate(548,109)" d="m0 0 6 2-2 12-4 31v7l1 4 6 2 4 1 3-2-1 4-6 1-8-2-2-5v-11l2-16 1-16 1-5h-5l-1 5h-2l-2 8-2 6-1 7-4 5 1-8 7-25 3-3z" fill="#F9D692"/>
<path transform="translate(429,528)" d="m0 0 11 1 6 4 2 2 1 9-4 16-1 12 3 10 5 4 12 1 17-1-2 2-15 2h-10l-9-3-4-7-1-3v-15l3-14 2-6-1-9-5-2-10-2z" fill="#F9D081"/>
<path transform="translate(652,184)" d="m0 0h5l1 5-5 8-9 9-4 5-1-4 1-7-7 1 6-7z" fill="#F9D184"/>
<path transform="translate(799,351)" d="m0 0 8 1 30 10 39 15 7 4-2 1-11-3-4-3-9-2-11-5-17-5-2-1v-2l-12-2-9-4v-2l-7-1z" fill="#FDF5E5"/>
<path transform="translate(730,337)" d="m0 0h9l10 2 19 3 31 8v1l-14-1-16-3-5-2-19-2-13-3h-9l-8-1v-1z" fill="#FBE2B3"/>
<path transform="translate(359,588)" d="m0 0h7l7 6 9 2 2 3v12l-3 7-1-3 3-9h-2l-1-3-13-4-5-5-8-2 3-3z" fill="#F9D184"/>
<path transform="translate(673,419)" d="m0 0 5 2 8 3 25 2-1 7-3 2h-16l2-1-2-7h-7l-8-4z" fill="#F9D082"/>
<path transform="translate(322,144)" d="m0 0 5 1 4 5 6 15-1 3-5-11-7-1v11l3 9v6l-2-3-4-14-1-4v-14z" fill="#F9D590"/>
<path transform="translate(440,603)" d="m0 0h2l1 9 3-1 2 1v3h-5l-2-4-4 14-6 14-5 5-5-4-1-2v-22l2 2v17l2 5 3 1 2-5 6-12v-16z" fill="#FAD99A"/>
<path transform="translate(560,562)" d="m0 0h2l-4 17v11h8l4-1 2-5 7 1 5 5-7-2-4 4-7 2-10 2-2 1-1-4v-8l6-21z" fill="#F9D38A"/>
<path transform="translate(576,830)" d="m0 0 2 2-5 6-6 4-6 3-7 5-3 6v13l3 5 6 7 3 1 6 9 5 5 1 3-4-2-9-10-7-8-7-9-1-9 3-9 7-8 10-6z" fill="#FADB9F"/>
<path transform="translate(609,173)" d="m0 0 5 1 2 28-2-1-2-6-1-7v-11l-4 1v2h-2l-2 4-3 3-13-1h-9l-2-4h2v2l18-1 5-3z" fill="#F9D38A"/>
<path transform="translate(527,612)" d="m0 0 6 2 3 12 2 7v5l-2-2-3-6-7-7-5-7-4-2z" fill="#F9D389"/>
<path transform="translate(707,252)" d="m0 0h5l1 4-3 7h-2v-5l-4 2h-4l-1 3-4 2h-14l-2-2 1-4 3 3 8-1z" fill="#F7DAA3"/>
<path transform="translate(698,474)" d="m0 0 5 2 6 8 5 2 21 2 1 2-9 1-5-2-19-2-9-3 4-8z" fill="#F9D898"/>
<path transform="translate(481,138)" d="m0 0 5 2 6 8 9 4 14 2 2 3-7 1-7 2-5-4-7-3-6-9v-2l-5-2z" fill="#F6D492"/>
<path transform="translate(497,583)" d="m0 0h6l6 5 3 4v2l4 2 5 5 5 3 6 3 10 1v1h-6v2h-6l-12-7-6-5-4-6v-3h-2l-5-5z" fill="#F9D081"/>
<path transform="translate(555,622)" d="m0 0h1l3 23v12l-3 9-2 2-6-1-4-8v-5l3 4 1 6h6l1-2z" fill="#FADB9F"/>
<path transform="translate(550,123)" d="m0 0h1l-1 16-2 15v7l1 4 6 2 4 1 3-2-1 4-6 1-8-2-2-5v-11l2-16z" fill="#FCF0D7"/>
<path transform="translate(128,483)" d="m0 0h1v10h2l2 17 8 14 5 9 3 5-2 1-7-10-8-16-4-13-1-16z" fill="#FBE4B8"/>
<path transform="translate(366,850)" d="m0 0 3 1-11 6-5 6-1 6 1 6 16 2 13-1-2 2-14 2-10-1-5-5-3-4 1-5 6-9z" fill="#FADA9D"/>
<path transform="translate(554,332)" d="m0 0h10l5 2-2 1h-13l-6 8 1 10 4 10 4 5 4 1h8l4-3 2-8h1v7l-4 5-2 1h-11l-5-3-5-8-3-10v-9l6-8z" fill="#F9D081"/>
<path transform="translate(276,242)" d="m0 0h1v13l-4 1-5-2-11 3h-7v-2l19-5 5-2z" fill="#FEFEFD"/>
<path transform="translate(587,128)" d="m0 0h3l1 4-2 10-2 13-8 21-2 4 1-9 6-17z" fill="#FADBA1"/>
<path transform="translate(196,330)" d="m0 0 3 1-7 6h-3v3h-2v3l14 1v1l-15 1-4-2-1-3 5-6z" fill="#FAD99A"/>
<path transform="translate(411,814)" d="m0 0 4 4 4 10v16l-4 10-6 8-3 2 2-4 6-9 1-2 1-17-3-12z" fill="#FBE5BA"/>
<path transform="translate(582,128)" d="m0 0 3 1-5 6-3 3-5 10-4 10-3 5-1-3 10-24 6-7z" fill="#F9D691"/>
<path transform="translate(917,409)" d="m0 0 3 4 3 10v17l-4 16-1-4 2-16-1-16z" fill="#FBEBCA"/>
<path transform="translate(371,160)" d="m0 0h3v2l-5 3-4 5h-2l-2 4-2 7-3 3v-9l6-9 5-4z" fill="#F9D48E"/>
<path transform="translate(483,624)" d="m0 0h6l5 6v2l4 1-9-1-17-4v-1l10-2z" fill="#FDFCFA"/>
<path transform="translate(696,587)" d="m0 0 5 5 11 18 4 9 4 14-1 4-8-23-6-12-9-13z" fill="#FAE1B1"/>
<path transform="translate(576,830)" d="m0 0 2 2-5 6-6 4-6 3-7 5-4 7-1-3 6-8 9-6 9-7z" fill="#F9D48E"/>
<path transform="translate(137,453)" d="m0 0h1v5l-4 8-3 12-1 15h-1l-1-16 6-19z" fill="#FADCA2"/>
<path transform="translate(442,603)" d="m0 0 4 1 5 5 4 1v2l-7 2v-2h-5z" fill="#F9D184"/>
<path transform="translate(654,241)" d="m0 0 21 12-2 1h-9l-3-6-7-4z" fill="#FDFCF9"/>
<path transform="translate(545,153)" d="m0 0h1l1 9 1 2 8 4 4-1 2-1-1 4-6 1-8-2-2-5z" fill="#F9D590"/>
<path transform="translate(354,591)" d="m0 0h8l5 3 3 4 9 1 4 2v5h-2l-1-3-13-4-5-5-8-2z" fill="#FEFEFD"/>
<path transform="translate(311,762)" d="m0 0 4 2 7 8 11 11 7 6-1 2-8-7-20-20z" fill="#FAE2B1"/>
<path transform="translate(149,539)" d="m0 0 5 1 8 6 3 3 7 4v2l-5-1-11-9-7-5z" fill="#F9D795"/>
<path transform="translate(799,351)" d="m0 0 8 1 18 6-1 2-9-1-9-4v-2l-7-1z" fill="#FAE0AC"/>
<path transform="translate(171,403)" d="m0 0 2 2v5l-4 5-7 10-2-2 7-10z" fill="#F2D08E"/>
<path transform="translate(408,288)" d="m0 0 3 1-8 6-8 7-8 3-4 3 2-4 3-3 8-3z" fill="#F9D081"/>
<path transform="translate(604,576)" d="m0 0h1l2 12 1 14-3 1-3-2h2z" fill="#F9D58F"/>
<path transform="translate(287,725)" d="m0 0 3 3 5 8 5 9 5 7-1 2-8-11-8-14z" fill="#FBE4B7"/>
<path transform="translate(855,372)" d="m0 0 6 1 10 2 12 6-2 1-11-3-4-3-9-2z" fill="#FAE1B0"/>
<path transform="translate(434,152)" d="m0 0h15l-4 2-13 1-2 1h-6l-2-3z" fill="#F9D796"/>
<path transform="translate(716,288)" d="m0 0h11l1 5-2 2-2-4h-8l-10 1 3-2z" fill="#FAE0AC"/>
<path transform="translate(354,876)" d="m0 0 21 1 7-1-2 2-14 2-10-1-2-1z" fill="#FADCA3"/>
<path transform="translate(673,419)" d="m0 0 5 2 8 3 11 2-4 1h-9l-8-4z" fill="#FAE0AC"/>
<path transform="translate(420,616)" d="m0 0 2 2v17l2 5 3 2-5-1-2-3z" fill="#FADEA7"/>
<path transform="translate(668,560)" d="m0 0 4 2 10 9 5 6-4-2-8-7-7-7z" fill="#FADDA5"/>
<path transform="translate(390,795)" d="m0 0 4 2 14 12 3 3-1 2-7-7-8-6z" fill="#FBE3B4"/>
<path transform="translate(436,623)" d="m0 0 1 2-6 14-5 5-2-2h3l1-4z" fill="#FAE2B2"/>
<path transform="translate(329,188)" d="m0 0 3 4v7l-5 5-1-2 2-5z" fill="#FAD99B"/>
<path transform="translate(388,837)" d="m0 0h1v6l-3 3-13 5-4-2 15-5 3-2z" fill="#FADB9F"/>
<path transform="translate(538,127)" d="m0 0 1 2-2 6-1 7-4 5 1-8 3-11z" fill="#FADEA9"/>
<path transform="translate(517,158)" d="m0 0 2 1 3 5 4 1h2l1-5 1 4-2 3h-8l-3-3z" fill="#FAD99A"/>
<path transform="translate(639,209)" d="m0 0 1 4 2 9 1 4-6-5 1-11z" fill="#FADA9E"/>
<path transform="translate(730,337)" d="m0 0h9v1l-7 2h-9l-8-1v-1z" fill="#FAE0AC"/>
<path transform="translate(411,814)" d="m0 0 4 4 4 10v3h-2l-6-15z" fill="#FBEAC9"/>
<path transform="translate(350,864)" d="m0 0h2l1 11 2 1h-3l-4-6 1-5z" fill="#F9D184"/>
<path transform="translate(824,360)" d="m0 0 6 1 13 5-4 1-10-3-2-1v-2z" fill="#F9D081"/>
<path transform="translate(441,604)" d="m0 0 2 3v5l3-1 2 1v3h-5l-3-4v-6z" fill="#FEFEFD"/>
<path transform="translate(137,453)" d="m0 0h1v5l-4 8-2 3 1-9z" fill="#F9D48C"/>
<path transform="translate(240,357)" d="m0 0 1 4-5 5-3 2-3-1 9-8z" fill="#F9D794"/>
<path transform="translate(417,137)" d="m0 0h1l3 15-4-2-1-9z" fill="#FADEA7"/>
<path transform="translate(325,608)" d="m0 0 1 4v4h5l-2 3h-5v-9z" fill="#F9D591"/>
<path transform="translate(722,488)" d="m0 0h13l1 2-9 1-5-2z" fill="#F9D591"/>
<path transform="translate(257,253)" d="m0 0h6v2l-6 2h-7v-2z" fill="#FCF3E1"/>
<path transform="translate(535,280)" d="m0 0v3l-9 14-1-3 4-7h2l2-5z" fill="#F9D081"/>
<path transform="translate(569,148)" d="m0 0 2 1-1 4-5 10-1-3z" fill="#FADB9E"/>
<path transform="translate(662,773)" d="m0 0v3l-8 8-4 1 5-6z" fill="#F9D48E"/>
<path transform="translate(311,762)" d="m0 0 4 2 7 8 2 4-7-6-6-6z" fill="#FADEA8"/>
<path transform="translate(167,413)" d="m0 0h2l-2 5-5 7-2-2z" fill="#F9D897"/>
<path transform="translate(549,857)" d="m0 0h1v10h-3l1-9z" fill="#F9D898"/>
<path transform="translate(709,606)" d="m0 0 3 4 4 10-3-1-4-10z" fill="#FBE7BF"/>
<path transform="translate(340,570)" d="m0 0" fill="#FEFEFD"/>
</svg>
