<?xml version="1.0" encoding="UTF-8"?>
<svg version="1.1" viewBox="0 0 1100 1100" width="275" height="275" xmlns="http://www.w3.org/2000/svg">
<path transform="translate(570,47)" d="m0 0h6l4 4 4 9 2 8 2 5-1 22 2 5 18 5 5-2 4-4 8-13 9-8 11-6h5l-1 9-9 23-4 16 8-1h13l15 5 2-5 4-6 5-1 6 2 1 5-3 10-5 10 4 3h6l6-4 11-14 4-3h11l8 2 1 3-6 13 1 7 6 13 3 7 3 1h8l28-10h5l1 1-1 8-11 13-9 8-5 7 3 3v2l5 2 11 8 9 9 2 1 26 1 2 1-1 9-7 9-7 16-4 7 1 5 7 9 4 5h7l5-1 14-1h11l7 2 6 7-2 4-7 2-17 2-8 4-7 6 1 10 5 18 1 6v14l-5 12-6 8 8 10 11 11 10 7 10 6 19 19 7 8 8 8 13 17 8 16 7 21 5 12 1 3 2 37 2 17v16l-4 13-7 16-7 11-11 11-13 8-18 8-21 10-12 4-19 2-4 1h-11l-29-3-26-7-11-3v19l3 20 11 45 5 26 7 37 2 20v32l6 45 3 29 2 34 5 37 3 17v17l-6 12-11 12-6 5-9 4-11 1-5-2-2-10 2-10 7-6 6-4 5-5 4-6-1-8-5-13-2-17-2-12-1-32-3-9-1-28-2-10-1-3-2-21-2-5-1-14-1-50-3-13-6-39-6-28-7-25-1-49-8-3-32-11-18-8-19-9-11-6h-5l-4 4-5 1-12-3-5-6v-2h-2l-3 9-2 7 2 24v14l-4 10-5 4h-14l-37-5h-9l-14 7-10 8-7 7h-2v2l-5 4-5 5-10 5-7 1-5-3-1-2-1-9-1-33-1-4-4 2-6 10-12 24-9 16-17 35-8 17-4 11-1 5v9l5 18 10 23 13 26 13 20 14 25 10 18 6 12 6 20 5 18 1 12-4 17-8 15-13 20-8 10-14 15-10 7-3 1h-16l-5-3-2-3-1-10 3-5 17-11 10-9 11-16 10-14 4-9v-12l-6-21-9-19-3-5-6-17-10-15-18-30-8-18-8-16-8-25-2-12v-23l6-18 10-24 10-19 10-16 8-14 8-16 8-17-15-1-18-4-8-6-3-4 1-10 6-16 4-18v-7l-6-3-19-5-60-10-41-7-16-3-30-8-29-7-37-14-10-6-13-10-10-10-13-17-7-14v-41l6-15 9-12 7-8 8-7 15-12 15-9 20-9 6-2 12-2 13-3 15-3 16-2 34-1 14-3 6-4-1-6-4-3-28-1-4-4-1-8 2-2 7 1 2 1h11l8-2 14-21 5-11 4-11 1-5 1-22 3-10 7-8 8-7 10-12 5-5 1-3-6-16 1-3h7l8 8 6-1 15-12 3-9 3-5 4-4 3-5 3-7 9-7h2l-6-16-3-7v-6l6-5 5 1 9 9 4-4 10-1 11-7 4-3h34l1-26 5-1 6 5 4 12 7 13 2 2 6 1 13-1 9-2h13l6-5 2-4h3l1-3 9-6 4-8 3-16zm-311 313-38 5-24 4-21 7-14 7-11 6-8 6-10 10-7 9-6 9-3 8-1 8v15l4 10 7 7 6 7 8 7 12 9 25 10 26 8 34 8 25 5 27 5 25 7 7 2 6-1 6-4 2-6v-14l-4-10-6-5h-7l-9 5-11 6-10 3-3-1 9-7 8-7 7-9 4-10 3-10 7-13v-2l-8-5h-9l-11 5-13 4h-6l-5-2 6-7 11-9 11-11 4-6-1-5-5-6-11-8-8-4-5-3-10-1h-9l1-5 4-2 7-7 9-14 2-5v-3zm543 42 1 5v11l-3 8-4 17-6 16-9 9-11 6-6 8 2 4 12 8 8 6 2 3v5h-9l-15-2-10-3-2-1 2 5 6 5 11 7 4 7 2 8h-10l-14-7-18-10-11-9-6-3h-6l-7 8 2 4 6 5 10 8 9 9 12 8 13 11 11 9 4 7 1 5-7-3-12-6-17-13-11-9-7-6-5-6-7-4-2 3 1 9 6 25 5 21 5 24 4 10 4 3 27 7 19 4h43l18-6 28-12 11-8 8-8 5-9 5-12 2-6v-16l-3-13-1-25-2-9-8-22-5-13-6-10-9-10-10-13-10-11-11-9-12-11h-2l-2-4-10-9zm-127 157m1 1 1 6 5 10 1 4v12l-3 6-5-3-6-8-8-8-11-14-4-2 1 6 1 21 3 7 9 6 10 5 11 3 9 4 7 4h3v-9l-3-13-2-16-6-7-6-5-6-9z" fill="#282A37"/>
<path transform="translate(456,463)" d="m0 0h11l7 7 4 6v2l6 2 14 8 7 2h9l17-11 9-4 8-2 2-2h9l4 2 6 19 4 6v36l2 10 13 10 6 4 6 5 9 6 4 5 4 6-1 5-9 10-10 6-6 5-3 4-4-5v-2h-2l-3 9-2 7 2 24v14l-4 10-5 4h-14l-37-5h-9l-14 7-10 8-7 7h-2v2l-5 4-5 5-10 5-7 1-5-3-1-2-1-9-1-33-1-4-4 2-6 10-12 24-9 16-17 35-8 17-4 11-1 5v9l5 18 10 23 13 26 13 20 14 25 10 18 6 12 6 20 5 18 1 12-4 17-8 15-13 20-8 10-14 15-10 7-3 1h-16l-5-3-2-3-1-10 3-5 17-11 10-9 11-16 10-14 4-9v-12l-6-21-9-19-3-5-6-17-10-15-18-30-8-18-8-16-8-25-2-12v-23l6-18 10-24 10-19 10-16 8-14 8-16 8-17-15-1-18-4-8-6-3-4 1-10 6-16 4-18v-7l-10-5h5l-4-10-5-9-3-8-2-1-2-10h-6l-4 4-6-1v-2h2l2-4 4-1 2-5 4-5 12 1 19 1 16 1 15-2 12-22 4-10 9-12 6-12z" fill="#B8F28D"/>
<path transform="translate(657,266)" d="m0 0 21 1 9 4 9 7 8 7 7 3 4 9 5 10 4 4 5 18v27l-3 7-2 10-5 13-8 11-5 6-7 8-15 9-11 5-6 2-23 1-10-3-15-8-8-4-8-9-7-11-3-5-2-10-2-5-1-9v-31l5-19 16-22 7-7 10-6 18-8z" fill="#FEFCF1"/>
<path transform="translate(503,227)" d="m0 0h10l10 3 6 2 11 7 16 16 6 10 3 4v43l-3 7-3 10-6 12-12 12-4 8-4 3-7 3-15 12-15 2-3 2-8-1-9-2-14-1-4-3-6-3-5-5-8-6-6-8-4-5-2-9-3-8-1-6 1-34 5-12 2-3v-5l-4 1-2-4 4-2 5 1 8-9 4-2 6-9 13-9 11-4 5-2 10-2 10-3z" fill="#FEFCF1"/>
<path transform="translate(716,585)" d="m0 0h1l6 29 4 10 6 3 24 6 10 2v1h-8l-10-2-3-1v3l-6-1v2h7v2h-3l3 3v2l2 1-3 1h-6l1 3-4 1h-7l6 3-2 1-5-1v19l3 20 11 45 5 26 7 37 2 20v32l6 45 3 29 2 34 5 37 3 17v17l-6 12-11 12-6 5-9 4-11 1-5-2-2-10 2-10 7-6 6-4 5-5 4-6-1-8-5-13-2-17-2-12-1-32-3-9-1-28-2-10-1-3-2-21-2-5-1-14-1-50-3-13-6-39-6-28-7-25-1-49-8-3-32-11-18-8-8-4 2-2 8 4 8 3 9 3 5 3 6 1v3h12l7 2 2 1v2l6 1 4 1-3-2-16-7-6-2-4-3 11 1 2-10h3l-8-6 2-1 10 6 3 1-1-16 1-3h2v2l4 2 2 3 3-1 1-3-2-1 1-2h2v-4h3l-1-3z" fill="#2C292B"/>
<path transform="translate(570,47)" d="m0 0h6l4 4 4 9 2 8 2 5-1 22 2 5 18 5 5-2 4-4 8-13 9-8 11-6h5l-1 9-9 23-2 7h-1v-14l3-7h2l-3-5-5 2-5 3-2 2-3 7-7 9h-2l-2 4-8 13-4 5h-7l-10-4v-2h-2v-10l2-10v-12l-1-21-4-9-3-2-5 1-2 1-2 12-2 7-4 39-3 7-5 2-12-2-11-1-9-6-10 1-9 4-1-4h-2l-1-2-2-13-8-12v-2h-7l1 5 2 3-1 9v19l-5 4-6 5h-7l-10-1-7 1-1 3h-13l-10-4-4-6-2-4-8-4-2 10 2 9 5 10v5l-3 1-1 2-5 1-7 4-7 1-3 4-1 11-5 4-6 2-7 2-14 1-1 2h-2l1 3v9l-3 5-5 4-11 3-3-1-2 4 1 7 6 4v6l-4 5h-2l-2 4-5 2-4 1-3 6-2 9-7 10-3 7v10l4 10-1 6-5 4-6 2-5 2 1 5 8 3v2l4 2 2 2v5l-9 4-22 3-35 3-9 2-14 1-23 5-17 4-20 9-9 4-3 3-11 6-5 1v3l-4 1-2 4-5 5-4 2-2 4-3 1-1 5-6 9-3 9-3 8-1 19 2 20 3 1v6l4 6-1 2-7-10-4-9v-41l6-15 9-12 7-8 8-7 15-12 15-9 20-9 6-2 12-2 13-3 15-3 16-2 34-1 14-3 6-4-1-6-4-3-28-1-4-4-1-8 2-2 7 1 2 1h11l8-2 14-21 5-11 4-11 1-5 1-22 3-10 7-8 8-7 10-12 5-5 1-3-6-16 1-3h7l8 8 6-1 15-12 3-9 3-5 4-4 3-5 3-7 9-7h2l-6-16-3-7v-6l6-5 5 1 9 9 4-4 10-1 11-7 4-3h34l1-26 5-1 6 5 4 12 7 13 2 2 6 1 13-1 9-2h13l6-5 2-4h3l1-3 9-6 4-8 3-16z" fill="#535052"/>
<path transform="translate(415,647)" d="m0 0h6l14 4 1 3-2 4h-2l-1 5-4 11-12 23-9 17-11 23-10 21-4 11-1 5v9l5 18 10 23 13 26 13 20 14 25 10 18 6 12 6 20 5 18 1 12-4 17-8 15-13 20-8 10-14 15-10 7-3 1h-16l-5-3-2-3-1-10 3-5 17-11 10-9 11-16 10-14 4-9v-12l-6-21-9-19-3-5-6-17-10-15-18-30-8-18-8-16-8-25-2-12v-23l6-18 10-24 10-19 10-16 8-14 8-16z" fill="#282527"/>
<path transform="translate(275,338)" d="m0 0 12 1 4-1 4 2-10 3-1 3-5 3-1 4-11 2-5 1-4-1v2l-20 3-7 1-12 2-7 2-4 3-18 4-14 5-14 7-11 6-8 6-9 9-7 9-6 9-3 8-1 8v15l4 10 7 7v2l4 2 6 7 15 11 25 10 11 4v2l5 1 27 9 11 3 17 3 19 3 15 3 7 2 14 2 10 2 4 2 3 3 2-2h16l6 2 12 1 8 4 4 9 4 7 1 5-2 2-14-3h-12l-48-8-41-7-16-3-30-8-29-7-37-14-10-6-13-10-10-10-8-10-3-7-2-3v-6l-2-1-2-8-1-15 1-16 4-13 5-9 3-5 2-1v-3l8-7 4-5 6-5h2v-3l5-2 12-7 5-4 13-5 13-6 17-4 23-5 14-1 17-3z" fill="#252225"/>
<path transform="translate(810,384)" d="m0 0 4 2 5 4 5 2 10 11 4 3 10 2 3 6 6 5 10 13 6 5 7 8 10 11 6 9 8 16 2 9h2l2 7h2l5 12 1 3 2 37 2 17v16l-4 13-7 16-7 11-11 11-13 8-18 8-21 10-12 4-19 2-4 1h-11l-29-3-26-7-5-3-6-2 1-2h10v-3l6-1 1-1v-2l-3-1v-2h3l-7-2v-2l6 1v-3l13 2 13 1 4 1h43l18-6 28-12 11-8 7-7 5-9 5-12 2-6v-16l-3-13-1-25-2-9-8-22-5-13-6-10-9-10-10-13-4-5v-5l-5-2-4-3v-2l-4-2-10-9-2-4v-3l-3 1-2-4h-2l-4-5v-3l-4 1-2-6-3-1-1-4 2-3 4-1h2z" fill="#272426"/>
<path transform="translate(283,354)" d="m0 0h14l1 2v11l-4 6-8 6h-2v2h-2l2 4h16l5 2 3 7v13l-3 10 1 7-3 5-5 5-3 5v7h7l12-5 9-1 4 1v2l3 1 7 8 2 3-1 7-5 6-6 16 6 2 5 5 7 4 2 3 1 9-2 10-4 8-4 3 2 4 4-1 9-6 6-8 10-9 5-2 4 2 1 6 7 2 5 3 6 1h8l14-2 3-2 10-20 4-9 9-11 6-12h2v-2l2-1h13l5 4 8 10 6 3 4 3 11 6 12 1 9-7 14-8 10-2 4-3h8l5 3 3 4 5 16 3 5 1 43 2 4 10 7 9 6 5 4 13 4 7 3 3 3 6 3 6 12-1 6-1 1-8-1-7-4-4 1-6 8-3 3-12 7 1 4 10 2-3 2-12-2-2-1 1-5 8-7 10-6 8-9-1-5-6-9-9-6-10-8-6-4-10-8-2-10v-36l-5-9-4-16-4-1h-9l-4 3-9 2-11 6-12 8h-9l-9-3-12-7-6-3-7-10-4-4h-11l-4 4-6 12-8 11-7 16-6 11-3 4-15 2-16-1-19-1-12-1-6 9-5 3-1 2h-2v2l6 1 2-4 2-1h6l1 1 1 10 4 2 3 8 7 14v4h-9l-11-3-7-1 4-2 10 2 7 1 1-2-3-7-5-12-8-4-17-2-1-1h-16l-2 2-1-3-7-1v-1l-16-3-12-2-13-3-11-2-19-3-19-4-10-3-9-4-15-5v-2l11 3 38 9 25 5 27 5 25 7 7 2 6-1 5-3 2-6v-14l-4-10-5-4h-7l-9 5-11 6-10 3-4-1 4-5 10-7 8-9 5-10 4-13 8-15-8-4h-9l-11 5-13 4h-6l-6-3 6-7 7-6 8-7 7-7 4-6-1-5-4-5-11-8-8-4-5-3-10-1h-9v-4l5-5 9-10 6-10 3-8-19 1-38 5-11 1 4-4 8-2 13-1 12-2 25-3h7z" fill="#575455"/>
<path transform="translate(758,186)" d="m0 0 2 1-5 7 3 3v2l5 2 11 8 9 9 2 1 26 1 2 1-1 9-7 9-7 16-4 7 1 5 7 9 4 5h7l5-1 14-1h11l7 2 6 7-2 4-7 2-17 2-8 4-7 6 1 10 5 18 1 6v14l-5 12-6 8 8 10 11 11 10 7 10 6 19 19 7 8 8 8 13 17 8 16 6 18-1 3-2-4v-3h-2l-8-20-6-9-8-11-11-11-4-5-5-4-8-11-7-6-1-5-10-1-11-10-4-5-10-8-9-7-5-6 1-5 11-3v-7l-5-2-6-2-5-7 1-8 8-11-1-12 9-12 10-7 5-2-2-8h-9l-11 4-7-1-10-4-2-2-1-7 3-7 1-2v-8l3-12 3-8 4-5 1-4-3-2h-6l-7 2-7 1-3 2-3-3-4-2-2-6v-7l-3-2v-2l-5-1-3-3-1-3v-12z" fill="#5A5759"/>
<path transform="translate(455,461)" d="m0 0h13l5 4 8 10 6 3 4 3 11 6 12 1 9-7 14-8 10-2 4-3h8l5 3 3 4 5 16 3 5 1 43 2 4 10 7 9 6 5 4 13 4 7 3 3 3 6 3 6 12-1 6-1 1-8-1-7-4-4 1-6 8-3 3-12 7 1 4 10 2-3 2-12-2-2-1 1-5 8-7 10-6 8-9-1-5-6-9-9-6-10-8-6-4-10-8-2-10v-36l-5-9-4-16-4-1h-9l-4 3-9 2-11 6-12 8h-9l-9-3-12-7-6-3-7-10-4-4h-11l-4 4-6 12-8 11-7 16-6 11-3 4-15 2-16-1-19-1-12-1-6 9-5 3-1 2h-2v2l6 1 2-4 2-1h6l1 1 1 10 4 2 3 8 7 14v4h-9l-11-3-7-1 4-2 10 2 7 1 1-2-3-7-5-12-8-4-17-2-1-1h-16l-2 2-1-3-7-1v-1l-16-3-12-2-13-3-11-2-19-3-19-4-10-3-9-4-15-5v-2l11 3 38 9 25 5 27 5 25 7 7 2 6-1 5-3 3-7 2 1 2 4 4-1 9-6 6-8 10-9 5-2 4 2 1 6 7 2 5 3 6 1h8l14-2 3-2 10-20 4-9 9-11 6-12h2v-2z" fill="#555354"/>
<path transform="translate(570,47)" d="m0 0h6l4 4 4 9 2 8 2 5-1 22 2 5 18 5 5-2 5-4-2 5-3 3h-7l-19-6-2-10v-17l-4-16-3-6v-2l-7 1-4 9-3 17-3 12-1 10h-4l-5 1-7-1-2 2h-10l-4-1h-7l-4 4 1 6-2 3-4-2v-6l-3-1-2-4-3 7-3 1-7-10-4-8-3-4-5-15h-2v2h-3l-1 22 2 2v3l-2 1h-7l-9-1-5 2-13-1 2 3h9l2 3v5l-4 4-8 1-2-1-2 4-3 7-4 5h-6l-4-4-2-4-6-5-8-1-3-9-3-7-7-1v13l-2-2-2-5v-6l6-5 5 1 9 9 4-4 10-1 11-7 4-3h34l1-26 5-1 6 5 4 12 7 13 2 2 6 1 13-1 9-2h13l6-5 2-4h3l1-3 9-6 4-8 3-16z" fill="#FEFBF0"/>
<path transform="translate(283,354)" d="m0 0h14l1 2v11l-4 6-8 6h-2v2h-2l2 4h16l5 2 3 7v13l-3 10v3h-2l-4-6-12-9-8-4-5-3-10-1h-9v-4l5-5 9-10 6-10 3-8-19 1-38 5-11 1 4-4 8-2 13-1 12-2 25-3h7z" fill="#585556"/>
<path transform="translate(679,112)" d="m0 0 8 1 2 6-3 10-5 10 4 3h6l6-4 11-14 4-3h11l8 2 1 3-6 13 1 7 6 13 3 7 3 1h8l28-10h5l1 1-1 8-6 7-1-3 4-7-12 1-9 3-10 5-5 1-7-3-5-1-2-1 1-7 1-3-6-10-2-2 1-6 3-6 2-3 1-5-9 1-10 4-6 7-8 7-7 6h-2v2l-6 1-5-3 1-19-1-2-7 3-6 4-11 1-15 1-9-3v-8l7-15h2l-1 7 8-1h13l15 5 2-5 4-6z" fill="#5A5758"/>
<path transform="translate(797,403)" d="m0 0h6l1 4v11l-3 8-4 17-6 16-10 10-11 6-5 7 2 4 11 7 9 7 2 3v5l-1 1h-9l-15-2-10-3 2 4 9 6 8 6 4 9 1 5-1 1h-10l-14-7-3-3 4 1 10 5h5l1-2h2l-3-8-7-5-8-4-11-11 1-5 5 1 17 7 12 1-3-8-1-3-9-4-5-4-5-8 1-7 4-10 9-4 12-2 1-1v-7l-3-5v-11l-2-3 1-3 6-1h14l2-4 2-3-1-5-4-4z" fill="#5F5C5D"/>
<path transform="translate(716,585)" d="m0 0h1l6 29 4 10 6 3 24 6 10 2v1h-8l-10-2-3-1v3l-6-1v2h7v2h-3l3 3v2l2 1-3 1h-6l1 3-4 1h-9l-3-1v2l-3-1v-3h2l-1-4-2-6-6-1-7 2-2 3-15-6-5-3-5-1-4-3 11 1 2-10h3l-8-6 2-1 10 6 3 1-1-16 1-3h2v2l4 2 2 3 3-1 1-3-2-1 1-2h2v-4h3l-1-3z" fill="#292B37"/>
<path transform="translate(392,114)" d="m0 0 4 5 7 7 1 4v13l2 5v3l-6 2h-11v2l-4 3-5 2-2 3-1 8-6 8-6 1-4 1-7 3-6 1v11l-1 3-3 2-10 2-6 6h-2l-1 4h-2l-2 5-5 5-2 4 7 1 2 2-12 3-2 3h-2l2 9 1 1v8l-4 10-4 4 2-10 1-22 3-10 7-8 8-7 10-12 5-5 1-3-6-16 1-3h7l8 8 6-1 15-12 3-9 3-5 4-4 3-5 3-7 9-7h2l-5-13z" fill="#FFFCF1"/>
<path transform="translate(758,186)" d="m0 0 2 1-5 7 3 3v2l5 2 11 8 9 9 2 1 26 1 2 1-1 9-7 9-7 16-4 7 1 5 6 8 2 9h7l7-1-1 2-11 4-7-1-10-4-2-2-1-7 3-7 1-2v-8l3-12 3-8 4-5 1-4-3-2h-6l-7 2-7 1-3 2-3-3-4-2-2-6v-7l-3-2v-2l-5-1-3-3-1-3v-12z" fill="#575455"/>
<path transform="translate(656,264)" d="m0 0 23 1 10 4 11 9 3 2v2l6 2 5 4 3 8 4 10 5 5 4 9 1 8 1 26-2 7-2 4-2 13-3 4-3 7-8 11-5 6-5 5-10 8-21 9-16 2-18-1-15-8-13-7-3-3v-2h-2l-10-15-3-6-2-10-2-5-1-14-1-3v-9l1-2 1-16 6-18 4-6h2l2-5 6-9 9-8 11-7 14-7 7-3zm1 2-25 10-9 5-9 6-7 7-9 13-5 7-3 12-2 7v31l2 12 2 5 2 9 7 11 8 10 5 4 16 8 9 4 5 1 23-1 17-7 15-9 7-8 9-11 6-10 4-12 2-9 2-5v-27l-5-18-6-7-6-15-10-6-13-11-9-4-2-1z" fill="#524F51"/>
<path transform="translate(644,72)" d="m0 0h5l-1 9-9 23-2 7h-1v-14l3-7h2l-3-5-5 2-5 3-2 2-3 7-7 9h-2l-2 4-8 13-4 5h-7l-10-4v-2h-2v-10l3-16 2 1v2l16 4 3 1h7l4-5 3-7 6-9 8-7z" fill="#545153"/>
<path transform="translate(551,468)" d="m0 0h8l5 3 3 4 5 16 3 5 1 43 2 4 10 7 9 6 5 4 13 4 7 3 3 3 6 3 6 12-1 6-1 1-8-1-7-4-4 1-6 8-3 3-12 7 1 4 10 2-3 2-12-2-2-1 1-5 8-7 10-6 8-9-1-5-6-9-9-6-10-8-6-4-10-8-2-10v-36l-5-9-4-16-4-1h-9l-4 3-9 2-11 6-10 7-2-1 9-8 14-8 10-2z" fill="#535051"/>
<path transform="translate(717,525)" d="m0 0 5 3 10 10 12 8 13 11 11 9 4 5 1 8-5-1-14-7-17-13-11-9-8-7-4-4v-2h-2v-4l-3-1v-2l-2-1h3l1-2z" fill="#2F2C2E"/>
<path transform="translate(104,482)" d="m0 0 5 3 4 4v3h2v3l4 1 5 5 11 7v2l5 2 13 6 10 3 8 3 12 4 11 4 14 3 23 6 11 3 12 2 14 3 18 4 6 2 14 2 14 3 13 2 15 3v2l-74-12-30-5-29-8-33-8-37-14-10-6-13-10-10-10-8-10z" fill="#6F6C6B"/>
<path transform="translate(234,338)" d="m0 0h28v1l-21 1-10 2-19 2-25 6-1 2-12 3-14 7-10 4-5 4-11 6-5 1v3l-4 1-2 4-5 5-4 2-2 4-3 1-1 5-6 9-3 9-3 8-1 19 2 20 3 1v6l4 6-1 2-7-10-4-9v-41l6-15 9-12 7-8 8-7 15-12 15-9 20-9 6-2 12-2 13-3 15-3z" fill="#7B7877"/>
<path transform="translate(501,225)" d="m0 0h12l6 2 10 2 10 5 4 6 5 5v3l-8-8-12-8-10-2-5-2h-10l-15 5-9 2-12 4-11 7-5 5-6 8-5 3-6 7-7-1v4l5-1v6l-6 12-1 3-1 34 3 12 2 5 2 8 8 9 5 5 7 5 4 4 6 3 1 1 14 1 12 3 7-1 5-2 11-1 16-13 9-4 5-9 4-3-6 12-4 4-8 4-7 6-8 5-12 2-7 3h-7l-12-3-12-1-11-7-6-5-6-4-7-9-4-4-3-12-3-10-1-5v-9l1-7 1-20 4-8 2-6-6-2-1-4 4-4h9l2-4 10-9 5-7 5-3h2l1-3 11-6 12-3z" fill="#524F51"/>
<path transform="translate(483,311)" d="m0 0h8l5 3 1 3v11l-1 9-2 3h-2l-2 4-4 3-5-2-9-5-3-5v-15l5-5 5-3z" fill="#282A37"/>
<path transform="translate(724,125)" d="m0 0 4 1-1 7-3 5-2 5 1 4 6 9 1 4-2 3-1 5 11 2 3 2 5-1 11-6 16-3 4 1-2 6-3 7-8 8-4 2 1-4 4-5h2v-7l-1-1-7 1-10 5-5 3h-12l-12-6-6-2-2-4 1-11 7-14v-7l-2-7z" fill="#535052"/>
<path transform="translate(649,354)" d="m0 0 13 1 2 2 1 10-2 8-5 8-16-1-4-4-1-9 5-10 5-4z" fill="#282936"/>
<path transform="translate(722,775)" d="m0 0 1 3 3 1 2 15 1 5 2 25v17l-1 2 1 6 1 14 2 11 5 44 1 13 3 23 1 18 3 27 1 10-2-3-2-5-2-17-2-12-1-32-3-9-1-28-2-10-1-3-2-21-2-5-1-14-1-50-3-13z" fill="#7E7B79"/>
<path transform="translate(433,321)" d="m0 0h2l4 11 4 9 15 14 6 7v2h7l11 3 1 2-5 2h-8l-12-2-12-9-7-8-4-5-4-14-1-2v-8z" fill="#FDFDFD"/>
<path transform="translate(636,84)" d="m0 0 4 2 1 4h-2l-2 7v9l-1 5h-3v2h-2v2l-3 1-2 2v-2h-8l-3 8h-2l-1 2-2-1-1 3-1-3 3-10 3-7 5-5 5-7 2-5 4-4z" fill="#242124"/>
<path transform="translate(511,230)" d="m0 0 1 3 3-1 1 1 10 2 7 6v2h7l7 5v2h2v2l4 2 2 3-1 6-5-1-11-8-4-6-13-3-7-2h-12l-2-1 1-7 6-3h4z" fill="#FDFDFD"/>
<path transform="translate(389,695)" d="m0 0 1 3-3 7-3 5-12 26-2 6h-2l-1 10-1 2h-2l-1 7-3 8-2 4 1 5 3 22 1 5v6h2l1 6 4 9 2 5v4l3 1 2 5-1 5-3-4-7-15-8-25-2-12v-23l6-18 10-24 10-19z" fill="#6B6868"/>
<path transform="translate(847,440)" d="m0 0 8 4 5 8 1 3h2l4 4 3 5 6 7 1 4h2l5 13 1 4 6 16 2 5 2 21v9l2 16v21l-5 16-5 9-10 10-3 2-4-1 12-11 5-7 6-15 2-6v-16l-3-13-1-25-2-9-8-22-5-13-6-10-9-10-10-13z" fill="#757272"/>
<path transform="translate(683,534)" d="m0 0 4 1 3 5v10l-5 6h-3l2 9 6 8-1 2-7-6-5-7 4 10 3 8v12h-1l-1-11-7-13-3-4-3-11-1-8h4l6 2 2-7z" fill="#5E5B5C"/>
<path transform="translate(712,121)" d="m0 0h11l8 2 1 3-6 13 1 7 6 13 3 7 3 1h8l28-10h5l1 1-1 8-6 7-1-3 4-7-12 1-9 3-10 5-5 1-7-3-5-1-2-1 1-7 1-3-6-10-2-2 1-6 3-6 2-3 1-5-11 1-7-1-4 4-2-1 5-6z" fill="#FFFCF1"/>
<path transform="translate(745,508)" d="m0 0 5 2 5 4 8 4 6 2 3 5v4h-2l-1 3-7-1-9-5-9-3-10-6-2-2-1-6 9 3 4-1z" fill="#252325"/>
<path transform="translate(743,546)" d="m0 0 8 6 11 9 8 7 3 6v5l-5-1-14-7-17-13 1-2h3l2-6z" fill="#625F60"/>
<path transform="translate(638,618)" d="m0 0 9 4 8 3 9 3 5 3 6 1v3h12l7 2 2 1v2l6 1 4 1 3-3 2 1v-2l9 2 1 5h-2l1 6-6 1v-2h-2l-2-4-4-2 1 4v18l2 9v5l-4 1-1 2-1-37-8-3-32-11-18-8-8-4z" fill="#272936"/>
<path transform="translate(189,507)" d="m0 0 11 3 38 9 25 5 27 5 25 7v1h-9l-9-2-12-2-13-3-11-2-19-3-19-4-10-3-9-4-15-5z" fill="#83807E"/>
<path transform="translate(427,993)" d="m0 0 2 4-6 5-3 9-7 8-8 7-6 5h-2v3h-2l-1 3h-6l-1 3h-2l-1 4-2 5 4 2v2l11 2 13-3 8-5 7-6-2 4-8 8-9 6-3 1h-16l-5-3-2-3-1-10 3-5 17-11 10-9 11-16z" fill="#7A7776"/>
<path transform="translate(846,407)" d="m0 0 4 1 19 19 7 8 8 8 13 17 8 16 6 18-1 3-2-4v-3h-2l-8-20-6-9-8-11-11-11-4-5-5-4-8-11-7-6-1-5z" fill="#8A8785"/>
<path transform="translate(875,641)" d="m0 0 3 1-16 7-21 10-12 4-19 2-4 1h-11l-29-3-22-6v-1l10 1 9 2 12 2h14l5-1 10 2 14-1 19-5 14-5 18-9z" fill="#716E6E"/>
<path transform="translate(424,518)" d="m0 0 1 3-5 3-12 1-7 1-4-1h-14l-12 2-3 3-2 8v6h-2l-2-10h-6l-4 4-6-1v-2h2l2-4 4-1 2-5 4-5 12 1 19 1 16 1 15-2z" fill="#FFFCF1"/>
<path transform="translate(653,603)" d="m0 0 7 1 21 6 5 3 8 6-2 1-2-1 1 3-2 5-1 3-8-1-4-2 4-1-2-2h3v-4h-2l-1-4-4-1-1-2-4-1-7 1-4-1v-2h-6l2-2-3-2v-2z" fill="#252326"/>
<path transform="translate(657,569)" d="m0 0h2v2h2l1 5h5l4 1 1-7 5 2 2 6 3 1 1 2v14l-4 4-5-4-6-8-5-5-5-10z" fill="#272427"/>
<path transform="translate(703,553)" d="m0 0 2 4 2 5 6 7 3 11v14l1 3-4-1v6l-1 5-3-1-1 2-7-7-2-1 1-3v-2-3l4-1 3 9 3-1v-18l-5-9-2-12-3-1z" fill="#2A272A"/>
<path transform="translate(699,290)" d="m0 0 8 1 5 12 5 5 3 2v2h2v8l-3 6 5 4 1 5-3 3-4-1-3-13-8-18-6-10-2-2z" fill="#FDFDFD"/>
<path transform="translate(376,846)" d="m0 0 4 2 4 7 3 8 2 2v3h2l3 7 7 10 4 7v2l3 1 6 11 5 13 4 9 3 9 4 9-1 4-7-16-6-11-6-17-10-15-18-30-6-13z" fill="#8B8885"/>
<path transform="translate(571,59)" d="m0 0 5 1 4 4 3 7v9l-7 1-2-1-2 3-4 1-3 3 1-11h2l-1-14z" fill="#242123"/>
<path transform="translate(629,608)" d="m0 0 9 2v2l6 2 7 4 5 2h3l5 3 13 5 6 3 4 1 11 5 9 4-2 2-9-3v-2l-12-2-9-1v-3h-6l-5-3-5-1-2-4-14-7-9-4-4-2z" fill="#242327"/>
<path transform="translate(766,204)" d="m0 0 4 2 8 7 7 6 26 1 2 1-1 9-7 9-3 7-1-2h-2l-1-6 7-7 1-4-3-3-7-1-3 1h-10l-1-3h-2l-3-3-2-5-2-1v-2l-4-2z" fill="#FFFCF1"/>
<path transform="translate(332,540)" d="m0 0h7l6 2 12 1 8 4 4 9 4 7 1 5-2 2-14-3h-10v-2h-6l3-3 5 2 1-2h2l6-1h7l-1-8-2-6-22-2-9-4z" fill="#272935"/>
<path transform="translate(284,300)" d="m0 0 2 3 1 5-3 3h-13l-4 1-1 7 2 1h-13l-4-4-1-8 2-2 7 1 2 1h11l8-2z" fill="#FEFBF0"/>
<path transform="translate(618,589)" d="m0 0 2 1-4 2 1 8-1 2 6 1 5 4-4 1-11-2-5 6h-9l-4-3 1-4 9-4 7-4 3-5 2-2z" fill="#252224"/>
<path transform="translate(108,397)" d="m0 0 1 3-7 11-3 9-3 8-1 19 2 20 3 1v6l4 6-1 2-7-10-4-9v-34l5-16 5-9z" fill="#6E6B6B"/>
<path transform="translate(359,758)" d="m0 0 1 4-3 12h2l1 13 3 18v6h2l1 6 4 9 2 5v4l3 1 2 5-1 5-3-4-7-15-8-25-2-12v-23z" fill="#8D8A88"/>
<path transform="translate(570,47)" d="m0 0h6l4 4 4 9 2 8 2 5-1 22 2 5 18 5 5-2 5-4-2 5-3 3h-7l-19-6-2-10v-17l-4-16-3-6v-2l-7 1-4 9-2 8h-1v-8l3-9z" fill="#FFFCF1"/>
<path transform="translate(761,168)" d="m0 0h5l2 2-1 7-5 5-2 4-4 3h-4l2-8-6-1-1-4 5-4z" fill="#242124"/>
<path transform="translate(713,128)" d="m0 0h5l3 6v7l-4 4h-2l-1 2v-5l-4-1h-3-2l1 3h-2l-1 5-4-4v-5l4-2 2-4 6-5z" fill="#242124"/>
<path transform="translate(801,276)" d="m0 0 5 5h7l5-1 14-1h11l7 2 6 7-2 4-7 2-20 2 3-3 14-1 8-2-2-4-6-2h-15l-1-1h-9l-9 2-7-1z" fill="#FFFCF1"/>
<path transform="translate(704,689)" d="m0 0 3 1 3 14 3 8 4 19 3 13 2 9v22h-1l-4-27-6-28-7-25z" fill="#807D7C"/>
<path transform="translate(645,570)" d="m0 0h3v30l-2 1-7-2-4-2 1-3 6-2-1-7-2-2-1-5 2-2 1 1z" fill="#282628"/>
<path transform="translate(455,461)" d="m0 0h13l5 4 8 10 6 3 4 3 11 6 12 2v2h-9l-9-3-12-7-6-3-7-10-4-4h-11l-4 4-3 6h-2l1-4 3-6h2v-2z" fill="#524F51"/>
<path transform="translate(816,284)" d="m0 0h9l2 5v4l-6 4-9 1-2-5-3-1 1-5z" fill="#242123"/>
<path transform="translate(415,647)" d="m0 0h6l14 4 1 3-2 2v-3l-10-1-5-2-3 1-3 7-3 4-2 5-4 8-4 9-7 10-3 1 2-5 8-14 8-16z" fill="#726F6F"/>
<path transform="translate(275,368)" d="m0 0 1 4v5l-10 9h-2l-1 8 17-1-1 7-5-2-10-1h-9v-4l5-5 9-10z" fill="#FFFCF1"/>
<path transform="translate(759,489)" d="m0 0 3 1v2l5 1v-2l7 2 4 8v4l-5 1v-3h3l-2-2-2 2h-7v-2l-9-3-1-2 3-1 1-3z" fill="#242124"/>
<path transform="translate(738,931)" d="m0 0h2l3 23 1 18 3 27 1 10-2-3-2-5-2-17-2-12-1-32z" fill="#524F51"/>
<path transform="translate(644,72)" d="m0 0h5l-1 9-9 23h-1l1-8 7-17-7 2-7 3-8 6-2-1 7-8 12-8z" fill="#FFFCF1"/>
<path transform="translate(389,813)" d="m0 0 2 2 11 23 9 17 10 15 6 12-4-2-10-17-6-7-7-15-8-18-3-6z" fill="#7F7C7B"/>
<path transform="translate(483,311)" d="m0 0h8l5 3 1 3v11l-1 9-2 3h-2l2-4v-20l-3-2h-8l-9 5-2 3v14l3 3 6 3 2 2 4 2-3 1-6-4-6-3-3-5v-15l5-5 5-3z" fill="#524F51"/>
<path transform="translate(813,306)" d="m0 0h1l8 34v14l-1 3h-2l-1-9-1-5-2-6 2-13-4-1-1-8z" fill="#FFFCF1"/>
<path transform="translate(722,775)" d="m0 0 1 3 3 1 2 15 1 5 2 25v17l-3 2-1-39-4-17z" fill="#524F51"/>
<path transform="translate(744,656)" d="m0 0 10 1 9 2 12 2h14l5-1 12 3-3 3-16-1-21-2-22-6z" fill="#4E4D53"/>
<path transform="translate(234,338)" d="m0 0h28v1l-21 1-10 2-19 2-25 6h-8l-1-2 12-2 13-3 15-3z" fill="#FFFCF1"/>
<path transform="translate(553,252)" d="m0 0 4 2 6 10 3 3 1 4v34l-2 11-2 5-1 7-2 4h-2l-2 6-3 3 2-5 5-12 4-12v-43l-7-10z" fill="#524F51"/>
<path transform="translate(638,618)" d="m0 0 9 4 8 3 9 3 5 3 6 1v3l8 1 9 3 10 4-3 1-36-12-18-8-8-4z" fill="#666364"/>
<path transform="translate(262,338)" d="m0 0h8v1l-5 1-25 2-9 2-14 1-23 5-8 1 1-2 25-6 25-3 4-1z" fill="#524F51"/>
<path transform="translate(138,483)" d="m0 0 4 2 11 8 25 10 9 3v1h-7l-8-3-8-2-8-3v-2l-5-1-2-1v-2l-5-2-6-7z" fill="#C2BFB9"/>
<path transform="translate(749,778)" d="m0 0 2 1 4 21 2 20v13l-3-1-1-9-1-20z" fill="#B2AFAA"/>
<path transform="translate(911,497)" d="m0 0 3 4 4 11 2 42h-2l-2-13-2-31-3-8z" fill="#C3C0BA"/>
<path transform="translate(649,354)" d="m0 0 13 1 2 2 1 10-1 6h-1v-9l-1-6-4-1h-9l-5 4-4 8v7l5 4h12l3-1-2 4-16-1-4-4-1-9 5-10 5-4z" fill="#524F51"/>
<path transform="translate(679,112)" d="m0 0h3l-2 4-4 4-4 7-9-2-4-2-24-2v-1l8-1h13l15 5 2-5 4-6z" fill="#FFFCF1"/>
<path transform="translate(434,895)" d="m0 0 3 3 10 18 6 15 8 28v3h-2l-3-9-4-16-3-10-13-26z" fill="#FFFCF1"/>
<path transform="translate(727,804)" d="m0 0h1v39h2l1 6 1 14 1 9-3-3-2-5-1-14z" fill="#A09D99"/>
<path transform="translate(302,429)" d="m0 0 4 2-3 12-3 3h-6v-7l4-6h2z" fill="#242225"/>
<path transform="translate(427,993)" d="m0 0 2 4-6 5-3 9-7 8-8 7-11 8-2-1 9-7 8-7 11-16z" fill="#7C7978"/>
<path transform="translate(474,347)" d="m0 0 8 1 7 2 1 3-4 3h-6l-8-3-1-3z" fill="#FDFDFD"/>
<path transform="translate(728,1049)" d="m0 0 1 4 2 7 7 2 8-3 7-3 4 1-8 5-10 3h-7l-4-2-2-10v-3z" fill="#979491"/>
<path transform="translate(760,560)" d="m0 0 8 6 4 5 1 8-5-1-8-4 3-5-2-6z" fill="#FFFCF1"/>
<path transform="translate(702,591)" d="m0 0h2l3 9 3-1v-7l3 3v7l-1 5-3-1-1 2-7-7-2-1 1-3v-2-3z" fill="#242123"/>
<path transform="translate(301,499)" d="m0 0 1 2v4l-1 5-12 4-4-1 4-5 10-7z" fill="#FDFAEF"/>
<path transform="translate(909,610)" d="m0 0 2 1-7 11-11 11-13 8v-3l7-4h2l1-3h2l2-4 8-8z" fill="#4F4F56"/>
<path transform="translate(892,590)" d="m0 0 1 4-6 11-10 10-3 2-4-1 12-11 5-7 3-7z" fill="#7B7877"/>
<path transform="translate(714,730)" d="m0 0 3 1 3 13 2 9v22h-1l-4-27-3-15z" fill="#898684"/>
<path transform="translate(704,647)" d="m0 0 2 3 1 16 2 9v5l-4 1-1 2z" fill="#524F51"/>
<path transform="translate(779,393)" d="m0 0h5l6 9-1 2h-8l-4-4 1-6z" fill="#524F51"/>
<path transform="translate(412,909)" d="m0 0 5 5 6 14 3 9 4 9-1 4-7-16-6-11-4-11z" fill="#B9B6B1"/>
<path transform="translate(123,379)" d="m0 0 2 1-15 15-9 12-4 8-4 14h-1v-7l6-15 9-12 7-8 8-7z" fill="#EAE7DE"/>
<path transform="translate(332,540)" d="m0 0h7l6 2 12 1 8 4 2 3-1 4-3-5v-2l-22-2-9-4z" fill="#282A37"/>
<path transform="translate(597,367)" d="m0 0 4 4 4 11v5l-4-1-4-8-2-9z" fill="#FDFDFD"/>
<path transform="translate(724,620)" d="m0 0 4 5 16 5 23 5v1h-8l-14-3-10-2-10-4z" fill="#95928F"/>
<path transform="translate(364,817)" d="m0 0 3 1 4 12 1 5 3 1 2 5-1 5-3-4-7-15-2-6z" fill="#8E8C8A"/>
<path transform="translate(724,125)" d="m0 0 4 1-1 7-3 5-3 3-2-9-1-5z" fill="#524F51"/>
<path transform="translate(397,878)" d="m0 0 3 1 2 4v3l4 2 3 5 5 8 1 4 2 2 1 5h-3l-3-7-5-10-3-3-7-11z" fill="#282A37"/>
<path transform="translate(376,846)" d="m0 0 4 2 4 7 3 8 2 2v3h2v6l-4-4-8-15z" fill="#94918E"/>
<path transform="translate(301,557)" d="m0 0 10 1 9 2 13 2 15 3v2l-37-6-13-2z" fill="#7A7776"/>
<path transform="translate(633,283)" d="m0 0 3 3-4 4-11 5-1-4 5-5z" fill="#FDFDFD"/>
<path transform="translate(286,357)" d="m0 0 3 1-1 8-3 2-2-1v-2l-6 1-1 2 1-5 1-3z" fill="#FFFCF1"/>
<path transform="translate(651,385)" d="m0 0h11l1 4-7 3-7-1-1-2 1-3z" fill="#FDFDFD"/>
<path transform="translate(893,543)" d="m0 0h2l2 16v21l-3 10-3 1 3-11 1-3v-16l-2-9z" fill="#73706F"/>
<path transform="translate(648,590)" d="m0 0 2 4 5 5 9 5-4 1h-5l-6-2v-2l-2-1v-7z" fill="#323440"/>
<path transform="translate(744,656)" d="m0 0 10 1 9 2 20 3v2l-17-1-22-6z" fill="#757272"/>
<path transform="translate(861,644)" d="m0 0 2 2-14 7-15 5h-5l1-3 9-2 3-2 6-1 4-2z" fill="#282A37"/>
<path transform="translate(680,630)" d="m0 0 7 2 11 5 9 4-2 2-9-3v-2l-12-2h-3v-2l-3-1h2z" fill="#242123"/>
<path transform="translate(281,445)" d="m0 0 2 1-2 2-2 8 7 1-3 2h-6l-6-3 6-7z" fill="#FAF7EC"/>
<path transform="translate(404,670)" d="m0 0 1 3-5 11-7 10-3 1 2-5 8-14 2-5z" fill="#605D5E"/>
<path transform="translate(714,598)" d="m0 0h2v2l4 1-1 5-1 4 2 3-1 4-2 3-2-7z" fill="#252224"/>
<path transform="translate(750,1022)" d="m0 0 1 3-2 5-4 2v2l-12 8-4 4-2 3 1-6 7-6 6-4 5-5z" fill="#DBD8D0"/>
<path transform="translate(684,635)" d="m0 0 9 1 3 2v2l6 1 4 1 2-1v3h-2l1 4-2 2-3-5v-2l-10-3-9-3z" fill="#2A2C38"/>
<path transform="translate(147,493)" d="m0 0h2v2l7 2v2l8 2 10 3v2l-3 1-8-4-8-1-1-3-3 1-1-3h-2z" fill="#272834"/>
<path transform="translate(722,775)" d="m0 0 1 3 3 1 2 15 1 3-3 3-3-13z" fill="#827F7D"/>
<path transform="translate(693,570)" d="m0 0 4 1v2l2 1 1 5 4 9v2l-3 1v-2l-2-2-1-4-3-6v-2l-2-1-1-3z" fill="#242123"/>
<path transform="translate(316,471)" d="m0 0 2 2-2 10-6 9-4 3 2-5 4-8 3-10z" fill="#FFFCF1"/>
<path transform="translate(727,534)" d="m0 0 8 6 5 4h-5l-1 3-5-2-2-4 1-1z" fill="#696666"/>
<path transform="translate(156,497)" d="m0 0 17 4 14 5v1h-7l-8-3-8-2-8-3z" fill="#615E5F"/>
<path transform="translate(284,300)" d="m0 0 2 3 1 5-3 3-13-1 1-2 8-2z" fill="#FFFCF1"/>
<path transform="translate(824,419)" d="m0 0 5 2 7 7 2 1v2l4 2 5 3-1 4-11-10-11-9z" fill="#7B7877"/>
<path transform="translate(764,646)" d="m0 0h4l2 5 5 2 8 1v1h-11l-3-1v-2l-5 2-3-3 2-4z" fill="#272936"/>
<path transform="translate(629,608)" d="m0 0 9 2v2l6 2 7 5-3 1-7-4-9-4-3-3z" fill="#242123"/>
<path transform="translate(672,551)" d="m0 0 4 2 5 10-1 3-3-3-1 3-3-7z" fill="#FFFCF1"/>
<path transform="translate(809,405)" d="m0 0 4 1v2h4l3 3h2l3 8h-3l-5-4-7-8z" fill="#414047"/>
<path transform="translate(741,975)" d="m0 0h2l1 14h2l2 15v5l-2-3-2-5-2-17z" fill="#A9A6A2"/>
<path transform="translate(304,420)" d="m0 0h2l-1 7-5 6-8 6-3 3-2-1 12-12 4-6z" fill="#908D8A"/>
<path transform="translate(127,376)" d="m0 0h2v4l-4 1-2 4-5 5-4 2-2 4-3 1 2-4 13-13z" fill="#5A5759"/>
<path transform="translate(736,910)" d="m0 0h2l1 13v13l-2-2-1-3z" fill="#888583"/>
<path transform="translate(415,647)" d="m0 0h6l14 4 1 3-2 2v-3l-10-1-5-2h-5z" fill="#555253"/>
<path transform="translate(728,1049)" d="m0 0 1 4 2 7 7 3v1l-6 1-4-2-2-10v-3z" fill="#868381"/>
<path transform="translate(911,497)" d="m0 0 3 4 2 5 1 11v18h-1l-2-25-3-8z" fill="#7A7776"/>
<path transform="translate(452,934)" d="m0 0h2l7 25v3h-2l-3-9-4-16z" fill="#FFFCF1"/>
<path transform="translate(629,580)" d="m0 0 3 1 2 5v3l-4 1-4-2v-5h2z" fill="#FFFCF1"/>
<path transform="translate(129,408)" d="m0 0 2 1-8 10-5 12h-1l1-8 5-10h2l1-3z" fill="#827F7D"/>
<path transform="translate(797,403)" d="m0 0h6l1 4v11h-1l-2-6-4-4z" fill="#656262"/>
<path transform="translate(682,279)" d="m0 0 9 1 3 3v5l-5-2-7-6z" fill="#FDFDFD"/>
<path transform="translate(380,1049)" d="m0 0 4 5v2l11 2 8 1v1h-16l-5-3-2-3z" fill="#FFFCF1"/>
<path transform="translate(430,950)" d="m0 0 1 2h2l3 11v15h-1l-2-14-3-11z" fill="#95928F"/>
<path transform="translate(875,641)" d="m0 0 3 1-16 7-7 3 2-4 12-6z" fill="#6A6767"/>
<path transform="translate(704,659)" d="m0 0h1l2 13 1 8-3 1-1 2z" fill="#FFFCF1"/>
<path transform="translate(356,512)" d="m0 0 2 1-2 6-3 4h-2l-1-6 1-2z" fill="#242123"/>
<path transform="translate(669,132)" d="m0 0h5l1 5-2 4-5-3z" fill="#242123"/>
<path transform="translate(719,750)" d="m0 0h2l1 3v22h-1l-2-16z" fill="#AEABA6"/>
<path transform="translate(704,689)" d="m0 0 3 1 3 13-3 2-3-10z" fill="#8E8B88"/>
<path transform="translate(708,507)" d="m0 0 2 1-4 5 2 4 5 5-5-1-5-4-1-4z" fill="#625F5F"/>
<path transform="translate(641,89)" d="m0 0 1 2-3 8-2 12h-1v-14l3-7z" fill="#666363"/>
<path transform="translate(394,96)" d="m0 0m-1 1m-1 1m-2 1h2v15l-2-2-2-5v-6z" fill="#FAF7ED"/>
<path transform="translate(770,658)" d="m0 0 12 1 7 2v1h-14l-5-2z" fill="#282A37"/>
<path transform="translate(276,384)" d="m0 0 4 1-2 4-7 1-1-3 2-2z" fill="#262630"/>
<path transform="translate(411,1016)" d="m0 0 1 2-7 8-11 8-2-1 9-7 8-7z" fill="#FEFCF1"/>
<path transform="translate(453,999)" d="m0 0 2 1-10 16-1-3 4-7 2-5h3z" fill="#827F7E"/>
<path transform="translate(732,696)" d="m0 0 2 4 4 16v4h-2l-2-4v-7l-2-7z" fill="#787677"/>
<path transform="translate(368,498)" d="m0 0 1 2-3 4-2 3h-2l-1 3-3 2v-4l2-1v-4l5-2z" fill="#242123"/>
<path transform="translate(104,482)" d="m0 0 5 3 4 4v3h2l-1 4-10-12z" fill="#9D9A96"/>
<path transform="translate(397,878)" d="m0 0 3 1 2 4v3l4 2 1 5-3-1-7-11z" fill="#272833"/>
<path transform="translate(369,832)" d="m0 0 2 1v2l4 1 2 5-1 5-3-4-4-8z" fill="#969390"/>
<path transform="translate(821,659)" d="m0 0h5l-3 2-15 2-4-1 2-2z" fill="#282A37"/>
<path transform="translate(895,628)" d="m0 0 2 1-8 7-10 5 1-3 7-4h2l1-3z" fill="#696666"/>
<path transform="translate(389,695)" d="m0 0 1 3-3 7-5 3 2-6z" fill="#6A6767"/>
<path transform="translate(648,590)" d="m0 0 2 4 5 5 5 4-5-1-6-4-2-2z" fill="#999692"/>
<path transform="translate(481,72)" d="m0 0h3l4 11 3 6-1 2-4-5-4-12z" fill="#FFFCF1"/>
<path transform="translate(766,1041)" d="m0 0h4l-2 4-5 5v-2l-2-1z" fill="#646469"/>
<path transform="translate(684,635)" d="m0 0 9 1 4 4-2 1-9-3-3-2z" fill="#282A37"/>
<path transform="translate(344,562)" d="m0 0 6 2 1-2 4 5h-7v-2h-6z" fill="#383841"/>
<path transform="translate(294,531)" d="m0 0 8 1 13 4v1h-9l-2-1v-2l-10-2z" fill="#ABA8A3"/>
<path transform="translate(279,312)" d="m0 0 5 1-1 3-8 2 1-5z" fill="#242226"/>
<path transform="translate(680,591)" d="m0 0 3 1-1 5-3 2-4-4 3-1z" fill="#43434B"/>
<path transform="translate(427,993)" d="m0 0 2 4-6 5-4 6v-3l4-6z" fill="#BCB9B3"/>
<path transform="translate(377,841)" d="m0 0 3 1 3 7-3 1v-2l-4-2z" fill="#2E2F3A"/>
<path transform="translate(180,507)" d="m0 0h9v2h3l-1 3-7-2-5-1z" fill="#2D2E39"/>
<path transform="translate(170,501)" d="m0 0 5 1 12 4v1h-7l-8-3v-2z" fill="#A09D99"/>
<path transform="translate(184,371)" d="m0 0h6l-3 2-13 5 1-4 3-2v2z" fill="#6A686B"/>
<path transform="translate(716,585)" d="m0 0h1l2 11v4h-3l-1-7z" fill="#505056"/>
<path transform="translate(427,882)" d="m0 0 3 4 4 7v2l-3-1-5-10z" fill="#8F8C8A"/>
<path transform="translate(818,661)" d="m0 0m-10 1h10l-4 2-11 2 3-3z" fill="#898684"/>
<path transform="translate(755,656)" d="m0 0 9 1 2-1v2l3 1-1 1-9-1-5-1z" fill="#282A37"/>
<path transform="translate(893,543)" d="m0 0h2l1 15-2-3-1-3z" fill="#5E5B5C"/>
<path transform="translate(336,514)" d="m0 0 4 2-1 6-3 2z" fill="#FFFCF1"/>
<path transform="translate(138,483)" d="m0 0 4 2 5 4 2 4-5-2-6-7z" fill="#A29F9B"/>
<path transform="translate(129,473)" d="m0 0 7 6 2 5-7-4z" fill="#616063"/>
<path transform="translate(555,306)" d="m0 0h2l1 6-1 3-3-1v-6z" fill="#FDFDFD"/>
<path transform="translate(415,128)" d="m0 0 1 2h2l-1 3-5 2-2-3z" fill="#242123"/>
<path transform="translate(411,1019)" d="m0 0 1 2-7 8-4-1 8-7z" fill="#504D4F"/>
<path transform="translate(419,872)" d="m0 0 4 1 4 9-4-2z" fill="#858280"/>
<path transform="translate(717,740)" d="m0 0h2l1 10-2 4-1-6z" fill="#8B8886"/>
<path transform="translate(878,637)" d="m0 0h5l-4 4-10 1 4-3z" fill="#292B37"/>
<path transform="translate(456,950)" d="m0 0 1 2h2l2 10h-2l-3-9z" fill="#9B9894"/>
<path transform="translate(378,774)" d="m0 0h1l1 14-2-1-1-3v-8z" fill="#BCB9B3"/>
<path transform="translate(919,585)" d="m0 0 1 4-4 11-2-4h2l1-6z" fill="#56555B"/>
<path transform="translate(134,483)" d="m0 0 5 1 5 7h-4v-2l-2-1-2-2-2-1z" fill="#2C2E3A"/>
<path transform="translate(292,452)" d="m0 0 7 1-3 2-9 2z" fill="#FFFCF1"/>
</svg>
