<?xml version="1.0" encoding="UTF-8"?>
<svg version="1.1" viewBox="0 0 1048 1048" width="262" height="262" xmlns="http://www.w3.org/2000/svg">
<path transform="translate(517,16)" d="m0 0h12l6 4 7 10 8 17 2 2h7l16-8 11-5 9-1 9 3 4 5 1 9-6 33 1 7 3 2 20 2 12 6 7 7 7 8v2l4 2 13 10 16 13 17 12 17 13 13 11 11 9 17 13 14 9 15 9 12 9 10 11 9 11 27 27 8 7 16 17 13 19 18 20 9 13 7 16 4 17v39l-5 16-10 15-10 9-14 7-15 3-10 1h-57l-11 1-8 9-12 7-1 1-1 11v11l5 5 13 3 1 5-8 7-14 8-12 10-8 14-4 5-8 21-4 7-3 13-6 12h-2v-3l-2-1-1 4-5 1v2l-11 7-10 8-2 1v9l4 10 6 11 5 5 19 6 10 3 23 8 16 8 10 8 7 7 9 11 9 13 9 17 4 13 1 5v15l-5 13-9 15-13 15-7 7-20 15-13 8-9 7-6 7-1 5 7 6 21 11 7 3 16 2 11 7 7 8 1 2v7l-5 8-3 2-11 1-17-4-17-8-8-5-11-6-11-7-7-7-4-11v-13l4-15 6-9 9-10 20-12 12-8 12-11 9-12 6-12v-15l-4-10-20-30-7-8-9-6-8-4-13-5-14-7-13-4-22-6-13-6-9-2-14-7h-4l2 10 5 14 1 8h-5l-11-12-7-7-6-3h-8l-14 3-5 3 2 8v11l-3 9h-4l-12-14-6-5-6-2h-8l-12 2-3 10-11-3-19-5h-8l-6 7-5 8-1 5 10 13 12 18 10 13 12 15 10 17 3 8 2 10 2 6v11l-7 13-8 10-11 11-9 7-12 11-15 14-8 7-9 10-7 7-8 10-2 3v7l4 4 13 5 24 7 10 5 4 4 2 7-2 7-5 5-6 2h-12l-33-14-10-6-11-10-6-10v-15l5-10 11-13 11-11 9-11 10-11 8-7 12-11 10-8 11-10 8-7 4-8-1-11-5-13-8-13-10-13-9-12-15-24-12-14-8-8-11-8-14-11-5-1-1 4-4 1-2-11-7-9-10-7h-6l-6 7-7 9-8 9h-6l-1-1 1-10 7-13 9-11-1-4-7-7-7-11-7-8-5 1-8 7-7 9-13 13-5 3h-4l-1-9 3-6 11-13 8-8 1-4-7-17-4-12-2-1-2 5-11 14-12 16-4 4h-4v-9l4-13 3-6 8-11 2-6 1-20 1-4-11 4-17 10-28 17-16 10-12 7-26 10-34 9-6 1-22 1-15-1-12-5-9-7-4-7-4-10-5-31-1-20-1-11 3-23 7-27 8-25 7-19 8-16 7-15 7-14 8-14 6-8 12-15 12-19 11-13 18-20 11-13 15-15 8-7 26-26 11-9 22-22 11-9 8-8 11-9 7-7 11-9 7-7 8-7 10-9 8-7 14-10 10-8 12-10 5-4 6-9 2-8v-40l6-10 8-5h30l6-3 6-8 9-17 6-8 10-7zm108 123-9 6-15 14-4 7-1 4-1 47-5 10-5 2h-8l-9-2-8-7-8-5h-9l-17 10-5 4-1 2v11l5 10 3 2 10 1 8-6 5 1 8 6 5 3h11l10-8 2-1 16-2-3 9-1 5v11l6 3 6 1h10l8-7 9-11 7-11 11-13 7-8 10-4-2 8-20 34-8 10-3 5 3 9h25l10 2 5 12 6 14 5 7 7 4 6-2 11-8 14-11 15-8 7-2v5l-5 8v2l-4 2-15 14-10 9-6 9-1 5 5 3 11 9 11 2-1 7-2 8v7l2 3 6-1 18-10 8-5 4-1-7 10-7 7-8 7-5 5 2 11 6 29 3 5 12 3 6 2 40 1 18 1 9-1 26-1 10-3 8-7 8-11 1-3v-12l-3-36-4-9-10-14-9-12-12-15-10-14-11-11-11-9-33-33-7-8-10-9-24-14-12-9-15-12-13-10-10-9-8-7-14-11-19-13-11-7-12-9-12-6zm-213 38-14 10-11 9-8 7-8 8-8 7-10 9-10 8-10 9-11 9-7 7-5 6-11 8-14 14-8 7-7 7-7 8-18 18-7 8-15 15-9 11-11 11-22 33-9 13-11 18-18 40-8 19-8 24-3 10-2 24-2 5v11l2 9 2 20 4 15 7 8 7 3h9l16-4 15-2 25-6 26-11 30-15 10-8 13-12 10-10 4-11v-18l-2-16-4-1-12 9-13 10-16 12-8 3-1-8 4-5 16-12 13-11 10-8 5-6 4-14v-20l-2-7-3-3h-8l-15 4-7 3-5 1 1-4 15-8 27-10 4-2 4-9 8-8 3-6v-3l-3-1h-24l-3 2-21 1-4-2v-5l2-4h30l7-2 7-8 2-5-1-13-4-6-12-11-1-2v-6l23 10 4-1 10-13 6-7 4-8 4-16v-7l-6-10-10-12-2-4v-3l5-1 13 8 12 12 6 2 11-3 20-8-1-7-3-13-2-12 5 1 4 4h2l2 6 7 12 5 4 7-2 8-14 8-7 1-2v-10l-4-20-2-11-1-8 4 2 4 5 6 12 4 16 2 13 5 5 7 3 7-1 5-5 2-6 1-16v-17l-2-9-4-6-9-6-11-4-10-7-14-6-9-3zm96 58-1 7v6l-5-4-5 2-7-1 2 7 5 7 5-5 6-2 3-6v-9zm165 432 4 8 5 2-1-6-5-4z" fill="#242633"/>
<path transform="translate(517,16)" d="m0 0h12l6 4 7 10 8 17 2 2h7l16-8 11-5 9-1 9 3 4 5 1 9-6 33 1 7 3 2 20 2 12 6 7 7 7 8v2l4 2 3 3-5-1-4-2-1-2-5 1-8 11-5 4-2 5-7 1-9 7-12 11-4 7-1 4-1 47-5 10-2 2-4 1h-8l-9-2-8-7-8-5h-9l-17 10-5 5-1 10h-1v-6l-6 3-1 13-3 3-8 3-2 3-4-1-4-6-3-6v-2l-4-2-5-7-1-6h-2l-2-18-4-8-9-6-11-4-10-7-14-6-14-4-2-7-2-2-1-6 1-10h-6l5-5 8-7 10-8 6-9 2-8v-40l6-10 8-5h30l6-3 6-8 9-17 6-8 10-7zm-9 219-1 7v6l-5-4-5 2-7-1 2 7 5 7 5-5 6-2 3-6v-9z" fill="#95C8F7"/>
<path transform="translate(401,152)" d="m0 0h7v11l2 6 2 3v6l-14 10-11 9-8 7-8 8-8 7-10 9-10 8-10 9-11 9-12 13-11 8-14 14-8 7-16 17-15 15-7 8-15 15-9 11-11 11-22 33-9 13-11 18-18 40-8 19-8 24-3 10-2 24-2 5v11l2 9 2 20 4 15 7 8 6 2h9l16-4 15-2 25-6 26-11 30-15 10-8 13-12 9-9 4-11v-18l-2-16-5 1-16 13-11 8-12 9-8 3-2-4 1-7 8-7 17-13 13-11 7-6 4-9 2-8v-20l-2-7-2-2h-8l-15 4-7 3h-5l1-5 15-8 27-10 4-1 1-6 7-8 4-5 3-7h-27l-3 2-21 1-5-3v-5l3-4 30-1 7-2 6-7 2-5-1-13-4-6-12-11-1-2v-6l2-1 19 9 6 1 10-13 6-7 4-8 4-16v-7l-3-6 4 1v2l6 2 3 4v2l10 5 1 2v8l-4 7h-2l-1 10-3 9-6 8-3 2-4-2-4 2v2l7 1-1 8-3 3h-2l-3 10-2 3h-2l-2 4-12 7-2 5h9l1 2v7l-6 11h-2l-1 19-3 5-2 8 1 12 1 4-4 9-4 5-3 12 10 1 7 14 2 6-1 7-4 7h-2l-1 3-1 11-4 5-8 8 1 4-3 3 4 2-1 3 4 2 3 3-1 2 7-1v2l-15 8-13 8-23 14-16 10-12 7-26 10-34 9-6 1-22 1-15-1-12-5-9-7-4-7-4-10-5-31-1-20-1-11 3-23 7-27 8-25 7-19 8-16 7-15 7-14 8-14 6-8 12-15 12-19 11-13 18-20 11-13 15-15 8-7 26-26 11-9 22-22 11-9 8-8 11-9 7-7 11-9 7-7 8-7 10-9 8-7 14-10z" fill="#252223"/>
<path transform="translate(647,118)" d="m0 0 4 1v2l10 3 28 22 14 10 17 13 13 11 11 9 17 13 14 9 15 9 12 9 10 11 9 11 27 27 8 7 16 17 13 19 18 20 9 13 7 16 4 17v39l-5 16-10 15-10 9-14 7-15 3-10 1h-57l-11 1-8 9-12 7-1 1-1 11v11l5 5 13 3 1 5-8 7-14 8-12 10-8 14-4 5-8 21-4 7-3 13-6 12h-2v-3l-2-1-1 4-5 1v2l-11 7-10 8-2 1v9l4 10 6 11 5 5 19 6 10 3 23 8 16 8 10 8 7 7 9 11 9 13 9 17 4 13 1 5v15l-3 9h-1l-2-20-2-14-5-12-7-13-5-5-2-4-3-4v-2l-3-1-7-10-3-3-10-5-7-3-12-5-17-5-6-3-9-3-14-3-22-7-11-3-10-3-8-7-3-4v-6l9-2 6-2v-2l5-1 4 1v2l6 2 2 3h-2l3 4h3v-8l-3-3v-12l2-12 2-1 2-7 4-5 5-2 11 2v-2l2-1v-21l4-12 3-8 2-4 20-3 4-1v-5l-4-2-9-5-4-2 1-7 1-2h2l1-2 17 1 18-1 11-3 4-2-2-3-14-4-16-1-12-4-3-2v-2l-4-2-2-8v-8l5-6 6-2h12l6-2-1-4-4-3v-2h-9l-4-3 1-7 4-4 17 1 2-2 7 2-1-1-1-3-6-1-7-3 1-6-2-1v-2l-5-1-3-2v-11l-9-2-5-2-1-5 3-5-1-7 6-9 1-5-1-3h-4l-5-10v-7l2-2 1-5-7 2-7-1-5-4v-2l-5-2-1-7-1-9 3-7 6-5 2-3h2v-2l8-7 4-1-4 5-6 5-6 9-2 5 4 1 10 9 5 2 8 1 1 5-3 11v7l1 2 6-1 18-10 8-5h4l-2 5-9 10-13 12-2 2 2 11 6 29 2 4 12 3 6 2 40 1 18 1 9-1 26-1 10-3 8-7 7-10 1-3v-12l-3-36-4-9-10-14-9-12-12-15-10-14-10-10-11-9-34-34-7-8-9-8-24-14-12-9-15-12-13-10-10-9-8-7-14-11-19-13-11-7-12-9-9-5-1-3 6-7 5-5 5-7zm26 549 4 8 5 2-1-6-5-4z" fill="#242122"/>
<path transform="translate(517,16)" d="m0 0h12l6 4 7 10 8 17 2 2h7l16-8 11-5 9-1 9 3 4 5 1 9-6 33 1 7 3 2 20 2 12 6 7 7 7 8v2l4 2 3 3-5-1-6-6h-5v-2l-4-4v-2l-16-8-9-1-10 2-16 12h-2l-1 3-7 4-15 9-7-1-2-7-3-11-5-4-6 2-2 1-4 8-3 7-3 5-4 3-7-1-2-1v-2h-2l-5-5-5 2-6 5-27 9-14 2-9 5-6 5-5 9-1 7-4 2-5-1-6 1-8-4v-6l3-13-3 1-1 5-2-4h-2v2h-5l5-5 12-10 5-4 6-9 2-8v-40l6-10 8-5h30l6-3 6-8 9-17 6-8 10-7z" fill="#BEDEFB"/>
<path transform="translate(461,412)" d="m0 0h10l12 1 9 6 7 7 6 10 1 3 4 2 5 16 1 9v10l-2 13-3 15-6 14-9 11h-2l-2 4-11 9-12 4-16 4-10-1-15-5-8-6-10-16-7-25 1-9 2-5v-16l4-11 13-25 10-10 12-7 3-1z" fill="#FCFCF4"/>
<path transform="translate(400,682)" d="m0 0 4 1 5 2v2l4 1 6 1 2 3 5-1 9 4 2 3-1 5 4-1 9-1-4-8 1-2h2v-2l7-1 6 4 10 5 9 3v2h3v2l2 1 1 6-1 5h2v-5l6 1 5-3 3-2 4-3 19-4 7 3 4 9v4l3-1 4-7 3-4 12-2h14l8 5 3 10 3 3 6 1v-7l-1-7v-10l4-6 6-2 10-3 8-1 7 4 7 9v2l4 2 5 5 3 1-2-7 3-1 3 8 1 8h-5l-11-12-7-7-6-3h-8l-14 3-5 3 2 8v11l-3 9h-4l-12-14-6-5-6-2h-8l-12 2-3 10-11-3-19-5h-8l-6 7-5 8-1 5 10 13 12 18 10 13 12 15 10 17 3 8 2 10 2 6v11l-7 13-8 10-11 11-9 7-12 11-15 14-8 7-9 10-7 7-8 10-2 3v7l4 4 13 5 24 7 10 5 4 4 2 7-2 7-5 5-6 2h-12l-33-14-10-6-11-10-6-10v-15l5-10 11-13 11-11 9-11 10-11 8-7 12-11 10-8 11-10 8-7 4-8-1-11-5-13-8-13-10-13-9-12-15-24-12-14-8-8-11-8-14-11-5-1-1 4-4 1-2-11-7-9-10-7-5-1z" fill="#262425"/>
<path transform="translate(592,383)" d="m0 0 21 2 7 4 9 7 10 9 4 4 7 9 4 5 5 10 3 11v14l-3 16-5 11-7 8-8 7-13 6h-41l-12-7-11-8-6-8-5-9-6-20-2-8v-26l3-7 4-8 2-7 6-5 7-3 8-5 14-1z" fill="#FBFCF4"/>
<path transform="translate(650,673)" d="m0 0h4v2l13 2 9 3 20 6 14 4 10 2 9 4 16 5 9 4 6 2 9 4 9 5v2l3 1 7 10 4 4 4 6 2 5 3 1 9 17 3 8 3 22v14l-9 16-9 10-7 8-10 9-19 14-12 7-10 9-3 5 1 4 8 6 19 10 7 3 16 2 11 7 7 8 1 2v7l-5 8-3 2-11 1-17-4-17-8-8-5-11-6-11-7-7-7-4-11v-13l4-15 6-9 9-10 20-12 12-8 12-11 9-12 6-12v-15l-4-10-20-30-7-8-9-6-8-4-13-5-14-7-13-4-22-6-13-6-9-2-11-6 2-2 6-2-1-4-5-3z" fill="#242122"/>
<path transform="translate(340,299)" d="m0 0 4 1v2l6 2 3 4v2l10 5 1 2v8l-4 7h-2l-1 10-3 9-6 8-3 2-4-2-4 2v2l7 1-1 8-3 3h-2l-3 10-2 3h-2l-2 4-12 7-2 5h9l1 2v7l-6 11h-2l-1 19-3 5-2 8 1 12 1 4-4 9-4 5-3 12 10 1 7 14 2 6-1 7-4 7h-2l-1 3-1 11-4 5-14 14-10 8-6 8-9 6-9 7-9 2-4 4h-3v2l-15 6-4 3-11 4-17 5-11 2-28 5h-16l-7-1-6-5-4-12-1-11 2 4 4 13 6 6 6 2h9l16-4 15-2 25-6 26-11 30-15 10-8 13-12 9-9 4-11v-18l-2-16-5 1-16 13-11 8-12 9-8 3-2-4 1-7 8-7 17-13 13-11 7-6 4-9 2-8v-20l-2-7-2-2h-8l-15 4-7 3h-5l1-5 15-8 27-10 4-1 1-6 7-8 4-5 3-7h-27l-3 2-21 1-5-3v-5l3-4 30-1 7-2 6-7 2-5-1-13-4-6-12-11-1-2v-6l2-1 19 9 6 1 10-13 6-7 4-8 4-16v-7z" fill="#4B494D"/>
<path transform="translate(743,467)" d="m0 0 16 1 8 2 14 1 9 3 14 1-2 2-11 1-8 9-12 7-1 1-1 11v11l5 5 13 3 1 5-8 7-14 8-12 10-8 14-4 5-8 21-4 7-3 13-6 12h-2v-3l-2-1-1 4-5 1v2l-11 7-10 8-2 1v9l4 10 6 11 5 5 19 6 10 3 23 8 16 8 10 8 7 7 9 11 9 13 9 17 4 13 1 5v15l-3 9h-1l-2-20-2-14-5-12-7-13-5-5-2-4-3-4v-2l-3-1-7-10-3-3-10-5-7-3-12-5-17-5-6-3-9-3-14-3-22-7-11-3-10-3-8-7-3-4v-6l9-2 6-2v-2l5-1 4 1v2l6 2 2 3h-2l3 4h3v-8l-3-3v-12l2-12 2-1 2-7 4-5 5-2 11 2v-2l2-1v-21l4-12 3-8 2-4 20-3 4-1v-5l-4-2-9-5-4-2 1-7 1-2h2l1-2 17 1 18-1 11-3 4-2-2-3-14-4-16-1-12-4-3-2v-2l-4-2-2-8v-8l5-6 6-2h12l6-2-1-4-4-3v-2h-9l-4-3 1-7zm-70 200 4 8 5 2-1-6-5-4z" fill="#4E4D50"/>
<path transform="translate(517,16)" d="m0 0h12l6 4 7 10 8 17 2 2h7l16-8 11-5 9-1 9 3 4 5 1 9-6 33 1 7 3 2 20 2 12 6 7 7 7 8v2l4 2 3 3-5-1-6-6h-5v-2l-4-4v-2l-16-8-12-2-12-1-3-24-3-5-1-9-4-1-1-3-7-2-13 5-4 2h-7l-9-3-11-8-7-5h-17l-8 7-9 12-10 6-9 3-19 1-10 3-4 9-1 8-1 25-3 6-7 8-5 5-5 4-3 3-6 3-1 5-2-4h-2v2h-5l5-5 12-10 5-4 6-9 2-8v-40l6-10 8-5h30l6-3 6-8 9-17 6-8 10-7z" fill="#D0E4F3"/>
<path transform="translate(429,206)" d="m0 0 4 2 5 6 6 12 4 16 2 13 4 4 7 3 7-1 4-4 2-6 1-16 1-5h2l4 9 4 5 4 4 5 10 4 1 4-4 7-3 1-1 1-13 4-3h3l2 7 5 10 7 2 7-1 6-5 5 1 8 6 5 3h11l10-8 2-1 16-1-2 9-1 5v11l5 2 6 1h10l8-7 8-10 7-11 11-13 7-8 8-4h3v6l-9 16-8 13-4 7h-3l1-5 4-4 3-5 6-9-8 1-7 8-4 5h-2l-2 7-3 5h-3l-4 8-4 7-6 4-4 4h-2v2l-5-1-2-4-6-2-5-5-4-5-6 2-5 4-6-1-3-5-2-7-4 1-10-5-3-5v-2l-4-1-4-2h-2l-1 4-3 3-10 2-6-2v-4l-4-2-1-6v-4l-3-4-3 15-3 3-8 2-2 5-4-2-6-9-3-3v-2h-2l-6-8-1 4 4 11-1 8-2 3-7 3-9 4-4-1-4-7v-2h-2l-6-7v-2l-4 1h-2l2 9-1 5-4 4-4 2-7 1-4 4h-2l-2 3h-6l-8-7-3-4v-2h-2v-2h-2v-2l-5-2-1 8-2-4-3-18 6 1 4 3v2h2l8 15 4 5 4 1 5-2 6-12 9-8 1-2v-10l-4-20-2-11-1-8z" fill="#514F52"/>
<path transform="translate(728,327)" d="m0 0 3 1-10 9-6 9-2 5 4 1 10 9 5 2 8 1 1 5-3 11v7l1 2 6-1 18-10 8-5h4l-2 5-9 10-13 12-2 2 2 11 6 29 2 4 12 3 6 2 40 1 18 1 9-1 26-1 10-3 8-7 1 4-7 6-8 4-29 2-6 1h-24l-47-2-8-3-10-2-5-3v-11l-9-2-5-2-1-5 3-5-1-7 6-9 1-5-1-3h-4l-5-10v-7l2-2 1-5-7 2-7-1-5-4v-2l-5-2-1-7-1-9 3-7 6-5 2-3h2v-2l8-7z" fill="#484649"/>
<path transform="translate(743,467)" d="m0 0 16 1 8 2 14 1 9 3 14 1-2 2-11 1-8 9-12 7-1 1-1 11v11l5 5 13 3 1 5-8 7-3 1 2-6-7-3-11-2-13-1-12-4-3-2v-2l-4-2-2-8v-8l5-6 6-2h12l6-2-1-4-4-3v-2h-9l-4-3 1-7z" fill="#454347"/>
<path transform="translate(647,118)" d="m0 0 4 1v2l10 3 28 22 14 10 17 13 13 11 11 9 17 13 14 9 15 9 12 9 10 11 9 11 27 27 8 7 16 17 13 19 18 20 9 13 7 16 4 17v39l-5 16-2-3 1-7v-51l-2-7-1-2 1-2h-2l-3-8-8-14-7-8v-2h-2v-2h-3l-2-6h-2l-9-13v-2l-3-1-1-5-12-12v-2l-4-2v-2l-4-2v-2l-4-2-13-10-12-13v-2l-4-2-4-6v-2l-3-1-6-8-1-3-9-9-7-3-2-3-5-1-16-8-5-4v-2l-4-1-8-5v-2l-5-2-1-3-6-2-14-13-10-8v-2l-4-1-3-3-8-5v-2l-5-2-2-3-9-5v-2l-5-2-6-4v-2l-4-2-6-7-5-1-7-2v-2h-2v-2h-2l-4 8-8 5v4l10 6 9 7 11 5 8 8h-4l-17-11-12-9-9-5-1-3 6-7 5-5 5-7z" fill="#5E5D5F"/>
<path transform="translate(429,206)" d="m0 0 4 2 5 6 6 12 4 16 2 13 4 4 7 3 7-1 4-4 2-6 1-16 1-5h2l4 9 4 5 4 4 5 10 4 1 4-4 7-3 2-6h1v8l-2 5-10 3-2 5-4-2-6-9-3-3v-2h-2l-6-8-1 4 4 11-1 8-2 3-7 3-9 4-4-1-4-7v-2h-2l-6-7v-2l-4 1h-2l2 9-1 5-4 4-4 2-7 1-4 4h-2l-2 3h-6l-8-7-3-4v-2h-2v-2h-2v-2l-5-2-1 8-2-4-3-18 6 1 4 3v2h2l8 15 4 5 4 1 5-2 6-12 9-8 1-2v-10l-4-20-2-11-1-8z" fill="#4B4B50"/>
<path transform="translate(645,268)" d="m0 0 4 1-7 9-1 4 2 7 7-1h18l10 2 3 5 8 20 5 8 7 4 6-2 11-8 14-11 15-8 7-1 1 5-2 1v-2l-6 2-5 5-5 3-8 1-2 4-7 6h-2l-1 2-2-1-1 3h-2v2h-2l-2 5-5 3h-7l-7-3v-2h-4v-3l-4-2v-14l-4-3-6-1-5-3h-6l-8-3v2l-5-1-10-4-2-4-1-6 3-13 5-5z" fill="#525053"/>
<path transform="translate(517,16)" d="m0 0h12l6 4 7 10 8 17 2 2h7l16-8 11-5 9-1 9 3 4 5 1 9-2 12-2-3-4-10-2-4-6-1-16 3-13 4h-9l-8-4-3-3-6-12-1-3-5-2-7-4-7 1-6 2-8 5h-2l-2 4-2 3h-2l-1 5-3 6-3 2-5 10-3 3-7 2-7-1-10 2h-10l-9-1 1-3 8-5h30l6-3 6-8 9-17 6-8 10-7z" fill="#FEFEF4"/>
<path transform="translate(466,408)" d="m0 0 18 3 9 6 4 4v2l4 2 5 9v2h2l5 7 5 15v25l-4 21-3 7-2 7-4 6-7 7-6 7-13 9-17 4-7 2h-8l-18-5-12-8-7-12-4-11-3-12-2-5v-10l2-6v-12l2-11 10-21 6-12 5-5 7-5 14-7 11-2zm-5 4-13 1-8 4-9 6-8 8-15 29-2 7v16l-3 8 1 10 7 23 7 11 5 6 10 5 14 4 11-1 17-5 9-4 10-9v-2h2l9-11 6-14 4-18 1-10v-10l-2-12-4-13-4-2-2-4-6-10-8-8-7-4-12-1z" fill="#434145"/>
<path transform="translate(364,317)" d="m0 0h1l1 7-4 13-2 3h-2l1 3-5 12-2 4-1 11-8 11-3 4-3 10-3 5-4 10-9 15-1 2-1 20 1 5 1 3 3 1 2 6-3 8h-2l-2 6-5 5h-2l-1 3h-3l-1 4-3 1 1-4 4-5 3-9-2-11 1-9 3-7 1-1 1-16 1-3h2l2-6 3-5v-7l-1-1h-8l-1-2 3-5 12-7 2-3h2l2-6 3-7 4-1 2-10h-7v-4l5-2 4 2 5-6 4-8 3-14h2l2-4z" fill="#2B2D37"/>
<path transform="translate(613,685)" d="m0 0 8 1 5 5 6 7v2l4 2 5 5 3 1-2-7 3-1 3 8 1 8h-5l-11-12-7-7-6-3h-8l-14 3-5 3 2 8v11l-3 9h-4l-12-14-6-5-6-2h-8l-12 2-3 10-11-3-19-5h-8l-4 3v-5l2-2 4-3 19-4 7 3 4 9v4l3-1 4-7 3-4 12-2h14l8 5 3 10 3 3 6 1v-7l-1-7v-10l4-6 6-2 10-3z" fill="#555458"/>
<path transform="translate(592,379)" d="m0 0 11 2 13 3 5 3 8 6v2l5 1 5 6 5 4 5 8 5 5 7 13 4 17-1 11-4 17-4 10-4 6-7 5-5 5-12 5-5 1h-39l-11-6-9-6-7-5-9-15-3-11-4-13v-36l7-14 3-7 6-5 6-3 4-3 5-2 15-1zm0 4-5 1-14 1-11 7-7 3-4 5-2 7-5 9-1 4v26l2 8 7 22 8 13 6 5 10 7 9 5h41l16-8 11-11 5-10 2-7 2-15v-11l-4-13-6-11-8-9-2-4-8-7-12-10-6-3-3-2z" fill="#434145"/>
<path transform="translate(748,301)" d="m0 0h5l-1 6-3 5-11 9-6 6-5 2-6 6h-2v2l-8 7-3 5-1 4 1 15 5 2 5 5 7 2-2 2h-9l-2-3-6-2-3-2 1-7v-9l-1-2 4-9-3-1-2-5h3-4l-5 1-4 1-1 3-7 2-3-1v-2l-5-2-3-4 1-4 3-3h2l1-7 5 5v3h4l1 2 6 2h7l5-3 2-4h2v-2l3-3 5-2 8-7 3-3 8-2 6-4z" fill="#312E2E"/>
<path transform="translate(347,536)" d="m0 0h6l-1 5-6 7-5 5-4 8-8 6-9 4 6 1-3 1v2l-7 4-2 1v-2l-8 2 1-4-6-4v-3l-6-2 4-2v-2l1-4 11-9 2-1-1 4-1 2 8-4 5-3 3-2 9-2 1-2 6-3z" fill="#24252B"/>
<path transform="translate(328,274)" d="m0 0 5 1 11 7 12 12 6 2 11-3 18-7h2l-2-10 5 5v2h2l2 5-1 6-6 4-6 3h-2l-1 10-2 2h-6l-9-5-10-5-7-4-1-5-4-1-2-3h-4v6l-5-5-7-8-2-4 1-4z" fill="#504E51"/>
<path transform="translate(455,455)" d="m0 0 6 2 4 5 2 4v16l-4 6-7 5h-9l-5-2-6-10v-10l6-8 8-6z" fill="#24252B"/>
<path transform="translate(617,655)" d="m0 0 5 2 4 7 5 4 9 5-1-1-2-4 3-2h3v2l6 2 3 3v2l7 3-5 5-7 2-6-1 2 10 1 7v4 3l-4-1-10-10-6-8-1-4 2-1-2-4-7-13v-11z" fill="#26272D"/>
<path transform="translate(576,430)" d="m0 0h8l7 5 4 11v5l-8 9-2 1h-15l-4-4-2-5v-7l5-10z" fill="#24252C"/>
<path transform="translate(295,587)" d="m0 0 4 1-13 8-23 14-16 10-12 7-26 10-34 9-6 1-22 1-15-1-12-5-6-5v-1h5l3 2 9 3 1 1h35l27-6 20-6 11-4 8-3 14-8 16-9 3-1v-2l8-4h3v-2l7-4z" fill="#555458"/>
<path transform="translate(450,688)" d="m0 0 7 1 9 6 14 5v2h3v2l2 1 1 6-2 10-1 1h-5l-9-4-8-7-10-7-3-6-3-3 1-4h2v-2z" fill="#2C2E38"/>
<path transform="translate(720,516)" d="m0 0 1 2 10 4 11 4 30 2 7 3 1 3-4 3-11 3h-10l-18-1-4-2v-2l-2-1 1-1-10-3-4-3-7-2-1-4 2-2 4 1 5 2-2-5z" fill="#24252B"/>
<path transform="translate(739,890)" d="m0 0 14 8 19 9 16 2 11 7 7 8 1 2v7l-5 8-3 2-11 1-17-4-17-8-8-5-11-6-6-4 1-2 23 11 20 8 9 3 6 1 3 1 8-1 3-1 1-2v-9l-5-7-5-3-9-1-10-2-6-1-9-4-8-5-10-7-3-2z" fill="#757578"/>
<path transform="translate(323,574)" d="m0 0 5 1 1 9v9l-5 8-3 5-6 16 7 3-6 9-9 11-3 3h-4v-9l4-13 3-6 8-11 2-6 1-20 1-4-3-1z" fill="#504E52"/>
<path transform="translate(572,668)" d="m0 0h4l4 14 4-6h2l1-2v7l-1 4h2l2 8 1 18 1 6-1 4h-6l-5-6-3-10-5-8-1-4 2-6-1-9-1-1v-8z" fill="#23242A"/>
<path transform="translate(634,285)" d="m0 0 1 4 1 2 1 7 15 6v-2l6 1 7 1 5 2 5 3-4 8h-3v2l-6 4-8 1-4-2v-2l-5-1-1-6-5-2-2-4-6-3v-8z" fill="#2B2D37"/>
<path transform="translate(401,152)" d="m0 0h7v11l2 6 2 3v6l-7 4 2-6-1-6-3-12-9 6h-3v2l-9 7-3 1v2l-8 6-5 2v2l-8 7-6 5h-3v3h-2l-2 4-4 1-2 4-5 5-11 9-3 3h-2l-1 3-6 3-8 9-4 1-7 7-2-1 13-13 11-9 8-8 11-9 7-7 11-9 7-7 8-7 10-9 8-7 14-10z" fill="#545357"/>
<path transform="translate(436,252)" d="m0 0 4 4 2 11-1 5-4 4-4 2-7 1-4 4h-2l-2 3h-6l-8-7-3-4v-2h-2v-2h-2v-2l-5-2-1 8-2-4-3-18 6 1 4 3v2h2l8 15 4 5 4 1 5-2 6-12 9-8z" fill="#4A494C"/>
<path transform="translate(720,565)" d="m0 0h18v1l-20 3-3 10-4 10-1 3v21l-3 1v2l-11-1-5 2-4 6-2 6h-2l-2 20h-1l-2-10-4-8 1-10 3-7 4-3 12-3 10 5h4l-1-9-3-12v-6l3-6 4-4 2-6 3-3z" fill="#2C2E38"/>
<path transform="translate(656,640)" d="m0 0 5 1 7 5 4 7h-9v2l-6 3-9 1 2 8 5 4 4 5-5-1v-2l-5-2-6-3-2-2-6-2v-2h-2l-3-5 3-10h5l6 3h3l3-7 4-2z" fill="#2B2D37"/>
<path transform="translate(362,641)" d="m0 0h5l9 4 3 2 5 11 1 4h2v2l4 1 1 3h2l-1 9-2 4-7 6-2 7 1 6 5-5 6-7 2 1-9 12-9 10h-6l-1-1 1-10 7-13 9-11-1-4-7-7-7-11-7-8-5 1-2 1 2-6z" fill="#525053"/>
<path transform="translate(400,682)" d="m0 0 4 1 5 2v2l4 1 6 1 2 3 5-1 9 4 2 3-1 5 4-1 8-1 3 1v2l4 2 10 7 3 6-1 2-8-4v-2l-10-2v-2l-3 1-3-3h-4l5 5 3 2v2l-4-2-9-7-5-1-1 4-4 1-2-11-7-9-10-7-5-1z" fill="#24262C"/>
<path transform="translate(429,206)" d="m0 0 4 2 5 6 6 12 3 10v12l-2 9h-4l-5-5-5-26-2-11-1-8z" fill="#252223"/>
<path transform="translate(646,123)" d="m0 0h2v2h2v2l7 1 6 2 7 8 2 1v2l4 2-2 1 3 3 2 3-6-2-1-3-6-2-3 1-1-2-3 1-2 1-15-2v2l-6-2-3-2 1-5 6-4h2l2-5z" fill="#24252A"/>
<path transform="translate(658,241)" d="m0 0 5 1-2 4-8 12-3 4 1 5-7 3-5 4-4 11-1 3h-4l-2 5-4-1-4-2 2-3h2l2-6 3-5 5-9 3 1 2-5 3-7 5-5 5-6h2l1-3z" fill="#232021"/>
<path transform="translate(487,728)" d="m0 0h4l1 5 9 11 12 18 10 13 12 15 10 17 3 8 2 10 2 6v11h-2l-2-9-3-10h2v-5l-3-1-2-10-1-4-3-1-4-4-2-9-6-1-7-8-3-7-6-4v-3h-2l-3-5v-2l-4-4-3-9-5-6v-2h-3l-3-6z" fill="#59575A"/>
<path transform="translate(334,608)" d="m0 0h3l3 8 2 7 5 5 4 3 1 9-6 8-5 5-3 2v5l5 3 1-3 4 1-15 15-5 3h-4l-1-9 3-6 11-13 8-8 1-4-7-17-4-12z" fill="#545255"/>
<path transform="translate(168,381)" d="m0 0 2 4-6 8-2 2-3 5-5 6-4 9-4 6-6 12-5 13h-2l-1 5-1 3h-2l-1 4-4 8-6 16-3 10-3 3-2 7h-2l2-9 7-20 5-13 8-16 6-13 7-14 8-14 6-8z" fill="#6B6A6B"/>
<path transform="translate(320,422)" d="m0 0 1 3-1 2-1 20 1 5 1 3 3 1 2 6-3 8h-2l-2 6-5 5h-2l-1 3h-3l-1 4-3 1 1-4 4-5 3-9-2-11 1-9 3-7 1-1 1-16 1-3z" fill="#2C2E38"/>
<path transform="translate(551,680)" d="m0 0h6l7 6 5 2 9 18-5-2-2-1h-14l-9 1-3-1 5-8-1-12z" fill="#2C2E38"/>
<path transform="translate(308,390)" d="m0 0 1 3-4 6-6 5v4l-10 2-1 1-21 1-5-3v-5l3-4 30-1 7-2z" fill="#FDFDF4"/>
<path transform="translate(595,673)" d="m0 0h10l15 9 4 5h-3l-8-1-11 4-8 1-2 4-2 2-1-4-1-11 3-6z" fill="#2C2E38"/>
<path transform="translate(274,264)" d="m0 0m-1 1m-1 1m-2 1 2 1-38 38-3 5-8 9h-2l-2 4-5 5-7 9-5 5-3 1-2 5-5 5-11 12-3 7-6 6-2-1 9-14 11-14 12-13 7-8 12-14 15-15 8-7z" fill="#686667"/>
<path transform="translate(732,491)" d="m0 0h23v1l-11 1-9 1-5 3-2 3v8l3 9 2 1v2l15 5 16 1 3 2h-15l-10-1-13-5-5-4v-3l-4-1-2-4-5-2-2-3 1-5 10-1 5-7z" fill="#2C2E38"/>
<path transform="translate(477,242)" d="m0 0 4 4v2l3 1v2h2v2l3 1 1 4-6 1-1 1v12l-4 5h-3l-1 4-2 4-4 2-5-1-9-12 1-3 3 4 9-2 7-4h3l2-11-4-11z" fill="#2C2E38"/>
<path transform="translate(670,658)" d="m0 0h4l4 8 7 6 7 4h3l2-2 3 5 5 3 17 5-1 2-10-2-20-7-14-3-15-5-2-2 1-4 5-5zm3 9 4 8 5 2-1-6-5-4z" fill="#FAFBF6"/>
<path transform="translate(554,261)" d="m0 0 2 4 6 2 5 2 3-1 2 3 3 9 7 1 5-4-2 12-1 2-6 1-9-1-7-4v-5l3-5h2v-2h2v-2l-8-2-7-4-1-3z" fill="#2C2E38"/>
<path transform="translate(523,700)" d="m0 0 7 2 3 5 2 5v4l2 1-11-2-15-4h-8l-4 3v-5l2-2 4-3z" fill="#49474B"/>
<path transform="translate(464,702)" d="m0 0h11l9 7 1 2v8l-2 3h-5l-9-4-4-6v-2l-4-2-3-4z" fill="#434145"/>
<path transform="translate(303,490)" d="m0 0 2 3-1 2h12l10 18 1 9-2 7-2 5-4 1-2 5-3 7h-2v-11l2-3h2l4-10-1-6-5-13-2-4-10-2z" fill="#2C2E38"/>
<path transform="translate(772,822)" d="m0 0 1 3-5 5-5 4-6 3-2 3h-2v2l-9 4h-2v2l-5 1-1 3-8 7-4 5-2 1-2 6h-2l-1 10v20l1 3 2 1 2 4 5 3v3l-4-2-7-8-3-9v-13l4-15 6-9 9-10 20-12 12-8z" fill="#888786"/>
<path transform="translate(729,915)" d="m0 0 8 3 16 8 20 8 9 3 6 1 3 1 8-1 1 4-7 2-11-1-16-5-15-8-20-11z" fill="#545355"/>
<path transform="translate(403,464)" d="m0 0h1v20l-2 6v14h-5l-2 5-5-1-3-10v-11l4-4 4 2v3l4 2 3-7-1-11z" fill="#2B2D37"/>
<path transform="translate(353,635)" d="m0 0 6 1 4 4-4 8-9 10-1 2-5 1-1 2-4-1-2-2v-5l5-5 6-5 3-5z" fill="#262324"/>
<path transform="translate(540,417)" d="m0 0h1l1 36 2 5 2 8 3 11 9 15 11 8 11 6 4 2 13 1v1h-14l-14-7-9-6-6-3-3 1-3-2v-5l2-5-3-1-1-4-3-3-1-9-2-1-1-5h2l-1-5-1-1v-24z" fill="#2C2E38"/>
<path transform="translate(468,894)" d="m0 0 4 1-11 12-9 12-5 6-7 6-7 12-1 3-1 16-3-4v-15l5-10 11-13 11-11 9-11z" fill="#7D7C7B"/>
<path transform="translate(671,629)" d="m0 0 2 3 1 5 4-1 2 6 1 11 3 1 1 2v6l-1 2-4 1-2-5v-2l-6-3-4-7v-5h3l-4-2-1-8 4 1z" fill="#24252B"/>
<path transform="translate(725,535)" d="m0 0 11 2 5 1 14 1v1l-10 1-15-1-3 1-2 9 4 1 10 6 1 2-9-3-6-1h-6l-1-3h-2l-2-3 1-9 3-3z" fill="#2C2E38"/>
<path transform="translate(680,323)" d="m0 0 5 5v3h4l1 2 6 2 7 1-3 3-8 2-1 3-7 2-3-1v-2l-5-2-3-4 1-4 3-3h2z" fill="#2C2E38"/>
<path transform="translate(675,308)" d="m0 0 5 2 2 2v11h-2l-1 7-4 2h-6l-5-3-2-1 4-2v-2l-2-1 2-4h2v-2h3l1-4z" fill="#24252B"/>
<path transform="translate(535,680)" d="m0 0 3 1 3 11v6l6 2-3 7-4 5-2 4h-3l-4-18h2v-16z" fill="#24252B"/>
<path transform="translate(455,455)" d="m0 0 6 2 4 5 2 4v16l-4 6-7 5h-9l-5-2-6-10v-10l6-8 8-6zm-2 5-7 4-8 8v8l5 8 3 2 6 1 7-2 2-4h2l2-3v-14l-4-6-2-2z" fill="#434145"/>
<path transform="translate(476,230)" d="m0 0h2l4 9 4 5 4 4 5 10 4 1 4-4 7-3 2-6h1v8l-2 5-10 3-2 5-4-2-6-9-3-3v-2h-2l-6-8-2 3z" fill="#434145"/>
<path transform="translate(658,141)" d="m0 0 5 1 4 7-1 4 3 5-2 3-3-1v-2l-4-1-10-5-9-7 1-3h11l5 1z" fill="#232022"/>
<path transform="translate(326,601)" d="m0 0 5 1 2 2v7l-10 13-5 1-4-4 7-18z" fill="#242223"/>
<path transform="translate(438,971)" d="m0 0 7 2 12 7 13 5v2l8 1 6 2v1l9 2 2 1h12l-1 2-6 2h-12l-33-14-10-6-7-6z" fill="#575658"/>
<path transform="translate(576,430)" d="m0 0h8l7 5 4 11v5l-8 9-2 1h-15l-4-4-2-5v-7l5-10zm4 3-6 3-5 5-2 3v8l2 4 10 3 7-1 3-3v-2l4-2-1-8h-2l-1-5h-2l-1-3-3-2z" fill="#434145"/>
<path transform="translate(460,957)" d="m0 0 37 11 10 5 4 4 2 7-2 7-2 1 1-14-5-1-10-4-12-3-11-3-8-4-1-2 1-2h-4z" fill="#6A696A"/>
<path transform="translate(515,241)" d="m0 0 2 1 3 8h-2l3 19-4-2-3-1-6 3-5-1h-4l1-6 9-3h2l3-17z" fill="#23242A"/>
<path transform="translate(358,187)" d="m0 0 2 1-10 10-1 3h-2l-2 4-4 1-2 4-5 5-11 9-3 3h-2l-1 3-6 3-8 9-4 1-7 7-2-1 13-13 11-9 8-8 11-9 7-7 11-9z" fill="#706E6F"/>
<path transform="translate(743,445)" d="m0 0 1 3 9 3v2l3 1-1 5 7 3 5 2 4 4-3 1-3-1v1h-6l-9-3-6-1 1-6v-5l-2-5z" fill="#24252B"/>
<path transform="translate(394,673)" d="m0 0 4 3v2l4 2 1 2h-3l-1 4-7 5-7 9h-2l-2-8 3-6 5-5h2l1-4z" fill="#242122"/>
<path transform="translate(622,284)" d="m0 0 3 1-4 5 2 1 1-2 1 3 3 1 1-6 4 1-1 8-2 5h-3l-3 5-1 3h-5l-2-4h2l1-5-5 1-1-2 1-3h2v-3h2l2-7z" fill="#24242A"/>
<path transform="translate(771,373)" d="m0 0h4l-2 5-9 10-9 8v-3-4h-6l-8 5-4-1v-6l2 2 6-1 18-10z" fill="#FAF9F0"/>
<path transform="translate(725,554)" d="m0 0 12 3 5 2 1 5-1 1-17 1h-5l-4 1-1-2 4-5 2-4z" fill="#23242A"/>
<path transform="translate(479,419)" d="m0 0 5 2 3 3-1 4-10 1-18-2-8-1-1-2 13-3 12-1z" fill="#FEFEFE"/>
<path transform="translate(610,95)" d="m0 0 17 1 12 6 7 7 7 8v2l4 2 3 3-5-1-6-6h-5v-2l-4-4v-2l-16-8-12-2-3-3z" fill="#FBFCFB"/>
<path transform="translate(286,441)" d="m0 0 3 1-4 2-1 7-21 7-7 1 1-5 15-8z" fill="#FEFEF4"/>
<path transform="translate(751,418)" d="m0 0h1l5 24 2 4 12 3 6 2 40 1 6 1-1 3h-8v-2l-6 2-8-1-10-1-21-1-2-4h-12l-1-1-1-10-1-8-2-6v-5z" fill="#FEFEF4"/>
<path transform="translate(595,280)" d="m0 0 6 4v2l6 2 4 4 3 1v-2l5-3-1 5h-2v3h-2l-1 4-4 4-6-1-3-6-2-11-3-4z" fill="#2C2E38"/>
<path transform="translate(703,192)" d="m0 0 5 2 7 6v2l5 2 1 3 5 1 3 3v2l5 2 10 8 3 1 5 5 16 8 4 3 5 3 1 4-11-6-14-8-12-9-15-12-13-10-10-9z" fill="#6F6D6E"/>
<path transform="translate(770,529)" d="m0 0 8 1 2 4-4 3-12 3-1-4-3-2 1 3-3 1-2-3-1 2-1-2-7-1-2-3 3-1h15z" fill="#232021"/>
<path transform="translate(888,441)" d="m0 0 1 4-7 6-8 4-15 1h-31l-1-3 17-1 26-1 10-3z" fill="#4E4D51"/>
<path transform="translate(912,356)" d="m0 0 3 4 5 14 3 13v39l-2 7h-1l-1-46-2-13-5-15z" fill="#FEFEF4"/>
<path transform="translate(440,256)" d="m0 0 6 1 3 5h-4l-1 8-1 6-7 4-3 3-5 2-7 4-5-1-4-2 6-1 3-3h3l2-4 7-1 6-4 2-2-1-10-1-3z" fill="#2C2E38"/>
<path transform="translate(517,695)" d="m0 0h11l4 4 1 8-5-5-5-1-18 4-4 1 1-5 6-5z" fill="#2C2E38"/>
<path transform="translate(756,471)" d="m0 0 6 1 2 1 18 2v4l-2 1-14 1h-10l-2-3v-5z" fill="#EDF5F4"/>
<path transform="translate(589,699)" d="m0 0h1l1 12 1 6-1 4h-6l-5-6-1-9-1-4h2l2 2 5-2 1 1z" fill="#232021"/>
<path transform="translate(737,407)" d="m0 0v3l-4 7 1 6-3 5 1 5 5 1 8 2 1 2-1 10-2-3v-7l-13-1-6-5v-6l3-6 5-9 1-2z" fill="#2C2E38"/>
<path transform="translate(716,616)" d="m0 0 9 1-3 9-3 1v-3l-2-1-1 4-5 1v2l-11 7-2 1v-3h2l2-4 6-8 4-5z" fill="#FEFEF5"/>
<path transform="translate(493,697)" d="m0 0h4l2 3 2-2 1 9-1 2-7 3-3 1-4-2v5h-2v-7l2-5 2-4 2-2 1 1z" fill="#24252B"/>
<path transform="translate(445,466)" d="m0 0 1 2-3 3 5 2 1 4 2 1-1 4-2-1-2-6-1 5 3 6 3-3h3l-1 5 1 2-3 1-7-2-4-5-2-4v-8z" fill="#252733"/>
<path transform="translate(543,271)" d="m0 0 4 2 4 7 2 2v3l-8 3-5-1-3-2-1-4 6-9z" fill="#2C2E38"/>
<path transform="translate(916,442)" d="m0 0v3l-8 12-10 9-14 7-11 2v-2l6-1v-2l8-2 8-5 5-2v-3l4-1 1-4 3-1 1-5h2l2-4z" fill="#615F62"/>
<path transform="translate(340,288)" d="m0 0 1 2 3-1 1 4 4 1 1 5 4 1 8 5-3 1-2-1v2l2 1h-7l-4-4-4-2v-2l-5-2-1-8z" fill="#252223"/>
<path transform="translate(429,206)" d="m0 0 4 2 5 6 6 12 2 9-5-4v-8l-5 1-3-1-1 3h-1l-2-11-1-8z" fill="#595759"/>
<path transform="translate(392,267)" d="m0 0 5 2v2h2v2h2l7 9-1 3-3-1-3 3-3-1v-3h-2v-2l-3-1-2-4z" fill="#232021"/>
<path transform="translate(399,287)" d="m0 0h2l3 7-1 5-7 3-9 3-2 7-5 3-8-2-5-3 1-2 8 4h6l2-7 1-4 13-7z" fill="#2C2E38"/>
<path transform="translate(334,608)" d="m0 0h3l3 8 2 7 5 5 4 3 1 9-12 11-7 6 2-4 10-10 1-4-7-17-4-12z" fill="#696A6E"/>
<path transform="translate(638,688)" d="m0 0h1l2 7 3 2-1 5 1 6-4-1-12-12 1-4h4l4-1z" fill="#232122"/>
<path transform="translate(707,347)" d="m0 0 1 2-1 4 1 15 5 2 5 5 7 2-2 2h-9l-2-3-6-2-3-2 1-7v-9l-1-2 3-6z" fill="#2C2E38"/>
<path transform="translate(99,533)" d="m0 0h1v37l1 18 2 5v10l-2 1-3-17-1-20-1-11z" fill="#91908F"/>
<path transform="translate(508,858)" d="m0 0m-2 1 2 1-4 6h-2l-2 4h-2l-1 3-7 5h-2l-2 5-7 6-6 2-4 2 5-6 8-7 12-11 10-8z" fill="#616063"/>
<path transform="translate(646,123)" d="m0 0h2v2h2v2l4 1-1 4-1 2-5 1-2-1-1 3-5-1-1 5-2 1-3-2 1-5 6-4h2l2-5z" fill="#252734"/>
<path transform="translate(915,371)" d="m0 0h2l2 7 1 9v50l-2 5-2-3 1-7v-51l-2-7z" fill="#4C4A4D"/>
<path transform="translate(507,231)" d="m0 0h2l1 5-2 2v10h-3l-3-3-5 2-7-2 5-5 7-2 4-6z" fill="#CFE4F3"/>
<path transform="translate(302,239)" d="m0 0m-1 1m-1 1 2 3-4 1-1 4-4 5-11 8-9 8-3 1 2-4 6-7 8-7 3-3 5-3z" fill="#525053"/>
<path transform="translate(468,894)" d="m0 0 4 1-11 12-6 8-5 3-14 14v-3l12-13 7-7 9-11z" fill="#878685"/>
<path transform="translate(803,272)" d="m0 0 4 1 5 5 7 6v2l4 2 5 5 10 9 3 4-1 2-15-13-22-22z" fill="#777575"/>
<path transform="translate(274,264)" d="m0 0m-1 1m-1 1m-2 1 2 1-38 38-8 7-13 14v-3l12-13 11-11 8-7z" fill="#959492"/>
<path transform="translate(599,248)" d="m0 0h4l-2 9-4-1-5 4h-3l-2-8-2-2 2-1z" fill="#FEFEF4"/>
<path transform="translate(683,672)" d="m0 0 5 2 4 2h3l2-2 3 5 5 3 17 5-1 2-10-2-20-7-11-2v-1h6z" fill="#EDF4F5"/>
<path transform="translate(406,522)" d="m0 0 3 4v2h2l7 12 9 6v3l-5-2-3-2-5-1-3-6-2-3-2-4v-4l-3-1-1-3z" fill="#25262D"/>
<path transform="translate(293,503)" d="m0 0 2 4-1 3-3 2-1 3-4 3-8 1v-3l1-3 10-8z" fill="#292627"/>
<path transform="translate(743,482)" d="m0 0 9 1 5 4-1 4-10 1-4-2-2-4 1-3z" fill="#24242A"/>
<path transform="translate(661,467)" d="m0 0 2 4-2 10-2 7-2 4-4 4h-1l-2 4h-3v2l-7 1 6-7 4-3h2l2-5 3-5z" fill="#2C2E38"/>
<path transform="translate(518,252)" d="m0 0 2 4 3 2 1 4 6 1 10-2v2l-8 6h-7l-5-1-2-11z" fill="#2C2E38"/>
<path transform="translate(647,372)" d="m0 0 6 1 3 1v5l-3 1v8l-3 1-2-2v-6l-3-4 1-4z" fill="#2C2E38"/>
<path transform="translate(590,275)" d="m0 0 4 2 3 6 2 3-1 4h-3l-2-2-5-2-2-1-1-4 3-5z" fill="#24242A"/>
<path transform="translate(553,455)" d="m0 0 4 1 4 5 2 8v4l-3 1v-2h-3l-3-3z" fill="#FEFEFD"/>
<path transform="translate(445,261)" d="m0 0 6 2 1 3h2l3 10-1 3-2-6-9-1-1 3-1-8z" fill="#24242A"/>
<path transform="translate(541,803)" d="m0 0h2l4 8 3 14 2 6v11h-2l-2-9-3-10h2v-5l-3-1-2-10z" fill="#7E7D7D"/>
<path transform="translate(635,141)" d="m0 0 8 4 10 8 11 5 8 8h-4l-17-11-16-12z" fill="#5D5B5D"/>
<path transform="translate(469,708)" d="m0 0 8 1 6 3v6l-4 1-6-2-4-4-1-4z" fill="#C5E0F5"/>
<path transform="translate(713,351)" d="m0 0 4 1 10 9 9 3-5 4-5-1-5-4-2-1-3-5-3-4z" fill="#FEFEF4"/>
<path transform="translate(772,822)" d="m0 0 1 3-5 5-5 4-6 3-2 3h-2v2l-9 4-4-2 15-9 10-7z" fill="#585658"/>
<path transform="translate(747,464)" d="m0 0 5 2 6 1v1h-17l-2 5v5l3 2 9 1v2h-10l-5-3-1-9 2-5z" fill="#2C2E38"/>
<path transform="translate(446,164)" d="m0 0h7l5 1 1 5-3 3h-8l-2-4h-2z" fill="#BEDEFC"/>
<path transform="translate(340,616)" d="m0 0 1 2 4 2 8 6 3 3-1 5h-2l-1 2-1-5-4-2-5-5-2-4z" fill="#2B2D37"/>
<path transform="translate(729,375)" d="m0 0h3v5l-4 1-2 10h-2l-2-3-1-6-5-1 1-2 8-1 1-2z" fill="#24242A"/>
<path transform="translate(400,682)" d="m0 0 4 1 5 2v2l4 1 8 7 4 5 1 8h3l-1 4-4 1-2-11-7-9-10-7-5-1z" fill="#5B5B5F"/>
<path transform="translate(823,453)" d="m0 0h4l1 2h19l-1 2-7 1h-24l-10-1 4-3h5v2l8-1z" fill="#434145"/>
<path transform="translate(545,254)" d="m0 0 8 4 1 6-4 1v-2l-6 2-4-1 1-5 2-4z" fill="#24252B"/>
<path transform="translate(404,283)" d="m0 0h4l4 2v2l5 1-1 3h-8l-1 3-2-2-2 2-2-5v-3h2z" fill="#24252B"/>
<path transform="translate(285,402)" d="m0 0 5 1 2 1v3l-4 4h-8l-2-7z" fill="#474548"/>
<path transform="translate(880,357)" d="m0 0 3 1 6 7v2h2l3 7 2 6v25h-1l-2-25-4-9-9-13z" fill="#7A7979"/>
<path transform="translate(738,845)" d="m0 0 4 1v2l-5 1-1 3-8 7-4 5-3 1 1-5 10-11z" fill="#6D6C6D"/>
<path transform="translate(412,490)" d="m0 0 4 1 2 4v11l-4-1-4-7v-5z" fill="#FEFEFE"/>
<path transform="translate(293,346)" d="m0 0 14 6v1l-6 2-1 4-1 2-7-8v-6z" fill="#FEFEF4"/>
<path transform="translate(728,381)" d="m0 0 2 1v7l4 8v2h4l2 5-2 3v-3l-3-1v-2l-6-2-3-7v-7z" fill="#2C2E38"/>
<path transform="translate(814,806)" d="m0 0 1 2-9 15-13 15-3 2 2-4 3-5 6-8 5-5 3-6z" fill="#4D4D52"/>
<path transform="translate(396,665)" d="m0 0 4 1 4 8 2 5-4 2-5-5-3-4 2-5z" fill="#24252B"/>
<path transform="translate(480,540)" d="m0 0 2 1-9 4-20 5-10-1-3-2 1-2h2v2l11 1v-2l10-2h5v-2z" fill="#D9EAF5"/>
<path transform="translate(726,557)" d="m0 0h8l5 5v1 2l-8 1-1-3h-5l-1-5z" fill="#232021"/>
<path transform="translate(423,134)" d="m0 0 1 3-3 2-4 7-4 2-1 5-2-4h-2v2h-5l5-5 12-10z" fill="#FEFEF9"/>
<path transform="translate(766,736)" d="m0 0 4 1 6 10 7 9 4 8-1 4-10-16-10-14z" fill="#676669"/>
<path transform="translate(124,599)" d="m0 0 2 4 4 13 6 6 6 2-2 3h-5l-6-5-4-12z" fill="#626266"/>
<path transform="translate(580,433)" d="m0 0 3 1 4 2v2h2l1 5h2l1 8-6-9v-2l-5-1-2 1v-2l-5 1-2 1-2-2 4-3z" fill="#2C2E38"/>
<path transform="translate(364,317)" d="m0 0h1l1 7-4 13-2 3h-2l1 3-4 9-2-1 3-10 2-9h2l2-4z" fill="#2C2E38"/>
<path transform="translate(548,515)" d="m0 0h3v2l6-1 3 2-10 3-4 2-6 1 1-6z" fill="#24252B"/>
<path transform="translate(307,425)" d="m0 0 1 4v9h-2v2h-9l-3-2 9-3 1-6z" fill="#FEFEF4"/>
<path transform="translate(264,402)" d="m0 0h7l2 2-1 5-2 2h-6l-2-2v-5z" fill="#59575A"/>
<path transform="translate(704,336)" d="m0 0 1 3-2 1 2 4 2 1-1 4-3 3-2-4-4-1-1-4 2-2-2-2 5-1h3z" fill="#23242A"/>
<path transform="translate(753,230)" d="m0 0 7 3 8 4 4 3 5 3 1 4-11-6-14-8z" fill="#6C6B6C"/>
<path transform="translate(485,542)" d="m0 0 1 2-3 4-10 4h-10l-3 2h-7l4-2 8-3 16-4z" fill="#2C2E38"/>
<path transform="translate(367,641)" d="m0 0 10 1 2 2 5 2 2 6-3 6-5-11-10-4z" fill="#2C2E38"/>
<path transform="translate(539,704)" d="m0 0h5l-1 4-5 8h-3l-2-7 1-4z" fill="#232021"/>
<path transform="translate(486,257)" d="m0 0 4 1 3 6 3 4-5-1-4-3-2 2h-3v-6z" fill="#24252B"/>
<path transform="translate(680,649)" d="m0 0 1 4 3 1 1 2v6l-1 2-4 1-2-5v-2l-2-1 1-3 2-1z" fill="#232021"/>
<path transform="translate(357,305)" d="m0 0 9 1 1 4 2 1h-5l-1 3-8-3-2-1 2-4v2l2-1z" fill="#25262C"/>
<path transform="translate(461,412)" d="m0 0h10l12 1v2h-33l-8 2 3-3 3-1z" fill="#BEDDF5"/>
<path transform="translate(668,659)" d="m0 0 2 1-2 6-1 4 4 3-1 2-9-4-1-4 5-4z" fill="#F7FAF4"/>
<path transform="translate(123,533)" d="m0 0h1v10l-1 11-2 5-1 9h-1v-15l2-9 1-9z" fill="#4B4E56"/>
<path transform="translate(236,335)" d="m0 0 3 1-15 15-8 10-1-3 3-3 1-3h2l2-4z" fill="#5D5E63"/>
<path transform="translate(307,486)" d="m0 0 6 2v4l-2 1 4 2-2 1-9-1v-6l3-1z" fill="#24252B"/>
<path transform="translate(844,452)" d="m0 0h19v1l-13 1-13 2h-9l-1-3z" fill="#F8F8EF"/>
<path transform="translate(504,184)" d="m0 0 4 1 1 4-4 4h-5l-1-1v-5z" fill="#BEDEFC"/>
<path transform="translate(335,240)" d="m0 0 2 1-11 10-8 7-6 7v-3l3-5 7-7 5-4z" fill="#4A4B52"/>
<path transform="translate(592,383)" d="m0 0 21 2v2h-28l-8-1v-1z" fill="#C9E2F5"/>
<path transform="translate(421,521)" d="m0 0 4 2 6 9-1 3-5-2-4-7z" fill="#FEFEFE"/>
<path transform="translate(764,936)" d="m0 0 8 1 14 4h14l-1 2-11 1-17-4-7-3z" fill="#FDFDF4"/>
<path transform="translate(102,606)" d="m0 0h1l2 13h2l5 12 2 2-2 3-4-5-5-13-1-5z" fill="#B0B1AF"/>
<path transform="translate(450,414)" d="m0 0h20l13 1v1h-19l-20 2v-2z" fill="#FEFEFE"/>
<path transform="translate(301,634)" d="m0 0h1l1 6h7l-2 4-4 4h-4v-9z" fill="#FEFEF4"/>
<path transform="translate(323,573)" d="m0 0h5l3 7v14l-4 6-2-1 3-6v-14l-1-4z" fill="#2C2E38"/>
<path transform="translate(375,694)" d="m0 0 1 3-2 6v4l4-1 5-2-4 6-1 1h-6l-1-1 1-10z" fill="#FEFEF4"/>
<path transform="translate(453,460)" d="m0 0h6l5 6 1 2v14h-1l-1-13-4-6-3-1-2 2-3-1-1 4-4-1 1-3z" fill="#2C2E38"/>
<path transform="translate(732,400)" d="m0 0 3 1 3 3-1 4-4 3-2 2-1-5 1-2-2-1h2l-1-3z" fill="#24252B"/>
<path transform="translate(232,306)" d="m0 0 1 3-10 11h-3l2-4zm-13 14m-1 1m-1 1m-1 1m-1 1m-1 1m-1 1m-2 1 2 1-4 3z" fill="#4C4A4D"/>
<path transform="translate(510,246)" d="m0 0h1v6l-2 2-8 3-2 3-4-1-4-6 1-3 5 8 5-5 6-3z" fill="#DAEBF8"/>
<path transform="translate(507,231)" d="m0 0h2l1 5-4 1v2l-6 4h-8l3-3 7-2 4-6z" fill="#BEDEFB"/>
<path transform="translate(655,688)" d="m0 0h7l1 3 11 1 5 3 4 1v2l4 2-6-1-13-6-9-2z" fill="#565B63"/>
<path transform="translate(496,676)" d="m0 0 2 1 2 9-2 2-4-1-1-1 1-7z" fill="#24252B"/>
<path transform="translate(594,377)" d="m0 0 12 3 11 2v2h2l1 3-4-2-21-5-6 1 1-3z" fill="#2C2E38"/>
<path transform="translate(763,858)" d="m0 0 4 1-18 12-2-1 4-5z" fill="#4C4C51"/>
<path transform="translate(252,287)" d="m0 0v3l-8 10h-2v2h-2l-1 3-5 2 2-4z" fill="#424044"/>
<path transform="translate(515,493)" d="m0 0h1v9l-4 10-1 10-5 1 3-7 3-9z" fill="#2C2E38"/>
<path transform="translate(236,300)" d="m0 0 2 1-17 17-7 8-2 1 2-4 11-12z" fill="#FEFEF5"/>
<path transform="translate(373,206)" d="m0 0 3 1-16 15-3 3h-2l2-5h2v-2l6-4z" fill="#626266"/>
<path transform="translate(295,481)" d="m0 0h1v11l-6 10-6 2 6-8 4-10z" fill="#FAFBF4"/>
<path transform="translate(743,720)" d="m0 0 6 1 10 5v2l4 2 1 3h2l-1 3-10-9-12-6z" fill="#747375"/>
<path transform="translate(768,517)" d="m0 0 6 5 13 3 1 5-4-3-14-3-2-2z" fill="#FEFEF4"/>
<path transform="translate(485,717)" d="m0 0 4 1 2 2-5 6-6-2-1-2 4-1z" fill="#25252C"/>
<path transform="translate(474,991)" d="m0 0 5 1 21 5v1h-12l-14-6z" fill="#FEFEF5"/>
<path transform="translate(524,842)" d="m0 0 1 3-4 6-10 7-2-1 14-13z" fill="#4A484C"/>
<path transform="translate(425,700)" d="m0 0 6 1 1 3v3l-6 2-1-1z" fill="#232021"/>
<path transform="translate(576,380)" d="m0 0 6 1 6-1-1 3-15 1-5 1 1-3z" fill="#2C2E38"/>
<path transform="translate(279,291)" d="m0 0 2 1-14 14 1-4 2-5z" fill="#676566"/>
<path transform="translate(429,206)" d="m0 0 4 2 1 4-2 4 3 1-5 1-2-7z" fill="#BEBDB8"/>
<path transform="translate(442,186)" d="m0 0 6 1 3 3 5 3 1 3-5-1-10-7z" fill="#D6E9F9"/>
<path transform="translate(436,69)" d="m0 0 1 4-1 3-1 16-2 1v-18z" fill="#FEFEFB"/>
<path transform="translate(772,822)" d="m0 0 1 3-5 5-5 4-3 2-3-1 9-8z" fill="#4F4D50"/>
<path transform="translate(311,229)" d="m0 0 2 1-9 9-8 7-4 4-2-1 13-13z" fill="#FEFEF5"/>
<path transform="translate(469,708)" d="m0 0 8 1 6 3v6l-4 1v-2h3v-4l-4 1v-2l-8-2-1 3-1-4z" fill="#95C8F7"/>
<path transform="translate(327,663)" d="m0 0v3l-1 2v7h7l-5 4h-4l-1-9 3-6z" fill="#FEFEF5"/>
<path transform="translate(329,596)" d="m0 0 1 2 3-1 2 7h-3l-4-2-4 1v-3h3z" fill="#24252A"/>
<path transform="translate(515,241)" d="m0 0 2 1 3 8h-2l-1 2-2-5v11l-3-1 2-15z" fill="#282A32"/>
<path transform="translate(703,192)" d="m0 0 5 2 7 6v2l5 2 1 4-8-6-10-9z" fill="#626265"/>
<path transform="translate(702,682)" d="m0 0 10 2 10 3-1 2-10-2-9-3z" fill="#FEFEF4"/>
<path transform="translate(402,504)" d="m0 0 2 1 5 19 1 4-3-3-1-7-3-1z" fill="#2C2E38"/>
<path transform="translate(403,464)" d="m0 0h1v20l-2 6h-2l2-10-1-8z" fill="#2C2E38"/>
<path transform="translate(504,972)" d="m0 0 4 2 3 3 2 7-2 7-2 1v-14z" fill="#BBBAB5"/>
<path transform="translate(541,803)" d="m0 0h2l4 8 1 7-4-1-2-10z" fill="#7D7B7B"/>
<path transform="translate(501,566)" d="m0 0 5 1v6l-4 1-2-2v-5z" fill="#2C2E38"/>
<path transform="translate(658,250)" d="m0 0 1 3-7 12h-3l1-5 4-4 3-5z" fill="#706F6F"/>
<path transform="translate(386,253)" d="m0 0 6 1 4 4-5 1-2 7h-1z" fill="#FFFEF4"/>
<path transform="translate(410,144)" d="m0 0h6l-1 3-2 1-1 5-2-4h-2v2h-5l5-5z" fill="#FEFEF4"/>
<path transform="translate(781,846)" d="m0 0 2 1-14 11h-2l2-4 4-1 2-4h2v-2z" fill="#4E4D52"/>
<path transform="translate(99,588)" d="m0 0h2l2 5v10l-2 1-2-11z" fill="#81807F"/>
<path transform="translate(179,405)" d="m0 0 3 1-9 13-2 2 1-5 2-3 2-4z" fill="#616165"/>
<path transform="translate(749,386)" d="m0 0m-12 1 2 2 6-1 4-1v2l-8 5-4-1z" fill="#FEFEF4"/>
<path transform="translate(168,381)" d="m0 0 2 4-6 8h-3l1-4z" fill="#5B595B"/>
<path transform="translate(880,357)" d="m0 0 3 1 6 7v2h2v4l-3-1-8-12z" fill="#646264"/>
<path transform="translate(675,308)" d="m0 0 5 2 1 3-2 4v-2l-4 1-1-5z" fill="#232123"/>
<path transform="translate(348,642)" d="m0 0 1 3-7 6-4 4-2-1zm-13 13m-1 1m-2 1 2 1-2 1z" fill="#484649"/>
<path transform="translate(144,472)" d="m0 0 2 1-8 18-1-3 3-7 1-6z" fill="#7A7979"/>
<path transform="translate(662,621)" d="m0 0 3 1v10l-3-1-1-9z" fill="#24252B"/>
<path transform="translate(734,556)" d="m0 0 8 3 1 5-4 1-3-2 2-2-4-3z" fill="#25262B"/>
<path transform="translate(179,366)" d="m0 0 1 4-8 9-2-1 7-11z" fill="#626062"/>
<path transform="translate(511,257)" d="m0 0 1 4-9 3-2-1-1 4-1-2 2-4 10-2z" fill="#2C2E38"/>
<path transform="translate(475,744)" d="m0 0 4 1 5 5 1 3-2 3-8-11z" fill="#7E7C7C"/>
<path transform="translate(236,335)" d="m0 0 3 1-9 9-2-2z" fill="#787777"/>
<path transform="translate(674,168)" d="m0 0 7 3 2 1v3l4 1-1 3-12-9z" fill="#605F63"/>
<path transform="translate(715,901)" d="m0 0 3 1v2l2 1 2 4 5 3v3l-4-2-7-8z" fill="#696769"/>
<path transform="translate(729,598)" d="m0 0h2l-3 14-1-4h-2l1-7z" fill="#FEFEF4"/>
<path transform="translate(120,570)" d="m0 0h1l2 9v7l-3-3-1-7z" fill="#7F7E7D"/>
<path transform="translate(501,243)" d="m0 0h7v5h-3l-3-3-5 2-2-2z" fill="#FFFEF4"/>
<path transform="translate(480,540)" d="m0 0 2 1-9 4-8 1 4-2v-2z" fill="#CEE5F6"/>
<path transform="translate(547,498)" d="m0 0h7v3l-3 2h-5v-3z" fill="#2C2E38"/>
<path transform="translate(407,448)" d="m0 0 2 2-1 6-1 2-4-2 1-4h2z" fill="#24252C"/>
<path transform="translate(384,164)" d="m0 0 2 1-7 7-7 6-2-1 10-10z" fill="#FEFEF5"/>
<path transform="translate(870,344)" d="m0 0 5 2v2h2v2h2l1 7-4-4z" fill="#6C6A6B"/>
<path transform="translate(484,212)" d="m0 0h2l1 5-5 1-2-2v-3z" fill="#BEDEFC"/>
<path transform="translate(660,129)" d="m0 0 4 2 3 4v2h-2l-2-2-6-2v-3z" fill="#242225"/>
<path transform="translate(433,707)" d="m0 0 4 1 6 4 4 4v2l-4-2-10-8z" fill="#63666D"/>
<path transform="translate(695,596)" d="m0 0 4 1 2 3v4l-4-2-2-2z" fill="#24252B"/>
<path transform="translate(466,405)" d="m0 0 7 3 7 1v1h-8l-6-1h-7l3-2z" fill="#2C2E38"/>
<path transform="translate(674,290)" d="m0 0 5 1 5 12-1 2-3-4-3-8z" fill="#FEFEF4"/>
<path transform="translate(580,254)" d="m0 0 1 4-2 2h-15v-1l11-1z" fill="#FFFEF4"/>
<path transform="translate(646,123)" d="m0 0h2v2h2v2l4 1-7 1h-4l2-4z" fill="#2C2E38"/>
<path transform="translate(766,736)" d="m0 0 4 1 5 8-1 3-8-10z" fill="#878685"/>
<path transform="translate(476,712)" d="m0 0 6 1v4h-7l-1-3h2z" fill="#FBFCF5"/>
<path transform="translate(492,529)" d="m0 0h2l-2 4-8 7-2-1 3-4h3l2-4z" fill="#CAE3F5"/>
<path transform="translate(547,457)" d="m0 0 2 2v3h2l1 3v9l-2-4-3-10z" fill="#CDE4F7"/>
<path transform="translate(737,447)" d="m0 0h3v2l3 1-1 4-4-1-2-5z" fill="#24252B"/>
<path transform="translate(729,375)" d="m0 0h3v5l-4 1-1 2-1-6z" fill="#262529"/>
<path transform="translate(545,254)" d="m0 0 5 3-1 3h-6l-1-2 1-3z" fill="#232022"/>
<path transform="translate(677,155)" d="m0 0 3 1 1 4 2-1v3h-2l-1 3-2-4v-3l-4 1 2-3z" fill="#24252B"/>
<path transform="translate(720,863)" d="m0 0h1v6l-1 2h-2l-2 6-1-2 4-11z" fill="#908F8D"/>
<path transform="translate(122,551)" d="m0 0 1 3-2 5-1 9h-1v-15z" fill="#C4C3BE"/>
<path transform="translate(573,385)" d="m0 0 3 1-5 4-7 2 5-5z" fill="#D8EAF7"/>
<path transform="translate(627,271)" d="m0 0 1 3-4 5-8-1v-1l7-2z" fill="#FEFEF5"/>
<path transform="translate(515,246)" d="m0 0 2 2v10h-2l-1-2v-9z" fill="#232021"/>
<path transform="translate(668,659)" d="m0 0 2 1-7 8 1 4-4-2 1-4 5-5z" fill="#9CCCF6"/>
<path transform="translate(533,498)" d="m0 0 4 1-4 4-6-1 2-3z" fill="#24252B"/>
<path transform="translate(827,453)" d="m0 0h10v3h-9z" fill="#FEFEF4"/>
<path transform="translate(439,413)" d="m0 0 3 1-12 7-1-3z" fill="#2C2E38"/>
<path transform="translate(450,414)" d="m0 0h9v1h-7v2l-8 1v-2z" fill="#FEFEF7"/>
<path transform="translate(633,395)" d="m0 0 5 2 1 3 3 1 1 4-5-3z" fill="#2C2E38"/>
<path transform="translate(423,717)" d="m0 0h2v2h-2z" fill="#FFFEF4"/>
<path transform="translate(610,695)" d="m0 0" fill="#FFFEF4"/>
<path transform="translate(607,696)" d="m0 0" fill="#FFFEF4"/>
</svg>
